<mxfile host="Electron" agent="Mozilla/5.0 (Windows NT 10.0; Win64; x64) AppleWebKit/537.36 (KHTML, like Gecko) draw.io/26.2.2 Chrome/134.0.6998.178 Electron/35.1.2 Safari/537.36" version="26.2.2">
  <diagram id="A-68K8tMQSlZSvklpXSj" name="第三章 单元系的相变">
    <mxGraphModel dx="2060" dy="2690" grid="0" gridSize="10" guides="1" tooltips="1" connect="1" arrows="1" fold="1" page="0" pageScale="1" pageWidth="827" pageHeight="1169" math="0" shadow="0">
      <root>
        <mxCell id="0" />
        <mxCell id="1" parent="0" />
        <mxCell id="icfO6rmQttoz7ublhoc3-1" value="" style="shape=image;verticalLabelPosition=bottom;labelBackgroundColor=default;verticalAlign=top;aspect=fixed;imageAspect=0;image=data:image/png,iVBORw0KGgoAAAANSUhEUgAABGMAAACYCAYAAABAtyTNAAAAAXNSR0IArs4c6QAAAARnQU1BAACxjwv8YQUAAAAJcEhZcwAADsMAAA7DAcdvqGQAAP+lSURBVHhe7L1XlyNJkh18A1rLBFLLyhLdM9Mzy92z5CEP3/i/lr+ND3xYLnd2WlV1VWoFJLTWQHwPtOufpTeyGtVTXarjnhMHQCCku5u5mbkJZ7FYuPDgwYMHDx48ePDg4TPFYrGA4zhwHAcA4DgOXNc122KxgOu66Pf7AACfzwe/349gMAifzwefz/fgfA8ePHh4X7D5iuv+/+q3/m7zoMeOw5Jrevg84XjGGA8ePHjw4MGDBw+fM35JUeHv8XgM13WN0vPYZl/Pw6+D3Q+PKZf2cR48fEmwx/djdIAlx3r4suGzd3jw4MGDBw8ePHjw8LlBG1Ns0EPGPmbZ8bZy5MGDBw8ePPwW8IwxHjx48ODBgwcPHn43sI0vHjx48ODBw8eAZ4zx4MGDBw8ePHjw8FljVQOLPm7Vczx48ODBg4ffAp4xxoMHDx48ePDgwcNnjWXhRlDhSdwgyXt1wt7HzvXgwYMHDx5+S3jGGA8ePHjw4MGDBw9fBB4zrNAY4xlhPHjw4MHDpwLPGOPBgwcPHjx48ODhiwM9YezPtxlitAeNBw8ePHjw8FvCM8Z48ODBgwcPHjx4+CJhG1aWGWA8ePDgwYOHjwHPGOPBgwcPHjx48ODhi4JtdFnmFWNvHjx48ODBw4eEZ4zx4MGDBw8ePHjw8MXD9pLx4MGDBw8ePiacxWLhzUwePHjw4MGDBw8evkhoI4znAePBgwcPHojH5ofH5oplOcj057sa/T3PGA8ePHjw4MGDBw9fLLxQJA8ePHjw8Fvh75lbPGOMBw8ePHjw4MGDBw8ePHjw4MHDL8D2frF/vws8Y4wHDx48ePDgwYMHDx48ePDgwcMKcF3XbH8PPGOMBw8ePHjw4MGDBw8ePHjw4MHDI9AGmGXbr4FnjPHgwYMHDx48ePDgwYMHDx48eFgC2/CyzAjzawwynjHGgwcPHjx48ODBgwcPHjx48ODhLVhmgLH3vQs8Y4wHDx48ePDgwYMHDx48ePDgwYMF2+DyS7/fBZ4xxoMHDx48ePDgwYMHDx48ePDgYQlsg4v+bf/3LvCMMR48ePDgwYMHDx48ePDgwYMHDx8QzmKxeHcTzgfAYrEAADiOA8dxzH7bIrVYLOA4Dnw+HxzHefC/4zjw+/3m2FXhui5ms5k5n9eFXJPH+Hz/z5a17D8PHn4vcBwH8/nc0CGxWCzguq7Z/xhd8BiPfjx4+HRgz6cE513OvZwnNe3zPD13e/DgwYMHD78Vls03nL9sPe19412ua8+rWv597P9l3+25+XOH1gHsNtCgbEG9X+9/rN3eF/R4sp9P9+O73vuT9IxxRdh7W4dw/7Lj7N/vAkcE0Ol0ivl8/uA/Xo/3tPdrcN+7dogHD58jNO0tFguMx2P0+330ej30+32MRiPMZrMHRlYILS0WC8zn86V05MGDhw8PzoPL5lLS+Hw+NzS9bB7W1/LmQQ8ePHjw8FvhsTnG3m/PT+8D9j1+Cdro8PfgXe/7ucCWPWz5wtbBl53Dfe8blGd8Ph/8fv+DjcahX9Mvn6RnjOu6ZqWdL/2uL6c7BO8waB1Z5R8MBgiHwwgEAmZVn8/Ez2Aw+OA+fF4qnNznwcOXDo75xWKB6XSKSqWCdruN2WyGQCCAZDKJfD6PcDiMYDBoPNYmk4kxxAQCAYRCod+EgXrw4GF1cB6bz+dYLBbw+XwIBAIP5jNtQOV+e87Vm0fXHjx48ODht8DbdC1bOX/bsb8Gv+Z6tp6or/E2/dW+15c0r1LuoLHFUfq/ljFmsxl8Pt8D2wBlFZ7zNm/8TxGfrDGGHUHYg3UVuGJBm81mCAaDK51PAXQ6nSIcDsPv92M+n2M8HmMwGJjjQqEQYrGYCWMibKJ3Xdconh48fIkgA51MJuh2u6jVanj16hUqlQpmsxlCoRCy2Sz+8Ic/IJPJIJVKIR6PA2KMGY/HWCwWCAQCiMVi9uU9ePDwgcE5WAtFeg6mwMR9ttCjj+c5q8y/Hjx48ODBw7visflFz038/tixvxbvej3Or4SeJx/7f9l3fGHGGFiLPPQ+4f7pdIrpdGr2BwIB+P1+uOIsQZlEO1F8LvgkjTHLoI0bGn6//1FLGo+fz+c/M5o8BhIBLW+TyQT9fh+tVgudTgeBQACRSATJZBKZTMYYbKDCl3wSO8/fgUDAuosHD18OHMfBdDpFr9dDrVbDzc0Nvv/+e9TrdWOMSafT+MMf/oD19XUUi0Wsra0ZQ+dkMsFsNoPf70c0GrUv78GDhw8MCjXEbDbDeDzGeDw29Oq6LsLhsPEgDYVCP1t4oJC5ytzrwYMHDx48/BrYxowPCXt+e9v9l/1nz5HUQ/X/y77jket9ruB78518Ph8WkvZgMBhgMBig3+8jlUohEomYzbYDMGToc4L/X/7lX/6nvfNTgD04lw1UNrr+zU7UQqB9rbeBxzmOg/F4jHa7jfv7e9ze3uLu7g7D4dAYd6LRqLHAQZ5rIS7dvI6rjDMePHyJcBwHk8kE7XYb1WoVd3d3uL6+RrfbxXg8xnw+x3w+N2EOwWAQkUgE4XD4AV3S0u3Bg4ePCxpjOJeNx2O0Wi3UajVUKhXUajW0Wi2TW811XYRCIUPjeh59l/nXgwcPHjx4+Jzwtvntl4wleq58DPq/tx33ucO1vHBd18VgMECr1UK1WkW5XMb9/T0c8cZ3RJ+wI19oC/icZI9P1hhD6I5ho9rGGN1x+jyIZe1dOoPHLhYLNJtNlMtl3Nzc4OrqCnd3dxiPx4CEKcXjcbMqyHNc8YTRz+oZYzx8yXAcB4PBAI1GA+VyGaVSCfV6HdPp1PzvqpxLfr8f4XAY8XgcjkqE5ZM4Tw8ePHxcUJAh9KLEzc0N7u/v0Ww2jTFmsVggEon8bO4jfb/LHOzBgwcPHjy8C2yjx4ecc5bdSz+P/WxQuq3+/RhWPe5zB50ZfBJiNJvNUK/XcX9/j7u7O+MUQQ9cRqpEIpEH7aKjVD6X9vokjTGuKlkNy0AynU5NnonxeIxgMGg6zy8ZjXkNnvsuneFIgt5+v4+zszOcn5/j4uICt7e3qFarRqEMh8NIpVKIRqMIBoOASiBEgZQGI0/B9PAlw3EcdLtdY7kul8vo9Xrw+/0IBoMIBAJwXRfD4RCz2ewBndAbRnuYefDg4eOC8+d8PsdwOMTV1RUuLi5weXmJm5sbVKtVtNttDIdDjEYjjEajB3Oeo4ys7zoHe/DgwYMHD++KZUYPfAADxtuuzznR/s55Uc+P+n8Nff233etzhzagzGYzdLtdXF5e4uLiAldXV0YP57HBYBCxWAypVMpcg3IIfoUzxsfEJ2mM0QPUFevYeDxGp9NBtVrF/f09SqUSbm9vjSDoikcKG99VBp13UfJ07osff/wRV1dXqNVqGAwGJq8FB0Amk0EikUA4HAaUNc52mfpcBoMHD78W7XbbhDBUKhX0+31jHCVjXUgy7fF4jOFwCFc827QxhsZOj2Y8ePh4cF3XhCaVSiWcnJwYI0y328V0OoXruphOpxgMBuh2u6Z8PedinU/NgwcPHjx4+K1gGzoIW578LWRL+5r6WezvWr+1n+1t77Ds+5cIR/T34XCIWq2GN2/e4ObmBvV6Hf1+3+gRPp8P4XAYsVgM8Xj8gZ7vW1L98VPH6laKDwwOUnrD9Pt91Go13N7e4uzsDD/99BN++OEHvHnzBtfX18ZgwsFMw8hClQ9bBbPZzMSoVSoVNBoNDIdDAEA4HDYK42QyeRAvr4lI43MaDB48/BrQ02U+n2M2m5mM5/SC4QbggYJ3d3eHer2OXq9nSlyTnjx48PBxMZlM0Ol0cH9/j3K5jGazicFgYAymPp/P0HOlUsH19TXu7u7MnEnB89fMwx48ePDgwcOvwWMy5MfUx7RBhrANMb93UO+fSwXjXq9niucMh0MsFguEQiEMh0P0+330+33jnUsdwv3MwpOIT8oYo40aNMS44hkzGo1QrVZxfX2Ni4sLEz50fn6O+/t7tNttDAYDs2LHTmWHLDOY2L+n06kpzVupVNBut03ZXbpccxU/GAwajxgOAEfyYWhQGF1l8+DhcwPHLZUz0gYZKo0yPG4hJbB7vd6DhFzNZtPkY1qVLlY5xoOHzwmPjWmbJlwxcGhD52w2w2QyebDRc5QVkDin2rCvPZvNDI0yR0yv18NisTD5nVzX/dk9tBF22Xt4+H+w2/uX2so+bpVzluHXnOPh/cLuv8c2HruQKiH6fC58cG5ddpzG77XP2VY239O8k+1mb3Zf/BLs/rPPZR9xH59Ny0eQZ7Ofl/s9PATbeCHeEoPBAPV6HfV63Xhrci5c1qZ2X9nb3wNtDND66DIDzN97ry8F1PupIzSbTbRarQeFc8LhMKbTKYbDIXq9HtrtNjqdDkajkZGF8BnSy0cJU7IH5jKDic/nMwlAZ7MZ+v0+3rx5g9PTU2MooctSOp1GOp1GIpGA3+83JTZ1HgrNXBk6wc7iMZ1OB1dXVzg7O8Pt7S3a7baxsJHYE4kE8vk8dnd3cXx8bFyhHMnqHAqFfkZsNqFxn83w3yWcyoOH3xo2fRL2ePb7/ZhMJhgOhxgOh5hMJsYwSqUsEAhgPp8bo6bf78dsNsNwOMR4PIbrukgmk0ilUnCVAIUl/ILPYNMW/7OPt5/fg4ePCY5Ze3za4xlqbiIdEa4YTLgaFAgE0Ov1HqwSDYdDI6TMZjNzPd6T3zkXacVkMBjg9vYWJycnePXqFer1OhyZ4wKBgBF8ee9UKoWdnR1sbW1hbW0NyWTShCn5vsDE3I/xl2X9Zx/LfmZb20KjfV197Ntg3+ex67hLFqs8/P14rE3tMcG+1HPYso1zJOmSC30zCfWlgTUgBSRonFk25vRc+nuCK+EOjuJ3C/G2p3zCvpiJsVr3jcaytuMx+liea/cbjT8QvjCfzzEajTCdThGQ/Hl8Dvaj1lWojH7qsMcesUp7LgPPs69pt3O/30elUsFPP/2EUqlk9s8lkoFzkaNyiuhP1+LJC1mE1+C9H3tHDfsY9ifnw2Xn2ee87fqfEx57F3tM+Hw+zGYz4z1/fn6Oq6srjEYj+Hw+o2MzDQL1b1ZoZZVWiHPFsnt+qvigxhjN4JY1kGtVcBiNRuj1emg0GqZjKpWK6Zh4PI5MJoOtrS0Ui0VkMhmTUJdMbTweG0LgPfhJAZeEXK1WUalUUK/XjbWNzNPv9yORSGB/fx8HBwfY3d1FPp9HIBBAKBQyQipU2IZN8DZsgrMJ34OHj4llNLoMi8UCo9HIGGP6/T5arZYpaw2hH51DYibeblQmSS88jiGBpE/9CUU7y2jmbTzGg4ePDVtA0POinisoSGoBngId5zeG8N7f35vt9vYWFxcX+Omnn3BxcWFirWezGQqFws+uy+tNJV9avV7HDz/8gJOTE9zd3ZmqSZwzadgJhUJYW1vDzs4O9vb28Pz5c+zv75u5WFdX+tJocdX3mU6nD4R7zZt0f2pFQV9b8zktxOuNII9kv/K/hSwkaQWU/y/jnx5+HVYdE+zvZX2u+5vzouM4ZmHREe/rUChkFA/2Ic/1L0ma7X5mZV7fJ+z28ykPXsrtASkyoNt/Wd+8CzRf131Dnsh+DAaDmEvoJ2mVuonmn59L/636jKseRzz2/mzj+/t7nJyc4M2bN7i4uECtVjMFJZrNJhZikGQfaOjr6vvY/JH7lz3HKvi1533uWOW9XfG07ff7qNfrJv9kvV43vHAuhrW5LAKRPkjPWhfXhunPAR/VGGMTgP2drkokqpubGzQaDbMakEqlsLm5+cAYE4lE4BMljsIjGTF/a8GIzK/RaJjSWSzN2+l0DEOMx+MoFArGEFMsFhGLxcx7kGhHo5GJbyODdayy2/od+b/dHh48fGysMh5JQ6Qn0thoNDKCJAUbKoAUNHw+HyKRCJLJJDKZDNbW1h7QMOQZeF3eS/MRPVnq43juKu/gwcPHglbQYc0HpBsoOmNYULvdNu7Y5XIZp6enKJVKRvikEDObzRCJRJBKpZDL5ZDNZn9Gg36/3xhiarUa7u7u8NNPP+H+/v5Bsl5NW9Fo1CyE7O7uYnt7G/v7+8jn84jH4w+Uny8R7/Je7Evdp6vM+5rnUUGjQgFrrPA3r81zdL9xc0QRpNLu4f1g1bbkcbp/bdjjg/06E2+42Wxm9rNP9f31mND9vuozfilgGy3jRbof5uK1u4w+7eN/DXgt0iU9GGkcdUSh1Pd0Hkl78Klj1Wdc9TjC7g+Cc1Kn0zG6YqVSwWAwQK/XQ7/fx3w+N9VvI5EIglIB14bd/lq+5D79+a74ted97lj1vReLhXHAqFQqpmAA+8WVRSMtG1HPoDEmHA6b/l1G958qPqoxRn/yf71/Mpmg1WqZ3BKVSgW9Xg+O4yAajSKXy+H4+Bibm5sPhEBHufW5rmtChzjxcfLjcePxGOVyGdfX18YQQyE0Go0inU6jWCwagXN9fR2JRAIQ4wsFZJ34ly7cPp8PoVDIvKN+P26f04Dx8PvBKmOSx5A5Ush3papYOBxGKBQyTDISiZjs55lMBrlcDsVi0Wy5XA6hUOhnApF+Fv6nj9GCrS14rvIeHjx8KOixyfGqlQAKGTxuIZ5n/X4fnU7HeIpy4eD29hbX19fGo7Pf7xu37Fwuh/X1dWxsbKBQKCAajT6Y/7hCOBwOzXVZQrLX6xlDjKbvSCSCfD6Pzc1NbG9vm2sXi0VEo9EHix98P97vS8Gq78I+1H2uQb7FNrJ/s/0ot2ghlHyPsg4VdS2PQPFmji/bK8PD+8GqbUmjGvuO4PkcK+znhRhhh8OhSWbJMGB9Tz3GOH4Ie078PYHjfFmbaNphrjt7I9617TStwsqXV6vVUK/XjQdxOBw2fc5PTbP4Fff/WFj1OVc9jrD7g2C/jlQkRa1WM7xwNpshHA6jUCgYg8xjxhhiWf9zv/58V/za8z53rPLePKbb7aJer6NaraJer5tIGP5PWqWMwUWHcDiMaDSKWCyGSCTy2c1xH9wYw8lnGZPRQojf78doNEK9Xjfu161WC9PpFOFwGOl0GhsbG/j6669RKBRMvpiZxH1OJJngYrEwMWSaGZPQuCJ4dXWFy8tL49I9mUwQCASQy+WwsbGBnZ0d4xGTSCTgOA56kum53W6blUpWntClsHUNdN7bfv/PZcB4+P1g1THpU8mttft0PB5HIpFALBYzpeBzuRzy+TwKhQI2NzfNtr6+biZLm4GSL5B+AxJfrY/RSp8WPD3a8vCpwbG8vZYJ3pwrZxJq22w2jevu3d0drq+vTfWi+/t7NBoNo6D5fD7EYjGsr68bT87NzU1ks1lzf9KsX7xiWq0WyuUyrq6ucHFxgV6vZ4QcR4w2gUDALE5wYWJjYwP5fB7JZPJBeUk+v/bm4H9fAlblKTYf4yeNK/yuPx+DI4YUtuNCcl+Mx2MTHsrw6k6ng263Cwi/ZEiGZ4j57bBKe7qyssv+Jtines5i/w6HQ1NYolwuo1qtmqSWPFbTsx5H7Gc9J/7ewPfXG5bwKC7a6o3n8xr8vQrI04mZJEWv1WrG4F2tVjEajRCJRLBQnsTsS30v9uGnjlWfcdXjiMfGL/uFHkc0xrBffT4f0uk0Njc3kU6nHzXG2H2/7H78be9fFb/2vM8dq7633+83Hk7VahWNRgPj8fjBvDefz41OP5ciIQvR87nQm0gkfpa/9VOHs1gsHp/93zPI+GzBU/9P+Hw+lEolvH79Gqenp7i+vka324XP5zPu0UdHR/jmm28QiUTgui7G47HxaOGEFwqFsLGx8YDBueKWOJ/PTdKnv/71r3j9+jWmkjR4Op0ikUgYN+ydnR2TI8Z1XZNjptFooNfrYSQVJZjBO51Oo1AoYGdnB//pP/0nwCJ2/f7cR6biwcOnAE2femza41QrB5wAqUQOBgMMBgMMpdQtDTbMC8MYT+6D0J59nbnkOQiFQkin0w/oh/SsBS3SmBaGPHj4FEBez81vuaJr7wZ6w5TLZdTrdTSbTXQ6HbRaLfR6PVPtj3QUj8eRy+WwubmJ4+NjHBwcIJVKIRKJwJEKZ/bcW6vVcH19jfPzc5ycnODy8hLhcNjQleM4RshJp9NYW1vD0dER9vf3TV4Yzq+kN0dVQ+Q70gvnS4Atu5Dv2LxRK8bEY781z7L5lh4vXMmnAabX66HX66Hb7aLb7WKiYuo3NzdNfrt4PP6AZ7qfiXL3uWCV+XIhnti6n2165Dntdhu9Xs/QO932qZxQwdzb20Mul0MikUA4HMZMQtoclSuFv+37/F6geRHbgXwY0t7L+NOyflzWz8uOY9+SZqlrXF9f4/Xr18ZgkE6ncXR0ZHhrLpdDOp1GLBYz19TX/dRhj7FlbYQlxz0G3e42/2Lbuq6LVquFq6srfPfdd/j+++/NYngymcTh4SG++eYbbGxsGIOMxqrPwuN+6fhl4wErnPelYhnN2N8hNHN9fW1y/1xeXqLX6xlPGPLPeDwOV+XNCwQC2N7extHRkZF7GL3yueCDGmNcsURrZsj93KjQDYdDvHnzBj/99BMuLy9Rq9Xg9/uxtrZmVuUODg4Qj8cxn88fuKeNJHTIESHy4OAAGxsbSKVSCIVCWCwW6HQ65pxSqYQffvgBd3d3cCT2zHVdxGIxFAoFFAoF5HI5hMNhI/AMpQpMs9lEv983CuR8PkdIEhuur69jZ2cH/+W//JefEbF+f/vTg4dPAe/CQKeqhLXP5zPKnN64kqeVtpm41k+nU/PJCjATSebVk5K6gUAAyWQS+/v7yGaziMfjJgRQP6umLb3Pg4dPAc4jeRzmkpyOYbKVSsWUlK7X6+hJtSQqWxBadESJZ96l9fV1s1jBBYS55HEKq8TY0+kU3W4XV1dXxtPm9vYWtVoNsVjMPGMwGMTm5iaKxSLW19exvr6O3d1d5HI5Q8euchfWSibf90uD/U7kict447L9vwQuKOmNCt1wOMRUEjf3JCcCDTJ9SdRMfnl4eIgXL15ge3sb2WwW4XDYyCmUxWgE9/D3YZX50hXlUc+BsMrSs79PTk7Q7XbR6XTQbreNIXY+nyMYDCKdTmN9fR1Pnz41ofrpdNqMFZ8kqvX9jo0xC/GSt9t7oZK50hjOfY9hWdsto3ub1h3HwXg8Rr1eN8nVT09P0el0sJBqS8FgEKlUCtvb29jd3cXu7i62trYepDjAkmt/irDbaVkbYclxj4Hn6fHrLjHGVKtVnJ+f4+XLl/jpp5/g8/mQSCRQKBTw4sULvHjxAul0GmEJCeM1Nezfjz2zfZyNx8bDL533peJdeGO1WsXV1RXOz89NImZiId6CsVjMGGcod6ytrWF/fx/Hx8d49uwZcrmcOe9zwAcNUyKWTQquct2dTCaoVCo4Pz/H7e0tms2miavMZrPI5/OmclKtVkOj0UC5XMbt7a2p/tBqtUyoEF2rGc8+nU5RrVZRrVZRKpVQKpVwf39vVhn5LFArGTTc3N3dmbwyXLUcSX1zv99vDDgbGxtYX1/H2toaCoWCeWf73R/77sHDx8aq45FMlJMiRAkhHVG4pKDJFX8m6SqVSri+vjahgjc3N4YmSW+1Ws0kxvZJ+Tu/5K+APKtWAu1nt3978PApgAoC571Op4Pb21szn7ESRLPZNGFIVLS1R1k8Hsf29jZ2dnawvb2N9fV1s4DgWKVRp9MpBoMBms0mSqUSLi4ujOdNX5IdMqQlEokgk8mYcKft7W2sra0hnU4vdeu3aY+/vzT6W/V99HHkh1zN03yx3++bhJM6OTMNckzMzDxB3M+4+larZbxyJ5MJxuMxxuMxEokE8vk8EomEiaOnjMN+oTLq4e/DKmNC0wmUctHtdtFoNFCtVk1Y/tnZmeljemCPx2OjfEDoKxaLIRqNms1Vhl6/hLro/v49wRUjMY1SrhihSW8jlUSXfcL2I9hm79p2pDMAxivm7u4Od3d3qNVqmEkS5sVigcFgYBaQQ6GQCbVgHpvPCas+76rHEY+NX93GzWYTlUoFjUbDGLiKxaIJqdXFIfCI/vXYffB3jAXi1573uWPV9+ZCArf5fI6xVERmP3MeheorVxaNotGoKQiSTCatq3/a+KDGGDacHuxkfLoDxuOxsSDXajUMBgM4jmPcpLU75vX1tZnAyuWyOV4bSDKZDPL5PGKxGPx+PyaTiVHyKNi0Wi3zPFxFgCrBSyGJHjVk4lMJawqHw8YKu7e3h52dHRNPr6suvQ2aSXjw8LHxS+MVil5sYU/TTafTMTkv+FmtVo1gQiOqNrw0m80H9MbVYFcSdUEqutAV0afCJGz+ghXfxYOHDwmbXgaDARqNBq6urozBn16YnM8gq7lBKd9Ig0kul8PR0ZHxAk2n0yY0ifeC0MlIqjFVq1Xc3Nzg6urKGGKm0yn8qrx8MplEsVjE06dPsbu7i0KhgGQyacJ1+Uy2EZRzOt/xS6O/Vd9nIgkkJyqpbk9Cihh+0m63UZHqV7VaDbVazSjkNLrwOxefaKBjKAuVOfJifmazWRSLxQe5Etgf7DNP7ng/WHVM8DgaYkj39/f3KJVKZi68lzyJHUnYS1rTNO04DhKJBBKJBOLxOOLxOCD056gE3fb8/HsCjdc+8RBiXhEmOx8Oh5hMJsYbENaKPX5BQX8M5IEA0G63UZJk63d3d+hIpVbKLHPxVAsGg4jFYkilUj/j4Z8LVn3eVY8jHusD9hUXzO/v71Gr1RAMBo0xemtrC9ls1hjkNA0R9vWdJakjlp33Lvi1533uWPW9aTj1q5QiTHHADTKvUub3+/3GmEqdIJvNIp1Or3zfTwEf1BiDJQOe0JawwWCAi4sL3NzcGLfMUChk4taDwSDm8zk6nQ4uLy/RaDSMgNLv902HkRgLhQLW1tYQjUbhOA4Gg4EReO/v71Gv1zEcDo1LoGaSM8lZwRUnLWDOZQUxFouZeM+dnR08efIEOzs7RgjSE6F+d5vQPaHIw4eEnpSW4W3/cezSeKoxn8/RbreN50u5XMb9/T0uLy9RkvK7NLxw4tSKBYUjewWQ3gCxWAyBQACJRMIk/KWwRfDZycA92vLwKYLjVHurXF5emiTwC5XrQAsf3BwJxd3f38fTp09N/gjOZVQGSCMLKR1Zr9dRKpVwc3ODewmF0iuzsVgMyWTSCLLPnz/H+vo6UqkU/JIon8o/r69pbi6ecnzHt/GSzxGrvI/rukaR7na7aLVaRlnQHi/0DKT3S6VSMflB6vU6Go2GMdoMJP/WcDg0i07klZDnYl8EAgGsra1hY2MDmUzGhHX6xABDGcfD+8GyMWHLeBCanEtI4mAwQLvdfmCIoUcc+5ge23qeYx87jmNWgVOpFJLJpOEXjvJ60jLo7w2kCYgS1+12USqVTCJkGjMLhcKDc/ipN6wgNxHsB9d1Ua/XcXNzg5ubG1QqFfT7ffgljxblGp8ok+l0GtlsFtls1uTD/JzkGN02y8Y/sUobajw2fnmPriS5Jn/1S6QCDdKxWMwYvWik1Ndbdn37+fW4+DX4ted9SmCbvMu7rHrsYrEwBUC4cGDLQZDqj6Qfn4QrOVJlOZlMIpfLIZvNLu3Td4Huf31/vMM7rYoPmjNGE8IyplKtVlGTTOP/9m//hvF4/GC1JyilcilEOI6DZrNphFJHXP4CgQCy2ayJbd/b2zOhQt1uF+VyGa9evTJeNb1eDz6fD5FIxDwj70OXYlre9GQYDodxdHSEXC6HTCaDbDZrctM4MgEEZAXxSwTfyx6wkNVbPVg5kPWAZhs9NqhdtcIHJfDbY8dVlSh4Dt3zuW8hsbncN5lMPksX0Mdgv8eyPoEc54rr7ng8RigUMpZoCI2SlnT78TeP0QpBuVw2yiSVjkqlYlbzSQdTCbHQG9SqOmmLNE+hlQrETKoRhMNhbG9v4/nz53jx4gU2NzeRSCSMp9pisUBCKp7xOvaYeQyrHufBw6+FplXSgCsJ6BuNBv7t3/4Nr1+/Nsk6o9EoQqEQxlI1ZzweIxKJYGdnx8xxjIdnKAp5HD1dGHbU6XTw8uVLnJycmPLVXGwgrSYSCayvr2NzcxM7OzvY39/H+vq6ed65eJxSgSB/pTuxFpKmkkvK5/P9LP/B54zH+K3Nd+tSYZGeDg2pDrFQ4Uqj0cjwX80beS3OeY7jPDCAcT//0/ya892zZ8/wzTffmCS+oVDogeGGstTvDY/1n/3dhp4HHwP7j3OP7idurVbLlKS/urpCpVIx44FjggmXOVZofAsEAohJdcK1tTX86U9/wvr6unHP194UrkoQ/rb3+tzANg4EAj/rD/4HJRvOJWdWo9HA7e0tvvvuO5TLZQB4kFeEqQUymYy5lm632WxmVu8Zpqnv5xPFcCJ5aubzOZrNJr799lucnp6iUqlgMBgYmYty2HA4xMHBAZ4+fYrDw0Nsb28jl8shIPm+OJbsxLO/B2i+Rl41lbLuNKowee/p6SnOz89xeXmJbDaLw8NDPH/+HE+fPn1QqdMeMx8K9n3fxnfsYz8UyLOgnkHPKzOVk4y8RbfpY+3L93vsnV3R3dhHrugp9XrdGKlvb29RqVQA5VlIOScWi2FjYwMHBwf46quv8OzZMyMLcePzEnNJhq/HkuYZpE/aAFyxQyQSCcN72F6aH8yk/Pa74IMaY6Aafy5KHyenwWBgSnXe3Nzg/Pz8QSOwsfTEQgYbsOLn6aVSLBZN2dxEIoF+v49yuWwSA3U6HePtQqGk3+9jJHXNORj4DIFAAOl02ljeNjY2sLu7i2QyiUgkgkgkgmw2+6DDOai+RLyNuLTAqImT/3PfTGX+9yuj2rLjSaQaJBxOmpwISRScxMJSgz6g3Ottwvycsaxdln3ncZqhcqxT0Ge/UPgbS/4BMj7GW9MgwxC/uZSZG0sVJTIpKm7aa419pfvXr0pzUgCZTqdGkVwsFhgOh4hEItjc3MSzZ8/w/PlzbG1tIZPJmPNc1zVCC8fXqozRbkcPHt439BjjeHVE0e50Ovj+++9xenqKm5sbs9jAYyGliguFgglJ2tzcxP7+vuGbFFgdMUZym81mOD09xcXFhUnUS7qmcMu8bEdHRygWiygWi9jY2EA2mzV8k89MhYQKyMIyrjoy95EPfEm0Zb+L5mvEYrEwXoBMjlyv1zETY4gr+SsmEiLhKMXOtRYtuHE+4/nsV+6jcT0ajSKTyRhlhGVdA4GAET71WPm94bH+s7+/bdzq49gPWLJo5IocOZdFjLu7O7RaLVSrVRN61pUy5Oz32WxmvCe4+cSgyXD9XC6HtbU1HB4eIpvNGs9x0iPHhU8WOt72Lp8bSCPkNXq/lisg/cHwaBpG37x5g3q9joXIhul0Gru7u4af0gtQL9g5ws/maoEJYhjgfaj8TSQZc7fbxd3dHf7jP/4DpVIJnU4HUzGQk979fj/i8TgODg5wfHyMnZ0dFAoFxFQ1Jc0Lfm9gu7O/scQY02g0TGJk5h3M5/Mmgfnx8bFZoMNHXHSz++8xvoMlx34ocC4hv+Bz8Pn0p/3MhE1/j+la9vmcmzTvpI7RaDRMfrTr62uMpIIx9ZFwOIy1tTXs7e3hxYsXePr06c90Pv0uC9EVNf2Sj5N+J+K9OFGe+n6/3yRLp7cpebS+9mPv/Bg+uDEG0uBkSHzgWq2Gs7MzY5CpVCoYq2RlnIj0RDORuLGwJDBMJpPGLTeXyyGXyyGVSpk42lqthsvLS7x58wa1Wg2BQACRSMSEPcznc5PXgtefiSV8IeVDt7a2jJFnd3cXm5ubD1x/mUDNHtBfImzi1N+1kuFT1mi7LTh56v95jGMZsvib7bsQ5ZvGMhJSo9HAXNyAOX44HuLxuCHO36NnDNuPfQNx3e33+2i1WmZ1eypVjbQ7PA0zXJ0nI5uI8Yv9sxCLNeS5SOej0QiOGg/sPz4fj+N+8omwlMB2RGGNRqMoFos4ODjAkydPTCUJPT5ofOHYYJ4ZDx4+Nkh3rpVvaSHGxpOTE1xfX5vEupyLHDGWpFIp7O/vG4MJPTMnypjKBYq5VODpdrtot9v429/+hmq1akJ6OZcuJF8Bc8T88Y9/RD6fRyqVMooehK/zmSlkUXDip+ZF+l2/JDzGb/V7LsQYw8oQ9MSdy0IA+3yijDHkn+RjsGQIfnfEMEM+zGsmk0nEYjGzWLS1tYWDgwPkcjnEVAUKfa0vrW9WwWP9Z3/XbW8fo/uI/QblFczzBpInaDAYoNVq4eXLl+h0Ouh0OiYn1Ey8x7g5joPhcGgWGSmnptNpQ5OZTAaZTMb0bSgUMt5nU/FI0/yACy9fAnTbLwP/Z58wRIi6RblcNikQAoGAMUIXi0VsbW2ZZOVcAde8zVWyE2Ud8kHqM+PxGK1WC+VyGRcXF/j++++NIUbDcRwkk0lTIXZ/fx+FQgGpVMoYGjTe9s5fKhzhk67ybJiJ4TMgobf1eh2np6c4OTkxoWCFQgFPnjzB8+fP8eTJkwdeRR+LDlblO1hy7IfCY89hP49Ng5oX6u+OWmi3ofe5YsTkfkd0hYV43Q4GA/T7ffT7fVxcXKAnFQRZaQ4A0uk0Njc3cXR0hMPDwwdz3lS85iF0OxOvF+qJ1DkmKgH+aDTCUNImUO4JBoPGaFsoFIxHst0e7zrGPrgxhg2uGdhsNsPl5eUDQup2u6aRIBMcM2FTSRtLvfF4PI5MJmOyZu/u7iKVShmr2Hw+N3Gi5+fnOD09xWQyMd4z+XwewWAQY0kcXCqV0O120ev14CqBORQK4fDw0CTopQUdyqigmYUrzIP7vjRognvbPghxUcggSKj2Pm5aKOVvKgNTVYliKMldSUg3NzeGoCjkbG9vm0ogyWQSPglLW8YgPkfY77GsT7DESDaZTEwyz9vbW7NCN5OQoGXGl5kyUC4sN2xnyWo4/5uI6y7p3pUVQDJIn6w2kSmy/xOJxAMLNz3QNjc3TeWYfD5vmJ8eUzTGRKTq0i/BHrcePLxvcGxy/Lti2HDEI415lS4uLnB1dWUEkICUdl9fX8ezZ89MfpiYJKbXSh0Vs8lkYlbgy+Uy/v3f/92s9FBRI0+IRqPIZrPY2trCP/3TPyEtFZMYJsXnJr06IiRD5mcqD5pf2zz/S4H9TuQbNt+tSrnVk5MTY1xbiOGLAupsNjNKNJaERuh7kX/yPHo2QYoIUDjU5ceLxaLJtQf1jHoc/t7wWP/Z3wnHMlrpMc7/9fxD2p5Op6jVaiY/SaPRwOvXrw0Ncp7k6qpPFHouFNJQEJOkrlxgZH4Y0j6NLXwvbYzhNb80WZTtb8sa+r+phE+T/kqlElqtFvr9PsbjMeYq51VA0hvQ0/Dp06coFosmZQEs2YJ9PFNJR32i+PX7fdzd3eH8/NzoHOSHfglPcsS4XiwW8ezZM2xtbRkPNi4e6fH1e4XzFmMM27JWq+Gnn37CyckJyuUyWq0WNjY2TJnjw8NDhMNhQ8McJx8adj/aPEXDPvZjwH4mDU0LUDxRb4Rub32Off5Y5Z90LG/5mfJYub+/NwtM9HgbS/h2NpvF9vY2Njc3EQwGDZ1S5iHPoA2BuiL1RX7X/1EfcRwHwWAQW1tb2N/fx97eHjY3N02uLtLrr5F7PrgxZrFYYDQawRUBdDabodPp4NWrV7i4uEC1WkW328VcVn2mUkHFr4wxVMbH4zGy2SxSUr6MsfNbW1tGcZuLt0tZEuWVJZloPB7H3t4ednd3sb6+jlAohNFoZBgnE/uyUclEDw4OcHh4aCpWrK+vm/egIMz3JIP/WIT/W4PEtoyhUGAkIegJk8x1IWEyegWA7agJhco5iWIilSkYJsPQMhpnmMOE5wYCARwdHeH4+Bh7e3smmZdWMD532O+xrE8gQhrb3e/3o9/vm+S6P/30E2q1mmEoUO7XVNj0f4TuW0LTjE+FInKfX9x59dggvcyUITMWixkDGumfnnDpdNrkako/kjmdzHfVMCXdVh48/BbgOOX4J4+ioNntdtFsNnF9fY3Ly0s0m020Wi2EQiEjaDx9+tS4snOuG4/Hhm6o7DcaDVMx6e7uDi9fvgSU8cQvpa4dSQScy+Wws7ODf/iHfzA5KxwRQMirSb8AMBqNDH2RxhYiOHE+1DzgS4HNax6bCweDAU5PT/H69Wucnp7i7u4Oc/HUo2xAnmqfq2HfT8+hfql+lU6nsbe3Z1b4aYShNyivQSMcN/tevwfY7flY23P+4Py07DxXeYnxnOFwaOiYxSIaUp6aixo+8aROJpNmgYi0EgwGsbOzY+hUe39HJMEl+5T9yXNdkXsXosAGVW6nLw3kn1qugPCguXgFXl1d4c2bN7i5uUG9Xjceuq614DcajRCNRk0hjj/+8Y84ODhAPB6HX+QVjgNI31MuIi27ElbRbDZxenr64L7aqD0cDk0o4e7uLp4/f268nfTC00R5Cugx9nuC5nXUFebKiDYej1GpVPDy5Uu8fv0atVoNw+EQOzs7ePr0qVm4CIgXjbskd8iHwjL+sew7lhz7oaDvSzoijfAZyW9IF1gyB9rvswzL3pF9xP85R1Iv5AIrvflrtZpZSHbFaSItSbB5vNYHOZZmUvGVuiWN4/oePJ5wVGL8g4ODBxUsyVMg8tUq76/xQY0x7Fh2wGg0Qr1ex/X1Nb799lsTww4AkUjkQaNAXpAMj9cKhUJIpVIoFArY3t7G8fExtre3EQ6HMZfKTKxQQbdEx3HMihFXGvwilL558wYvX740cfUUMknI+XweGxsbxq1we3sbwWDwAbOwB9i7dsrngmVEpwfjROLtdGlG/s/20pMiDS20So4kNIYT7tyK5+Nx2jPGlRVejo+FGMX29/fx7NkzU+kqlUp9Uf3ytjGnv7ONqFQNh0Pc39/j4uICP/74I25vbw0NUsDgtV0rR4GrBFH2J/cHJEyCCpxPPGPY13pz1KoWJ0nSNRNwZ7NZI6RQ0QxJjijt4aSf6dfgSxoTHj59kJ5Ij+SHg8EAlUoFpVIJzWYT3W7XrPow/CQUCpnxTrohjY7FTZ65SsrlsqnKE5TQB02XkDk3nU6jUChgY2PjgUARlpxbsVjMKBWcjwOyik/vM/LymYr/puD2peAxfmvzj8ViYTxjmAdoJAl7dZvoudG+tgbnOkcMZPQKXltbMyv6aclrRxdtykx6g9yH/fN7g93Gut/0d85nziOu9mzPqSwesVIZN3rF9Ho9jEYjAMDa2hocKUlNeZIeGJzbgpIkUveRzSNIZ/yfG58LSpnR+74kUD9g2/BduWBXrVbxf/7P/zHeEiNZCKY8z/6FhJP5JIE5QzWfP3/+ICky2123OftoLqHxd3d3KJfLJn9Jq9XCVBKMBtQi8fb2Ng4ODrC/v4+dnZ0Hsg37mXIv+QNTLvye4FiGZ7YL/xsMBiiVSvjhhx/w5s0btFotuK6Lvb09PHv2DE+fPsXOzo45z/WMMW+Fvi/5m/1sUIZqgnSgf+MtOWP0tXn9gDK2caMeyTAleuqPRiMMpGgI825RxwhIPjvSGg05+nld4duUvzRP0HzB5q2QSs1ra2vY3d01C/00qLMdlrXZ2/BBjTFsdMdxMFKZzU9PT/Hq1SsTw/424cBRKxSOuOrGJLO8ntji8bhZPQCA29tbTKdThKRsZzqdRiwWM8ew087OzvDy5Uucnp7i6urKGGN8UhmC1uz9/X388Y9/xP7+/gNGzUHH9/R9oSsSeEQA5ffJZIJer4dms4lKpYJ6vW4sj/pYPdGQaGhwoYBDxusTpZ/naCONHlvsDzILx3Gwvb2NJ0+e4OjoCDs7O8hkMl9Uv9iMe1mf8Dt/+2RVgQbRV69e4fz83KzeucLUqLQ5VuUA3f9sZ0csx6QtrfS5sno/lDw0E8mDoZkdr0mPmBcvXuDw8BCpVAoRqRRDGiOT1/xCjwO7TVbBlzQmPHya0ML8QilUtjLBXC8UQMKSLyYrJU99KuEc+eJ4PDYrRqVSySSNbbfbGA6HmC9RXHj/YDBoVuqDkk+LtESjZywWQywWQyQSQTAYRCqVQiKRQDgcRiKRMMoEaY90+Gvp8VOF/S6aF2osFgvc3t7i8vIS5+fnJikzeSj5KvktLAUa1rVnKldCIpFANpvF2tqaqX61KZXlwiq0goKlfjZ9L8pIvyc81n/2d4Lj110SLj2fz0156pYk5qUBlYtJdh+QdgqFgsk/mMlkHsik7L9ltMRr6XlXv5N+B33Olwa2rd8Kk2w2m2i32yiVSvg//+f/oN1um75gO1EedWXxZi6J/mmM4eIdQ0F5fcot1Av4HKPRCJ1OxySQZcqF4XCIheScpDwVjUYfLA5ms1nzTpSFlo236O+0mhJlec5bWgbt9Xq4ubnBjz/+iNPTU3Q6Hfj9frMAe3x8jK2tLUAZvZcZBz4E3oXv2Md+KPA5folvsE809DPzuyOyjeZZ3HgN0iENJjSeTKdTDIdD9Ho9kzqE+gmPocwzVjlmHaVXuKJbTiXKhrQF9Q7kH/r5IG3BduA16egRj8dNapTnz59jfX3d6CiPtdnb4P+Xf/mX/2nv/K0xnU7RaDRQKpUM06rVakbQcEXo4AqeNpiw0yBMi6t6C3Ev6vf7aLfb6PV6mEpemkQiAQCIx+PIZrPGGyYcDhvC5nV7vR46nY7pdCqSfG4SczgcRiaTQTKZfCDMOCoxKX9/LKL6mBiPx+h0OqjX67i9vTV9zNXZbreLTqeDVquFVqtlktlxY56EgVTtmYiLGS2ZmhGQkLThjATnE4Wdxjr2WVhKX38pWPVdOB71mJ+LQkcrM9uYTEozL83oKDCOx2P4JE8FFYStrS1sbGxgfX0dxWIRhULBKGsQWppOp6bftMGGigYrRWxubiIuWcvZx3wu0qZ+Pw8ePmVwbuDY5XxGunJFaPH7/cYbhWF5qVQKMUmmOxP3WnoftlotE5LLCj5MVDmUfDKcqyjwcD7Tz0berXkyhSG9nwrOSCoaUJDiu5E/aP7xpWDV93HFAK039oVW0qH6n23H72w/RxYaEomECZFmIkHmvmMywYB46GqZidfntXjfj6WYfEys2n9sMwhtaOWg3W6j0Wig2Wzi9vYW5+fnuL29NdWSxuOxoWHOXa7rot1uG7pjX0Sj0Qeb9jzjpudqjh09ZngtPrd+R97rS4RrVVUaiUeM5oOkOYJ8TitvkUgEqVQK+XwehULBJNKlEYX9MVWVfHxixBmNRiZ/xc3NjclNQwM4hM4oI21ICd7NzU1jXGefsU/1byil9vcGRxkf2S56zhqNRmg2m7i/v0ej0cBkMkEgEEAul0OhUEA+nzc6IM/jWPnQeBcafJdj3yc4h0PxET4LdVsaQqgr8JOL6BMVuTBWiXCp11GWaLfbaLfbRn4pl8uoVquoVqvGq7BSqaBSqfys+lyv1zMpKqgf6nFBkG/aOrn9bjxW80o99shvw+GwmVN9MlcnEgmTl+3X0ugHNca4YvnqdDomjp0lNieS3JNMNRQKmXwQKUnG66ocE2yguYQdLaQqQbvdNkwQaoWdQgwbLSSxm2xkduLECoHhJEqmy2eLRqOIx+NISfk7zTz1Nbn/9wYaxprNplmhbbVa6PV6xrii25mWTm4kHi1Ism0JRxkFtJJOoiRTCQQCZoLNZrOGaGxC/Jyx6nvwOCpjpDeOb3qnOSKcaMFQt79fDGA+KQcfCoWQlGpmzGlxcHBgqhJsbGwYmptKUj3SfEBWi8gf6OlWKBRweHiIfD5v/l+IgUjTLHkB34/PqcfAqli1HT14+LWYKU8YTVPkc67McxTeOQdRwZ6pVVhWEri/v8f9/T1ub29NEvpqtYp+v4+JeF04kihUC1NzqcJDAWIuob0UqngchamBVIbp9/vmkwaa8XhseEdAlb3W7/ilYFU+4SpBkP3GlT0arxwJWaEiTr4bkdCviOQI4QIQPWEY3sDqkYlEwnhMsc0pPEMpc1omcT/iKvHHxKr9x+MWkuuw2+0ao2elUsHt7a0pl3x3d2dyHrJPqQxyEWIs4YOkcSo0ARXqR+Vfg3NjT6oyjSRHHvtP05hjKRma9lZ9788B+l30mKdx7EaqJzFMSMsCpEfyxWAwiEwmYxJf7+7uYm1tDbFYzMiV3KgHsI9ovG42m6YQgvaIYV/Qs7FYLOLo6Mh4Q5Fm+U667wjKaPb+3wPYr+wrthUxlBw99EgjPeVyOeTzecMb4RljVgLbmRvbnsaWocrVyQVzygNctKGBRRtcyDdrtZrhn/Z2dXVlZJn7+3tUq1XUpZw1F/F7vd4Dw4+mbUfmOOombEN7/OiN/+t50v7U5wclLQkUXSYSCePgQb7wrv33QcOUJhK6UiqV8OOPP+Ly8tLkiWGSrIW48z19+tRYNH0+H4bDIS4vL3F7e4tOp2METAqsPpXFfDqdmsRYX331Fb755hskpESdaxlfCA68Xq+HWq2Gm5sbXF5ePjAa9Pt9+CWpKN3F//CHP6BQKBgFX3cur2vf60sB30u/n95Xq9VMLpI3b95gMBhgIcke6ebOQa7BPlqIwYDHcON/PI9ER0ILhULmf/bXixcvcHx8jJ2dHeRyOYQknvBLgU34y/oE6jgavEg78/kcnU4HL1++NJnJo9EoZspjhkx2MBg8YGqLxQKpVMrkLWAcJQ2VxM3NDa6vr02S7EqlAr/ExztipOn3+0ZQ2dnZwZ///GekUinMlUt41MoJBDG4BZRrN8cOhSFbuH0MH2uS9vD7wVh5kkG5yroy2S9UaXjSpl5h0gYQGkl6EhLaES+YqXiF0oBDvhmNRo03y0Tc7ZkUFGJE73a7Zr4kv6DQM1cJKwOBACbimRqNRg3ts5IBF0FIUzaP+pxhvwt5rD2nUHZpt9uoVComUXq9XsdA8qgFAgF8/fXXiEajhqdyTuM1uUUiESSTSeRyOWxvbyOdThv+SV7Hc8kDqTxyPBCcRz1jzOPzJeeZyWSCbreLRqOBRqPxIB/MYDDATLwuRqMRgsGgyWHIXCC3t7e4vr7G/f29EfrZX5FIBHt7e3jx4gX29vaMPDlSiWZns5nxvKCS7xevm52dHcRUfiBNtxr22PzcwXecq4TU8/kcV1dXJmSlXC6b/uM5NKiQLiiP7u7u4vDwEAcHB9ja2kIkEsFIEpTzuFAohKnyjAGAZrOJWq2G+/t7lMtlnJ+fo1KpmPMgfCCVSmFrawuHh4d48eIFMpmMoUFej7RLfg2VK9P3Bac8eBvYr3O1cKB5YqPRwOXlJV6+fInLy0sMBgNEIhEcHh7i+PgYR0dHpuot56+PxfNsunyM72DJsR8KruVFN1VVa7kYM5JFheFwaPjTss0Vh4RQKISZGJ+1Tk2jspbV2deQNqAxVNMFNx7LZ+Y8p+llIfKUfh4ew//1+dQjyFOgQn15T14jLInznzx5ghcvXqBYLBqbxbuOsfdqjOGD68bxi4FlKh4x1WoVp6enOD09RbPZNBNZQDIUF4tFbEqdcK70uJLQ8OLiwlQkqFar6HQ6yOfzP+ugaDSKYrGInZ0dU288lUrBJy6GM7UyaStwE0n8NR6PjeI5Vu6MRFSyrkdkFYseBIQeJHr/5w5NpLo99HdIW/Z6Pdzf3+Pk5ATfffedsVpzoOp+0GOHAqQmHEeVt+O9SDz2fxFJ/uxIhZBisYg///nPphRsNBo19/1YWLUd9XHvE2wrPfnPZjN0u10MlUtvOBxGUxJgn52d4erqCqPRCD7luj2bzbCzs4ODgwPs7e1he3sb+Xz+Qb86jmPyJjA5Nq/D/l4sFgiHw2bFd2trC8fHx0in0/CpfEHawEPadxUz5ftQeVyo1Sme44jwQ4Mg6ZVjgsfzevpeC5VIzoOHd8XCyhcCEXjGEnJEJZ3CylgSgw4kZJPGFwpFExXCOV/iBcEx67ouisUihpIAb6bKYDsqvJYCk6YpXtOmC9IB+e7GxgZ2dnZMpcJMJvNR+exvBb4zQX5q8++A8vjr9Xq4vb3Fq1ev0Gq1MJeqSqyCFI1GjcJHmYF8mXJLWHL3hKW6jl8UE/Yv50s9L0LNI/xkXy9UhRJCvwev4/tMFEHKDVDyAcfvQuUioFxJ2tBy4Gw2M670PpEZ25J/pF6vo6vyOA0GA0zFUOm6rvFa2tjYwJpUAby7u8PFxQVqtZrxVPOLQWAhi1PHx8f4h3/4B5OsHqoiJen/9vYWZ2dnuLm5QbvdRjAYxLNnz3BwcGBCapLJpGkHfQ3NF4jHvmOJHPKhwHEMi9/wN8G+4/7FYoHhcIhGo4GXL18ag0iv1zOKIM9zJXTQ5/Mhk8mgWCwaWYNeFFysY9stlAeb5t+LxcIsOp6dnZkFZkheIEcSzGYyGTx//hxPnz7F/v4+UqqABGnW7gO2BY9zRU7RyilU7htIf2sZRn/yGlDXXjYGlh3P9nYsmchRXgME/9P7HvvuqD7W5+lN7ye/47muGGO+//57XF5emoT34XDYVFI6OjpCLpcz7WKfz/71KW8n8oq5ValrWduwXTT4n35XQvMkKKO4bl/+1v3pWga6Ze38NvDcX4IeG5SPu90u7u/vcX19jaurK/T7ffM8E0mwSxpjX7L/uE8bXXh9uz3ZH3qMTSYThMQ7f7FYoNPpIBKJmDZyRcfmMa7MtyMxpELanHNmWBKl+8TAyntxG0sV54UqRc/5YDQaIRwOY2hF3nz99dcmb0wymfzZWOH76U+Cx70XY4zdsGwA7ptKWAKrtpyfn+Pu7s4o5iGJo2QCOuaaiEajZiCOx2Pc3NyYigTlchnNZtMwPL8YViJScaJYLJqqE0ys4yirGwe+owiSGwfZWJVWhghWZIQBccN2lEu2Fmp4D1dKC34pWHWALRYLDAYD1Ot1nJ2dmWpZI1ntCQQCPxOcHHHB18YYCklkXppw9L00YfrF2yIej5sVxK+++sqsOAUka7YthH5IrNqO9nF/L3Q7QU0MPhG2J+L6x/aPRCJoNBo4OzvD69evcX5+jsFgYGjElQz/dpm3cDgMKKv6bDbDDz/8YErsVqvVB+OA9BKNRk2+GYY8JaSqxFwURUcpiAtlHYdqr4WyhusJwBWFJRgMIp1OI51OG9dCPUFyjOmxxvMXnjHGw98JjiUIjfR6PbRaLTQaDbTbbSzEmN3pdDCT8BYqfTPJFaOFBg177Op7xeNxjCUpul/yqXGhAsq42rOS5M2VgKSvy/l5sVgYY8z+/j729/ext7dnDKlfGvj+hG5j+5PzzFiSpV9dXaHX68GVyn/pdBpra2tGhuDmqNxe5HE+URgoi/AY8k/Nz9nu+tl4vJ5nHVW6XPNV13Lr1u/7qYLvyudne/E/tpXex/2kq8FgYNzs6RZPj+lut2voTt+HcwK9OjmvLBYLI7N2Oh0zH1KODEvi6+PjYzx//hybm5umKgeEHnlvLmTc39+j3+8jHA7j2bNnePHiBTY3N00VLVe53HOesnkELNnCnss+Vl/r+/KZlj2LbnOoUJW7uzv8+OOPJlfWRPKHUDHzib4RDodNWDX1BCa/piGUPJJjxhVZZypei64YdejtS9mm0+kAUhEyKCENu7u7ePHiBY6OjrC5uYmQeG9rXmqDY1P/dpQBXNMyr8XxzvN4nIYet/Z/NngdPou+PxQf1MdpvrPsOgSf7bFn5KduH58yVPCcWq2G7777Dufn5yiVSmi324jH43jx4gWeP3+Ow8NDZDIZcx9X6IM8wOatUHLlY89ot8svzXH2e+vjeQ2OT0fxdK37sM/wGxtjeD1HOVPUajVcX1/j7OwMFxcX6Pf75tipLCRBGRa1XMD2Zb+xT9nefGdXFh7YFz6VjykajSIsOV4Hg4ExsFIeCogOzvtSZlqInheLxZDL5Uwy7rAkuOc5bGO/5MDkYhX36bCsiRRXmM/niEQiyOVyxui3trZmdEwbesxosB/fmzEG0hEcWHqgdCVZD110S6USOp0OwhJDyURLTPaZzWYRi8UMU4QQTLVaxfX1NUqlEiqVClqtlumYiFR6YKLWXC6HbDaLTCaDRCJhmKmrkqDNRbnjYOI++/k5aGKxmEn+ykHKQcUBRfBe+MJCH/Q74i0DzHVdjCSx1uXlJb799lsjRLhiZCHTYTs6onDrfggolzGIYEuCY1/yWMjzBQIBk3Nkc3MTW1tb2NvbM0TC+ywjmA+FVdvRPu7vhWaMjjBbzYzY/mTcwWDQGNTevHljqi2Rybqui0KhgP39fRwdHWFvbw/FYhE+8XgZSDzpaDTCv//7v+Pu7g71et3Qf0jlsJhL2NTa2prJFZXL5YwVnMyXkxbUGCDj5L6FWOzJrPVE4JfQNQphuVzO0LUeR8vwJdK0hw8PjtG55Gmq1Wool8solUqo1WpYSMhtX3I4kdZ4nh7PUHxRz1v8n3OUIwsjU4mpj8fjpgoPBR3eq9VqmdWgTqeDwWAAWILkXBQ+3i+RSJhyrcwXFVelWB+jqc8RzluMMfwNWdXTbTscDlGv1zEej+FIHomYlAsnHyZf1mBfLiy+zf+48Xy29UKt8PIaM4m31/w0Ho+bVUMqcwu1quj/lRUiPjTYL3xfKA8FgjTBdyQNMgyXeZh6UqaaBhjOY6RFnxj12W/RaBTffPMNdnd34ZPwtGazidevX5tw/IXMSxHJYZjL5UwOERpUmKeEK86sOnp2dmZk57lU8zg6OsKf//xnY8SJxWLm/V2Z63xKLtfQbWLTpn3sh8Jjz6F5Hd/FFflwNpsZQ8zl5SVev36NdruNifLu6/V6mCtPNC7SsrhALpdDPB5HRFVDmUneLo6RhSwW0RNlNpuh1Wrhp59+MiFo9KafSuXWqFSnoyFme3vbeAtyDPFexNv6Rcsduh0gxzrKs4L7bFnFteYG0gL/W/ZJOL+RMYa/l8F+R/YHz72/v8cPP/yAk5MT3N3dod/vI5PJGGPM/v4+0um0aRO+f1gWDBfCO6EM59yndQQ+h34ewn52+7cNu414Tb3ftYxl+hjdbvazPAa+4y/B7pPZbIZSqWQiU+gZwzE0t4xZnJv4vJxn7Os7KjSP703nB77jTIwqyWTS8DfKLyMpbT1UVSJ5vYUsxi5kkSifz2N3dxcbGxtISLXBgOVE4Qo/mYtXMs93RG7iHMDcpzMxAiWTSROenU6nzVxujwHd1xqmrd+XMYaNy0HM37PZDHd3d6jVajg9PcXr16/RkdJjWlne3Nw0SlFE4tfte3BlqV6vm/j4wWBgBJpkMol8Pv/AmENm12w2MVGVl8ZS1YCupgzNGEhyNL/fj4gkUwuLa3BKShEmk0nT4BSI3CUMjpvd+J8zVh1gPql01e12cXd3h++++w63t7emH0g4bDcS38KypGrCHktCZf4mwZGIguLinUqlsL6+ju3tbWxvb2N9fR3pdNo85zJG+6Gxajvaxz0G+7zH4FoTCoU1fR9XCbOO46BareLi4gInJye4uLgwgg2PITNieFGhUEAwGDQCbk9CLL7//nvUajV0JNkn3fJnsiI5mUzg8/kMfYXDYUNnHBdULPSzc79uAzLUmRhiuEJFpp1IJLC/v29KS9JryrUMsdwI0rQHD78WnCc4HlutFm5vb43XaLlc/hk/4Dl6PHIs6rmKvJFCDBUKej7U63UsFgvEYjHk83kcHR3hyZMniKuk5gDMPFupVIwB1RVBkHPqzIoLz2Qyxih7cHCA7e1thKUMJOn1S4XdX/w+Go2MwKcFTvJWv3jZso0ILT9ofqPb0uZDruJdc1loosBK4ZL7JhK3T2N1Pp831QbjKvzJ+cw8Y/T7s604ru32mksukcFgYKp11Go11Gq1ByH0nOfYfnrMRyT3XTQaRS6Xwz//8z9ja2sL3W4XpVIJl5eXePPmjVlJ9snKbjKZNMliteEypCoGdrtd1Go13Epp9KurK7RaLUzEsyaXy+Hp06f45ptvsLGxYWRe10pGqWVUe4wt+453kCfeN+zngCWzkQ/yWL/fb2TM8/NznJyc4PLyElMVDu/z+dDpdOCKwXhzcxNfffXVg/CuWCyGhZJDXeFvjuV5FolEjLzR7/dxd3eHv/3tb8Yjg+NjPB4jEAiYPDH/+I//iO3tbWSzWYTFY0rTFZVVvj/H69tkM9JnUIVaEDMx7nC/fQ22qX5fe47R40U/i+Y9PJfHue9gjCEP5HV5ngavTVrmMRzfruuiUqng5cuXeP36NW5vbzEej7G2tmbCwnZ3d5FIJIxyDWmXWCz24PkXSidgnwclqoH/85Ntyo3X1dBtTrjW4gjHtObrbF8+G98Vqh9+DZY94zLo94LMV6QvhuLRM0SPGZ+Vr4Xvxo3/63bhsWyPqfLChXgNj0Yj5PN5UzGQfURvYhrOHWtxme2aSqWws7ODr776ynja06GCMtNMDEa0Gdi8njQ/lmTdvV4PY/EGCofDZv4kD17WT8toAJrm34cxhhdzVbUjR7wPhsMhTk9PTdb5druNQCBglOWtrS0UCgVEJNGfHozsRKhOW8jKAuPefcLM+PJkTFMpQdiVxKOVSsWsTMylYgSNMFTaXNdFp9NBv9+HI+UGIxKfTWMMjUaMDaZbI5+XA0kPZj34PnfY7/LYAONAnEwmaDabJo63VCqh0Whgpsqs8nj25dwyxvhUpR9tYOP4iMVixgsql8vh+PgYmUwGGSljHVUJX/VYsYnlQ2LVdrSPewz2eY9B0+pcrS5wzJJ+2U6j0Qi3UraTuV4GksCX9yRtpNNpJCTP01RCE4fDIUaS92IsLuBURsi4FlZ8rp40Hcstl/fl80GtYuh+JS8iXQfEYs+JLRQKmVjx/f19k+9GX5fX5jn29T14+DUgHyK63S6urq7w5s0bvH79GuVyGX5lQNH0yP2xWMzQD5VNrvRRYGA1JUeqKIVCIbRaLTiS+0BX9YjH44hK7rNUKvVAwXn9+jWur6/hirBII/pUVotc10U4HMbGxgaePHnywEMOIlBBrTp+yfglvkAeZoNjgpv9m/yQBmxCC41aeOxLJcOBlD3vS44TbZwZS7iaz+d7ENa9sbGBYrFovASgFKdPHfacwDGr98/nczQaDQwkMT2NofV63YQn9cUdnfIf6Y79ARnP9KZgOPTz588BSVZ/fn6O6+tr1Go1zCQ/kyNzqu1BVigUDK1z3qpWqzg7O8P5+Tlubm7Q7XYxlTDdZDKJvb09Y/xJJpMIqrKqWtbhPv3ssGQLu29/aRz/VrCfA0oRtvvUL7kcrq6ucHZ2hrOzM1xfX6PVasGnqmxy7k9IdaudnR08e/YM6+vrxgvJEUUwoDy22Q96/idN9CQf4ps3b/Dq1Ss0m00MJZkpZdZkMomNjQ0cHR3hL3/5CxKSFJ3vpMckeSSxrB0gY44yGiSEwjYYTCQnEXkNx52+Js/nfteSu9nOBNub44nX4rk81n0HY8xYvAP5fPzU5+jngsiapJO5GJzL5TLevHmDk5MTlMtlTKdTpFIp461A/ZJ9GRAjGQ1jWl7kd15ft51+zl+CbkNej32ur8n78H+OVY4hjkMez7bX/bPK8+AdjDELZTiB9EO9XjeeZycnJ6jX62au4TPqZ9L9GJI0JNTdFjLeR1JIQL8HxxPfidel0Zqhz5AFo1KphJubG2OE47lsP8dxkM/n8eTJE3zzzTdYX183BhhHPHMclR5DPwPfHZYeEAqFjB6jx6X2boXQjIZ9TYJt9V5LW3PgccDxxbqS+Mbv9yOdTmNzcxOHh4dmEqKFkkTHa3CQQilCuqGgEh/2pJoEywwy0dDFxQUuLy9RqVTMah9XQGhRYycSeiBB3ovCDgcfO4erGOxcDgZ+58D+UmC3zWPQhLmQ/DEDVRZ1JO6+us9dZYHUxM3rBCRULB6PIxaLIZFIIJ1Om6SRu1KBh26J0Wj0AeNeqNXIj90nq7bjqsdhCZG/DY8xTo5tR1ZchsOhWS2ksErBgTSpGdpISu42m020Wq0HigAZMenbL6uvejKyGam+Dycp/k/64nvwPwph+jozSX7Ja/LckeTicESZjYhXnqOEF30P/VwePPwa6LFF2uHCQbPZNN4UpBeOPxphstms8ShlslC64GakVCoAYwzV/BUyhmmcCYVCxoNxINXuqKCMRiO0Wi0zV5JuSQOkW5+sMvJZCoXCg+dYqAWVLx3sW3tbKOWO/cA+WSiXaqiwIM3r9HiBqnrFPEOVSgXlchm3Utqci1/carUaGo2G4clcpBpISAXnW0cMdykp00k+OxMPq08djiUf6rFKBaDf7+P29hblctnIire3t2i324ZeeC69pxfiXRmNRo3csba2ZoxXTDgfiURwf3+Py8tL3N3dodvtGrqB9F8mk8Hh4SH29vawvr5uPDM4TsZS/prGnPv7ezSbTaMsRKV4xN7eHp4+fWrCr/mu3KCUfv7W0PuW/f8xQF6nn9t+fkd4kCtK4unpKa6vr01lK1dVeyMtFQoF7O3tGYVOLwCTNvU99bhxVUhaMBjEfD5Hs9nEzc3NA28l6gh+CYPe3NzE/v4+tra2UCwWjbyzjAdoevdbnhF6PLvKU4LvRr7K9+AiNbGsDfV+Qs819n11m2h+ZF/zsX2PQb+DHr9QtExZjrId988lnwj5H9NWaHlyLKElzWYTlUoFNcn7RFrS7cfn4cb+0sfpfmF7c3GR/T+RIjCMuhhIqD7lYDoAaO9EjjOOW1cWOzgn6Hbn/dk/+vnfBt2fb4O+p/2+U0lm3u12zXzBzS+eJhGp+MfFcS56FotFk9ScC0d8R3uM6/HAhZ5dKTnPSAefpEIYDofoSD4uPX4XUpk5IyXrt7e3H/BZV+hdvwcXsrhgMVcJnLWuz+9ajnqMB/8SeNx7McbYnawHtE/FL8Ykic7GxgY2NzeRzWaNpVkzGG68LhtXT6Z9qWvOOuQ1KS13d3eHUqmEcrlsiI8rRENVhYIGGAq4KclETyEYsrrAzppL2AO/L4RxcUVRMwmezwHh/wyEmFWx6gCjcMdBP1LxfSMxxASlpGBMYuZjsRgikYhZjWKYihaA6JXEylvaELO5uYlisYiUlFRmu3P8cFxxsvuYWPX+qx5n0+BjsBmFZh7LwBV2hgbSPRHq2VxlRONENBJvmJly88YSIx0nMI4X3U/sN/1upKm5MuJxnBGkQ96bG4Uv/a4jscwHZJUzlUqZ9iAd62e2z/fg4V2h6YY8aiBJQ+uSo4Ljn7TjEyWMgsXe3h42JMk1XXgzmQzCkveIQkW3231Af6QNjm9XcrpxjnQcxyjig8EAzWYT1WoVrVbrwXl8flcqGdAVeGNjA/l83qzU8zh93pcO8g+9aX5F/sb/2I7cb89RHAdz8Q5lTpNKpfJgu7+/N/n06vU6Wq3WA4P4WMXB81l4X34GAgGEw+EHspkrvJSGoE8drvBqti+Eh1N+HA6HZoGuWq3i/v4erVbLGOXZBhSwI+L5uba2hkKhgGKxaHIt0bM7n88jHo+j3+8bV/5qtYrRaGSeySdhTXt7ezg8PMTGxoZZnScfGEoZ9Pv7e7x69coomfS6CIfDyOVyxqOTyWBJW3rM8b76t4bet+z/jwE9l79trnVV8tyTkxNUKhXD6wLKIyYkeVsYRr27u4tisfggFI8b+0C3IceSX5WFb7Vaxkvg5uYGIwkHpSLuSBVPpkyg3NHv99HpdAw98ndfvLC00t7r9dCVfF00nHY6HaPgj2QRiW3Fd9B8Xr/LY22p97Ht+c78n+fzGvpav3TNt4F8zr4uN0LzQkcZLMkLyftIJ5RDGUFBo3W9Xkej0XiQ7yMsuUN4j2XPwO+u8OGxVDnsqzD8VquFdruNloTNNBoNs/hP/ZT357Hs156UiKZ+ybE0lcV/tpHWI5fxuF+C7tdfgr6mHls0xnQ6HSOX+CUReUxShTBfJ9OPbKqiPDmpVkaj5khVPOI9XUtXi0hhgO3tbWxsbBj9bjqdGhpqSvoLLetAChbk83msr69ja2sL0WjU9DHbVb9bo9Ewxu+uOJHwecgDeC43jh+bLlbtF3PO+whTWibo6YcZS5noieSEiMfjSEgtbt0Qmjih4n7J5MisqNSPx2Pc399jrEqC9lQVCM1Y/GLwmcnqVFiyqafTaWQyGaRSKYRCIXQ6nQerSHwHEgkHHCs2ff3119jb20MikYBfcluQaHg/WgG/BNgDjO1rEzqNXZB2aDQauLu7M5Wwut2uWWmi0BcUN+CFMniRKMk46RHD88JSjSCm3PbJxDR4HU0w9jEfEqu2o33cY9AM6G3Q70/wnguZjEkjk8kE9/f3uLq6wu3tLSqVimF6UAxnrrKf2+2r34cKgKYpvY/0H5RQQ9Kvvo7+zXM4Vvg85CvayOOTnBauMt74fD6Mx2OjSP7hD3/AH/7wB4QkTxSVSRp1HMWE7X7y4GFVOMrAz7FUKpXw5s0bfPfdd7i8vDTjn+M3HA6b6mJ7e3umPCrHY0hyRXQ6HdxLCUrG0GuBIhAImLmW/JT8Mp3+fyWW/+Ef/gHFYtGsOjPElM9LgWQmeQmi0SjW19fNXMi8aqQfTZtfCjQfI+zfULyVPMRdkpSefI4gT9Wyz0gUvrokPx+NRuhKieWRGBioIEwkcalfYuHnaqEroBIc8r58Dgquu7u7+OMf/4jNzU1Eo1E4joOJJCL+1KHnQc4FkHBpttNwOMS///u/o1arGQVqOByaVd2I5IFxlLdkRKp0plKpB/IGF+IghpTr62v83//7f3F9fY2O5EZkm9OQ8uc//xl7e3vI5XJGOeCzN5tNlMtlXF1d4T/+4z8wUGG9nMOYl+nw8BD5fB4hVQbdEY9W/ua8xXvY42zZdyyRQz4U9HytdQFX5nzO9dPpFJ1OB99++y2+++47NBoNjKRSJ8c55ctUKmWq6hSLRSQSCbiWV60rC7O6vUiHmkYmk4nJnXF+fo7b21tDT2PJQxkMBlGQfJiFQsHIq5SrFlZuEkjoA59poeRffvI5qWcEg0GEZbEyKXk29er8QoVtc45wfoEHa3mJ9+M5PiXbad7lWF4arrUYTej/CbaBhj6Oz8H3ofGJfd+WZNvlctmUeye9jFUIFPktrxeJRFAoFPDVV1/hyZMnpgIO20k/C+fGhTKS9FXI50iMYvS20cexPXW/s/2CyquC3yORCNJShY08h/omZWJXeUaxb97Wpxoca6uA/co2c10XQ0k+/+rVK7x58wYD8UILikMDF9Tj8TgyUkgnpioXRSIRuK5rnCjOz89xfn6Obrdr5iwapNhGfr8fyWTSlCk/ODhAPB7HYrEwBX1OT0/x5s0bdKR6GtsZANbX17G/v4/j42N8/fXXiKuCAmxPjpdut4vb21vc3NxgIqF+8XgchUIBa2trSKfTiEtuPU0DWHHBVo9tDUNL78MYox9ioRQdEiWUO5Ijk4WjBNKZxMRxwPG/iZSQ4oRJ6ycJbj6foy6JBXkdGmL4PH4RVPk//8vn88ZiVywWkU6n4ff7TefSu4bgQAkEAohKsradnR385S9/weHhIZJSjnAuFWGglM1lTOdzhT3IHhtgJGRuI6ms1Gg0TM6YaDRqYq45eUK1G8cLx4SjhKOweM4EZQWEz+W6LgaDgZnIea4ei1DM5mNh1Xa0j3sMmhm8DZouF2pVZaZCjEajEXq9nlmpr1arD1ZXKaBAKQ78rj8JV5j5bDYzkw77jpMl+z8oVSQ0D+FYmquYZkdZtvXEx2MmsirCa4VCIcSlLCXPj0QiGEgC8I2NDbx48QJ/+tOfzKQSlrAmXhfSfkExGnrw8GvAMTWRxYlAIIBqtYqTkxN8++23ODk5MXTF8UqDIRPu7u3twSdJ0odSdnEmJam5unN9fY1Go4G5MiTOJY+bq4QoCpzZbBaHh4f4p3/6J+RyOTSbTVxcXODNmze4uLh4MK9CjKtBKRHPuZD5KzgHkvd+bH77vuFaxhib5xHklXx3zX+5n+1ImWc4HKIlFRtocKGRhfsnykDDa/N88iqtgPjFKKAVE/JSiBIcEg+njY0N/PGPf8TOzs6DcLPH3vFTAucKgmOPcwIF759++sl4GgxlNT2gPGI4N21tbSGbzcIvq7/8nzIH54amVPM5OzvDDz/8gFarZdrUJwuQBak6+Kc//QlpqZoUkJCEieTWu7u7w9XVFa6urnB5eYm5LHSEZdFpe3sbx8fHODo6wsbGhnluvjflXdLbQuQvyqCaBt82fj8Wrep5lnQCeR7NDxkmxCo6XPzj2I6Jt/va2prJYVWQJP2O5IexeZPf78dAkjazzaFknPF4jGq1ih9++AFXV1fGa4n6DHm6X9IxaEXbJyEV7A++20KMC2NJBkp61X3H3z6fDxsbG0ZWoiycTqcfbAnJ28c29FklhB/DVMJleE/dPjzP+Q2NMexjvje/+3w+433CNAdNKeBCHllXOUxI6/Z7sE1DoRCy2Sy++eYbvHjxwuT+ZD/zfeZSVp68lvMswxnHEmpE+ufzzpWuye98J82H9cZxwhCeQqFgEj6vra2ZMeQKr/ApY6Vu07dhsaIxRtME38MRnZwG58vLS/SkqioN1XFJHxGVSIZUKoVIJGJog/TU6/VQqVRwcnJi+DCNMOTFPhUWmMlkTC667e1tI7czuTn5JWUgKH7GlChPnz7FixcvzFwGGW/0bqrX6yZs9fb21rRxLBZ7YFhlknutv0DadmHpqzaW0QC03vQ+jDFQF5yL6xGJUjMiRyXMWYgFkcyXL6b/o5cKY6Gvrq7QkbJ+jhhv2pIQmMxmIcyNx/jFwqaJIhgMYmdnxyRP29jYQDKZhOM4uLq6MuW7bm5uHjTuSCzvEXFbLRaL+E//6T8Zax1EqOEAtBv9S4A9yN42wHQbuGJZpUU5EAggrSocsf8IMk5eh/v0fXyWss5Pn8pjoomFzBLyfDzmY8C+79vacRXw/X8JnERIDxROh+IeXavV0JNQPm4jcSVkm+l+WsiKEO/tCM1podUvKw7JZBKJRALJZNIY4fgfJym/rExQqKRBhP1HfuETI8xIwqEGKinlSIxJfHZO3n5J+DcXA2k6nUa/30cgEEA+n8fTp0/xX/7Lf0Fcyrxy1VLzKUdyKqzS1h48LIMjscmj0Qg+CV1oNps4Pz/Hd999h9evX8OV+dMRATEWi2Fra8vETadSKTSbTROOMpB8LxPxIKUL9ExVUwqFQhiK2/ZChNJUKmXuk8vlcHBwgH/6p39CQCov3dzcmLALCkxQgnMsFsPa2hr29/fxj//4j1hfX38ggPl+hdD4OUDzO/2pwTmP789PiJwwFa+X6XSKpiQApcDfaDTQlZwuQzEq8xxuE/FQJO/0qcUw7udvzoWOzMm8xly8neZiEEpIYuevv/4ah4eHJqfJ59J/pBc9HwaUIYJzCHk622emjFqcw3R7QRnidVtzjrm7uzOldUulEmZiJAlJgvr19XUcHx/j2bNn2N7eBlS/BQIB9Ho9XFxcmES0t7e3cEXx4ty5vb1tlJLNzc0HhlS+V0DCqvjcfLegSvpM6DFrj9+P2dfLnoVjlsrv7e0tXr16ZUKUXGUcHY/HJpzz6OgI/+2//bcHnusc+zSWaBpmYueFpCCg/jKV8Izz83P8+OOPqNVqRubwWQZWR+SkqSwQUb7hmNQ8lLTJMcr9yz6hDOEa0WgUaclhxLDVFy9eICw5nzR/sNtWQxtjoOiA5/Dd9D6OM/2sui2IZe8yVUmL2RYcx9wWi4WRSxmxQK8YGs5cWYC15UW+BxQvJL9LJpP4y1/+gq+++srkD5pJNV3y5MlkYvq51+uhIyFmHSs/iYbuY82H+BmWsCi2n76GX7xHgsEgdnd38ezZM5NvRRtjRpJ/lX1qP8Nj0O3xNmi+txCZgveCFByoVqvGGBONRk04nh5netxPp1OjI9MY8/r1a7x69eqBR8tEDOY+0eFCkvOFOWaZe4lhZzo0dyLeNZoei8UiDg4OcHx8bGiCzzOdTk0KhlKphFKphLqkY1iIHhkKhZCWvKRMi7G7u4uoVHslLbCvHeVFZmMZDUDLEO/DGGMT3fwtmdwdS7nmAOELcBDMZjO0JR6Qhpjz83N0JFYtoOL9OAB8yl1wppLlOSIY8nskEsH+/j6ePn1qJjaflL+7lcoxjAdlYy/EakcBdmNjA4eHhzg+Psb6+jqi0SggAz6kViZ4Tw//v6v2XGWlJjPSA1iPEXu82GON7bywhFBNDPxPj7/HCOZTAydz3Q4E22MwGPxsP5mDbvO5WPq5ytqTktMU+LnpSXkkrpikHzJJMlpHXNhjEj5GQwtdZ/VqIhkYFUNOSrpP+Mnr+2Sy0f2u33EmlnAKPuQ90+nUvGuz2cT19TWm4t7akxhdjpe4uOdvbm7iv/7X/2qs+1GpXML78xn43h48aNhj9DE4yrjIMUgX2VevXuHHH3804xhKkCwUCjg6OsKzZ88QiUTw5s0b3N7eGsGIvJBzH4UTR+ZhrfiRr4QlxwyVPQotgUAApVIJZ2dnOD09RaPRMPyEgsxisTAeok+ePMHXX39twn0dtcoYUiW3P2XYfEbzJvsYLeNo2UUfN5eVfH3OXBarKOBrHsWV1rEUJODvmQod4LhhH/vUCmJAJatnn+u5Tz+/3s/FKkiZzkwmgxcvXuD58+dmdZZj63OAfldYCizf3X4X3b5sI1dVYiKdUimCzDnVahXdbhfn5+d49erVg3wKgUAACangw+ICW1tbyOVyhn7msop/f39vqiYx/wn7Lyw5fJ49e4anT5+avAnsb76XqwwBBN/pU5B1bPpY9l2PXVeVfObz00v+/PwcP/30E8rl8gMZaSoVkdjeOzs72Nvbe6DMUjbgohTbrideEDT4+CRPV0gWXwaDgfF+aknS3oV4O7hKHglKeBT7V8tKfF/SH/uP/JLjj23gt8JmeD2e66qkr/F4HLlcDru7u/inf/onJKSCDRe6eTxU4nheF48s6Nn8j/s07L5km+h3cxzHyF4jWdQeDofm2dk+E/FCGUhKiuFwiKbk7+C+kSzAcayQDtiPHCv2c/IYKvgvXrzAixcvDH9jnhcaxPuSu4fPRPl4LCFQlGPD4TBmsghP2puJ88FcPKp4HfaFq3LBcJzMJA1GIpHA0dERXrx4gVwuh3WpAMTzyPc559h99hhWPc7ml2xntudMkkRTL/CJ0YL9yPfiORyrAfHgG0q40/n5OX744Qc0Gg0jj89EnvcreYVebslkErFYDH6pZjaSUF0a6DiGOA4CgYDJrfXkyRMcHx/DFTrmvEv5qdFooN1uoy/e/4Qji68MVdqREtkMPaSRey5zO9+dfbUqHMd5f8aYVW6sGY3d4ew4dvh8Pke320WtVkOpVML19TUuLi7Q7XYB8aShO1RQxXDNZjPj2juSeD4OYAgTikQi2N3dxfHxMQ4ODoy7J2PQ6BVzf3//gJENh0Mkk0mTyf7Zs2fY2tpCJpMxAuhCPG/4XotPZCL80FjG2KEYgv0f+12PAz0eSND28fyuxyAnMO7T55JQPpc+oXCh3xfSHlPxDKnX60YwIGOnEE/FicyChoipKj1NoZ/CAFQ78XoLFRpEAwuVgJjEtXKjVwknKm18IZPGEqWU/UUBQo8BPflw4oL0tV8JQ/rZOXl3JAnxULKuM1SuJSUwk5I7Kp1O47/+1/+KiEoizefgsy3jXx48YAlPextIA1SqB4MBKpUK3rx5g2+//fYBTUakVPza2hqePn2KP/3pT4hEIvjb3/6Gy8tLE76r+Rr5Hp+JdBSLxdBViS7pnVaQaiPHx8fY3t6Gz+czeWdOTk6MsWemkiM6joP19XWzKPHkyROzsueTkN35fG5WkN6lfT4GNI1jiTFG/6e/a97EdifvdcW7YSRG7YGUmubqbkcSdFK54HjQ/FjPe5zbeH2fWvmmUqJ5uH5eDb4T34/nBUSpe/bsGb766ivs7OyYMB2e8yWAbbSsf9kWrgj0jmVY5O/BYIDLy0vUajVcXl7i7OzMKG2OLPplMhk8ffrUrOqmJPnkQJKwUjFgVae6JPCeiWdNMBhEKpUyOZmOjo6QkgTb+rk17P32eP4YsO+rn1l/5xzOscx5nnzt9vYWd3d3OD8/x+npKVqtlmkniLyUSqVwfHyMXanWSoPzQslMVOC0Ul+v1w3NUC6JSm5Cn4SENqVK5EA8KFzxdiDtu66LqORxoV5CGtXKIt9N84qJGGK531XekcRMjD18voXoFwsJF8nlcjg6OsI///M/mzCRsISHzFTuO/Joe+y8Dfo5Hus/vptfvO1ctRh9KxXM2u02FosF+v2+kSEpG05UblDqcf1+H1NZbOMn5Hn84kHtV/mxNC/m80DGlF/ygKytrZnS8rFYDKPRCFdXVyiVSg8M5ZSree2FqqpGD+pYLAafyJEcaxPx7phMJkb+5LzL/g2IQ4Er+ulkMkEqlUImk8Hx8TGeP3+OdDqNfD5v5FAoGvmt6Nm+pt2/xEQ8iLiP7csxz+M5liF8dyhhuFdXV/j+++9Rr9fRF4/1mfIk47yq5zfqEnzGseSj7UoOUt5jLl67+/v7JnH35uYm+v0+WpJkud1uo1QqGe8n0iDpjtfy+XymcMzu7q4pUx+TqpOOyEUc95rOVwHf5YMaY9gxJBa7081DyedoNDIuauVyGdfX1xiK2284HEZcki5xxd0nChjdjTqS/8JV1j2eWywWsbOzg83NTbNSUa/XcXV1Zcrk9ft9RCVBmysWda6gMyP++vo6ksmkOYYdwvd1f6eeMeMl5cLtPmd/cOC/DZxEHaWYa2LFEiGEYL/oY+xn+VShx49+j6kkDWPcZFNK4s7Eak2Di57YIQyUkxmWtAfvx3YmAwxLfDIt9xFJGBeNRvHs2TPTj7yevievz2eHvMtcJagkY5/NZkaI4L15LwrGPN4vE7FPGY2g3Mknkn9hJvGqY0nSRRfHarWKibhghiUZ3n/+z/8ZIZVYTTNlvs/nMnY8fFjYfOcx6LFDYWY0Gpm8Mf/xH/+BrlRZmEwmiEueA53XKBaLmWS/9/f3aDQaPxuTHLN688uqkiOGmVwuh3Q6jXUp/UjlezKZ4OrqyhhjuAgyV+7joVAIW1tbODw8xNHREQ4ODh7QKY/9NYL/xwCfz35O/mZ7kr/Yx5KnjWTlloI8DcKdTgctqXDE/qVxPCKhJQtlUNf9R1DOoWLCY2yexHMcWTkmf+Z3fTyf01VV5Y6OjvD06VOz2ESl6UuBlgfstrPhKuWcY3s8HqPRaODHH3/E3d2dyR8yGo0wkRXwZDKJYrGIZ8+eYVOqh4bDYfQkrxOViF6vh7pUXemJxwbpi4YYLv4xqTJlHoiSTdhjgOOJfRv4SPkL7fa16YZ4rC9IV69fvzYy+t3dHdrtthnjkH6lQWJ7exuZTMacO1SVdRiOTf7r8/nQbDYRVFU4F6J4U9l3ZVU9IiEtI6kKqhegIlLWl17CVNRt+UjzUeo59Mjgqj0VRKjQEfJT3bdsM3phHR8f45tvvkEikUBYFs6g8nZCpYXQbf9LsMfWsu+ETxVWWEi0wsnJiZmv6C3CdmGb0ygxlpDz8Xhs/tNt5igPavaZT+kErhhEKO8GJCw9kUggm81iY2PDeDssFgs0Gg28fv0apVLJjJWBJKjl/SgnskoWvTWiUmqeBjhX5vO5VL+r1+u4vb1FTVX25TPZfJ85YpgbjguFbANX9FD2uR5T7wv29R7r65E4O0AMMaQTtr+rKpqyHWey8MScTy9fvkRDkm/PpEw1eSzvRzqMRCKISj7HQqEAn8+H0Whk5PmFNW/SKLu3t2eSCVerVVQqFRMGTKPMXHQH3dd8hkAggFwuZ7yA//znPxsdiHMix6b/czHGwOpMDiQ+OBvTVRUHptMphpLPolKpYKyS6NJliQ3j8/lQq9Xw6tUrXF1d4f7+Hj2JayMT4gCm9ZpxoVw1JxPk6kZUqgnw2Zhr5vDwEAcHB4ZQ9ODhfez3/T2BBLHs/dnnWDJ2lh2/bJ8ZwEsYEg1BvI9P5ZCB8rL5WILJu0C3E5/bFaGgVqvh6uoKb968MUIcjVYjMUI6avUgIAZDtifbhYYIhhfRGBESz5aohOxExGOEBhA+20ASJlPYC8iqlhYuuNowlPLyXSnVOJG8B3yWoCQEjYpnTTKZNEmzNL3qMeSTiZ+GJ59KvjeT8CqtSLCNqOyyjQKSO0bTM8F253haNiY9/L6x6pjQfGgmK0FTyRtyfn6Of/3Xf0WlUsFIjM+c59bX1/H06VN89dVXiEQiJpFkqVRCtVo1NKFpw+avY3EvjkajJuxpd3cXa2tryOVySKVSAPBgtf/s7AztdvvBtcLhMFKplJkLWWrb5sV8P+cdhJOPBb7fsvbT705+MVOVMqaShJN8jSu6pVLJ8Ly+uN1TASQ/X6jQ5sfAe+tn0MfzmWjEJi8NiMAfkRVy8nWfUlo4Xy5EEA2FQqaUaDabNTKQb4VFk88Zy9pftzvbaCihE7e3t/j222+NAuf3+zEcDjEXb7ZsNov19XUcHByYRMjz+RzX19emMiHnbSqOcxV6EY/Hsb29bWhse3vbKPd8Hk1f9pggOMZs2vyQsO/LdrW/632u0OJcko5Xq1X89a9/xcXFhQknmYv3Cuf3mYSHUH6gbBBQOS9oSKGyT4Wd57A9uV9jNpshkUhgIQYGR4zkm5ubKBaLxrgdiUQQl7x4pE3dPwul60ykUAmV1Gq1apKJMn8Fr6F5BfvfJ3nH8vk8dnZ28PTpU+zt7Zl20QrjQvQgv1KaV4Xuw7f1H9+T9DKTaIXvvvsOL1++xOXlJTqdjpFHCcpY3MdP6na8HvfzPhzXlOHY55SHHcdBKpUy1bTW19dRLBaNYbvRaODy8hLffvstyuWyUayn06m5ZiwWM3l5jo6OUCwWkclkEI/HjcGLbUrMxRO9Wq3i4uLCVJNlSCokRJ7nOY6D7e1tbG5uGm+OqDga6PbUBjr7nu8Dup/xlr6eKi8ltpNfjEacC2nU0t5NlL0rlQouLy+NcYp9zGu4srjhkwTo6XQauVwO2WwWhUIBUPlnrq6uMBQvf/KAXC6HQqGAnJTT9vl8uL+/R71eR7vdNvQ/khymHGc0+nCuJC/PSMnuvb09xKRyL5+VY4Z9wv5aBWzvD26MgepQDkBHGC6VSAorHOg+SaDVlRJYPolRo3ChCbBWq+GHH34wFtiOJPydW65dflVC15HkvLTK+UXQ4gAjYbquayyWrGgRVaUJYa2esZHfpW2+JHBckIlwn03shN5vH+MoYdAWgmfK+joXazSPJzExlwEJfqE8mD5laKLWbTcajVCr1UxCudvbWyOccNLl+GUbBINBY9HnBENBnRsZTCgUerCqo5k+BQlOtLT204hJOiZNcT+EabHfSJPEQoRGrnT4xaWUKxG0TrNii1+EE07q+poUgjj+5mpVk/2vhS2+Jyc+DR6vx+DvlaY9/P1wrPC8oLiddzodXF9f41//9V9NdQBHwh0CgQCKxaIp0ZjJZHB5eWnKep6enpr5DCqu2x7fHPPpdBpbW1t4/vw5tra2jDeaXxTKm5sbs93d3aHf7xv69Pl8SCQSyOfzePbsGY6OjrC1tYV0Ov0z2uE8qvnYpwr9fpwbuI99BeFhAwkzGUoeAQqc2utlJGEoVLTJn3xWOJmrcpP8EgaDAeai7OswBMpDSVXmlooYDelUGigv8X56zHAeTSQSSEtFGP7/JYHvzvbXmz6Gv30iX9IbtVQq4ebmxoTOc36ZWNX7qEBQWZtOp7i7uzOKCumT44xzdkRC6emtRhrV/eaKMh5UIQwajmVU/Jiwn08/j/4+szx5F5bx67vvvkO5XMZgMDD9o9+R/UA5hu1FGYG0zPuQT07EA5Gyh6NC02C1Jb/7JRHs/v4+tra2sL6+jmw2a4znpHPdZ3pM8Xn4eyo57VgJ7/T0FLe3txircr+uhMr5RI6dy2o8+TlzYTJ1At+Hbela/OZdxoXuw8f6j+Dzsb37/T6+//57/Pjjj7i4uECr1UI8Hn/QFq6lG7Cdtdy2bON7kYZ4PZ8o1slkEpubm3jy5IkxmKVSKTiSY+j+/h6np6f429/+hmq1avjdXML9k8kkcpK7ZXNz0xhXuTDo8/kwFicBu13HEkZze3trqhBVKhX0JSwnJhXV/CLvHhwcYG9vD/v7+9jY2DD6La/JsbtsbL0v2Nd7W1/PRTceiWfLTDyb+pKEnoux7XYbM1Xtaip5mxpS7dEni7G6XyFGHhpB1tfXTUUjv9+P8XiMer1uaGUgCbVprMpkMgioxWbHcdBqtYxhyKcWbSNiPA2FQiYEifMm58JEImFsEpSVOFY49hxlHLTb6jEY3vAhjTG86dzK7eCIMYRum7QSc0U8IYmo2NlQljgS4UxcnFgyi25h3W7XdA6fwVGWan3+TFzHArKyT+F2LgpuIBDA8+fP8fTpU+zv72N9fd0QCjcyBr4blgzg3wM042cbE3rAasLnd/sc3UdkkCNZ2aDyz//I+B2Ji6VFe3NzEwnJL8R+Yv98TmAbzWYzNBoNY4x58+YNhhLCx/eOivdYVLxeguJ1wnbgyk1YcqOQJiD0FZKS8FMVSqQVjOn0/+Wj0e7WVELmorxw8piJRZzv4FNJv2Axdd0vYSnpmRC334yUuSsWi+Y9ImLRprKzkKSHHGMLWU3g+3EfBTI+D4/nJ+HRtIf3CT3+IC7jANDv93F/f49/+7d/w+npqXGf5TxUKBTw5MkT/OEPf8DW1pbJe1SpVHBxcYGguEhPJhN0JbFdt9s1Y5fzGgBks1mTeDebzRq+OJfVPCa2o2v1ROUwcRwHGalW8tVXX+HJkycoFAqIRqOGLnwijJPuPgdey/cLWJUZOc9MJJ58PB4boY4bjdH0AhzJopKWW9j2vD7U3Kbbh/MfeZXmSXNRvuJSKplu8hFZzUtK3gLy1YAo9iFZ5dP3Jjj+OCZnKgkp+5Gy0ZcCzd/ZB2x3+zj+z1VYVkxiODzlS7/kyeD3oIT30sDvSG6Blkr+ynvwe0hCf5NS7aVYLGJtbc3QKK/N51+oRaWFZTTU85rd5x8aur3xFgVP98NCQvyazaZJU3BycoJms2nGo+4f0kxQPML8ouCyH0hDPA6iLFNhJG+DVpCWyKh+v/+BXHlwcGA8JRKJhNFLeK797hr2eBtJDsDr62v89NNPODs7Q0/CqXgt0jDfOxQKoVgsYm9vD0dHRzg8PDS0znbgvbjptlgV+j0e6z9Yet5ClNTRaISXL1/i1atXxhjD8fxY+/C69vzB/Xx/9v1M5ekKSPJsGlH29/exs7ODtJSUpxI+Ho9RLpdNeHCtVjPjirpEsVjE9va22dalYiANfpB3XTZOFmJMpPcGK67RMyMqIYfcWLae+qVf9Fz7fUnTj7Xd3wP7mm/r6+l0in6/b9J6UB/ry8IEFyno/aLpYSL5gRyh2WAwaObbuRhoIpEI9vb2jEGadDaTasulUgmnp6d4/fq1McRwrk0mk6atQpKEmwZwjo98Po+wpDyhPkSdiUYX/sf+dsXTXrc/+wbKycRuq8fAa/j/5V/+5X/af/5WYEeQePTLDCTsolarmQmPhOVTIQyciPiyVAIbjYapvFStVk0MJjtIN5qjVrgXyl2Q12YjkkACYmnXVvB8Po+QVAPS76fvoQfe7w2PETDbRDNY/k/FnQRJIXgosb6Mq67Vaib2r1Kp4P7+3owd/tdqtYxhwJWVPr0qyGf53KCfmYywI0lpfeLOl8/nzcSxu7uLvb09s8rGlQG6+1GA0JML22cu7sGMyeQqPBNcM5lepVJBuVxGVcrEtdttjCR2nozRVUm0/cpgRHc/TsxUNmApB0MV8qQZH+mT58CiP/7WdMrf+jjyIvIC3c4LJaRpocCDh18DR82BUMqVK6tGbcnqT+MihC5CsmpDLzEqGTGpNrC+vo5MJoOwJAWkoUAbAjjeY5J0OybJC0njNcnPpsMoJhJK6CpBnoLM1tYWCoUC4vE4fJLLhPeBChvQ+z5V6PdzJExhMBig3W4bwxRzTZVKJdzf3+P+/h6VSsUYrWiMGctqe1C8nnRfk19pXqLnQs2ryCsj4rnInHWbm5smKeH6+rpZNaRbNo00SclfEVdJ1SlH+VRyRPu5KPtA+N9UEsl/SbDHJWmDG/fNxRPq/v7eeIqVy2WT64B9y7HD8eOKMZJ02JNQNU3Xmk5cSQbLRYdvvvkG+XzeLEZC+oL30Pfi/efKM5bPxWM+Jv29y735XvP5HK1Wy7Q7F1jHKgydY5RjloYYmzdms1nk83nk83msra1hY2MDa2trD9p2JItI3AjqCGzXsFQcY0XVvb095HI5s+DFc5wVQvs4ThbKKwpKtuNiMuUSLecQ4XDYvBNzYNpjWY9nfr5Ln+Ad+pDHzZUH0nw+R6PRQFMqI1Gu0+foZ9JtzvbRMpt9L7azI2OCxmqmlTg4OMDa2hpiknRV0+hgMDCLGsPh8EGfLRYLrK2tGZ7LRUBHebfOVYWrmSwKQ+mPPlUAhiGslI/9au53XRc5SRRLzxs+C2mZ72jT/vvEqtecyQJrq9XC9fU1yuUy7u/vH8yV9BTVCxSaP82VV0xAjJjUGxzxCt7e3jaeZ+SHjuTtarfbZg7mWOEWkKgW3otjJyql4AuFAvb3903fbmxsmHk0m80inU4jlUqZtAkcN6RDPV6h9I53Bc/54J4xjriG8YU4ULm6d3d3Z+K6yGCYbCmbzSKgyjfOZjPc3d0ZN6hms2lCJkYqid54PH4wmTliiXOVx4Wr8kroTqOFLBqNIpfL4fnz59jb20Mmk4GrYjY1I+VA4vut0jZfGjjA2MZsd25kMiMJZ5lLjCf7i/u5IjuQeFr+z20iHhua4MgMOWlubm7im2++webmJpKSZIvP9qlDtyPHpSMCYqfTQblcNuVn5/O5WQ3YlISB6XQaccn4zoncZiKkAbbtTFx3KUQ2pYJAS2UhJ2N1xW2WjJDX18yKY0DnlPBLfoOQxD/PxODS6/UwFy+ZsVjIOdGxj9fX101Og+3tbbNyqCdEjjG7j/mbbUkaZXt0u92fKUu63dmG9nU9eNA09UugEEdBBDJv9Pt9kzT39vYWjUYDMzFQZzIZ7O3t4auvvsLXX3+NSCRi+EI4HMZU3NzL5TKurq7w008/4ebmBkMpG8k5ypEY+rW1NeTzeYwk3Ia8lrRN3uqKYEPB2u/3Y2Njw5TZ3t3dRTKZhKuqSFBw4W9NT58qyF8oFPbF1ZrKYL1eN4YWPUdNJTGms6Ss8Gg0Mtfl/3pF1VVeJ65SpiFeElyZY/jR0dER1tfXERaPwYiEn5JnsX95XbY9x6YrvFgLqXoMUq5yJHeMozwLI5GIebfPHewPPEK3pKvZbIaeJNg9PT0144CLfZwD2c7ceA3OR7qtw+GwmS/13BuUMGKGQ/yP//E/HiyQsM/Yz7pfIeOXG9Q87xPFzf2Ic5bdxvpZ9HeOfZ/Ph16vZ6omXVxcoFQqodPpPBizYQn/Cqg8SRBvLxpi6F1EBZdeZLPZDLVaDTc3N7i8vMTFxcUDhZH9SJpciCFsTUrcHhwc4Pnz5ygWiw/6fCqr8/p57PfnsZDrj8djJBIJQBam6/U6Tk5O8PLlS1SrVeMdExTjru7jTCaDo6MjHB8f4/DwEPl8HhPJhafHpYbmB6tCv8Nj/Qfpu4Xk1OHYn81meP36tUnAzAUHPhufE5YhhnSixzGP58Zx7qj0E4VCAVtbW9jZ2cH29jYKhQICVrU5R4UpnZyc4K9//SvK5fKDZ0gkEg/yohWLRQTFg4NjwnEchMNhTFR1IeqMIfHI0GP5+voa9/f3aLfbiIhXN6QdWW774OAABUlSy3ck2Ba/pg9XgT1WH+trPT++fPkSNZUUm33ONoLINz6RDdjXIzFms99iUu1xKsb/XC6HP/3pT6ZYDkNnR6MRKpWKKY99cnICyLO7Mo9GJEeXT+WITYiXfTqdNgbVhIQlhSXc168qgUG8S6E8vfSY0/fkOCXsdnwM5jof2hgDVUGCHTKbzXB5eYkff/wRZ2dnuL+/x0wqoLDhcpKMh4ofBSKuRuk4bQ5WqFWdcDhsBohfYj1tS1dY3JJouIlKeAc7MJVKGddgCsJkeprh6QmaQtbvDY5yxR+J2xqZlRZOGlJVQPepvc1FQKSyMFNu3yQATSBk4qFQCOl0Gtvb2/jHf/xH7OzsICOxtJ9Tn2hiX6jY4bGyDDtK0KcRkUyPfeGqigrcPxMjSKfTMR5pmpa0Usb2ny/J9cLxz+tHJUSKW0Ri4MnwaJ0OSJw97093zqqUAhyNRmbC4hgJSrnPjY0N7O7uYnd3F/v7+4iKyyfbiZsjioWG5ln6cyyxv2wjvh+kH8jDPqfx4+HDYNXJl+NzrhJLct9sNkOpVMLFxQVevXqFs7MzwzcTiQS2t7fx9OlTfPPNN0hLjhZeqy2VB+mpViqVHoQYQQmgIRUbTe8XChoUYMgzKCjNZCUzEong8PAQX3/9tUn+G41GMRFjbkApSTPlmrxq+3wszGRRhryCPOnm5gavX7/G3d2dSTruVwZiR+b/kMqv4opAOB6PjRwQlNX6gKzYTVTYZywWM+csJEQ6lUoZuYfGdeYO4RzoWp7DAStsehls3jeZTIzhxRUDhCMLVvoaXxLPcy1jDGlPz3fT6dR4e7ZarZ9VLWQ7cgyw/dgnWmGaqbLCqVTKXGOuPB4ymQy2trawu7uLnZ0dHB8fm2twbHBupvEUYrTj2KJLPenPfuePBXss6mfR37Vy1mq18Pr16weGGLY7r7cQjwPKIBHJ8cD8Kaz0xuNJkxzndal0c3Fxge+///7B9UPi+c59AQltODg4MH20v79vjGvkB+TnsN5bv6fez3vEJEffaDRCs9nE5eUlXr16ZRT3kSRe1+PP7/ejWCzixYsXpoQ6eTHvQ7lMy8j286yCx97Fvg7nDs4pkHZ//fo1Xr16hfPzczSbTUwlYoG0wo1w1eIqv2vwXbj5ROnO5/N48eIFtra2sCZVjsJWKXj202w2Q0VSW/z7v/87SqUSFsoYxDCndUn6y1wzNDTx2bqSzxSiN/L4jCTuHo1GODs7w+XlJa6vr83cTNmWz/TixQt8/fXXxpOHz2x/6rYIvGePRd3PeEtfN5tN3N/fo1Qq4bvvvjOhSgsV6usq/YxtznkKsvip9eVMJoOxJDeORCJYW1vDH//4RyNnxONxBAIB46F6dXWFV69e4eTkxNyHnwnxCKUNgZ5N9BoNSmiUT3nmcPyRnl2RBzie56JX2uB9Nezfj4HHffAwJVjKDeTFq9WqcQFtNBoISmlaCisDSQJKd7JSqWQSC7bbbeP+NRHjCDeCE5NPViboslgoFFAsFh9YUenCyBV4ui6RsKjI6o7XnaEZBzv39waGlXSlfFi5XAYzxF9fX5vyhCWp895oNEwOhFarZfqUbt9k7GSSun1JSBRI2f4+iRVMJpMPklQGVEzvp46FCpGBjC097kISG5xMJh+4pHPFlGOVm99ym6QL/t3dHS4uLnB2doabmxtUKhW0VQ6nkVoBJnjNQCCATCaDYrGI3d1dHB4empUE0tTm5qZhpjTO6GcknfhkRawv8adDyYPjU7kLJuLGSFqOxWLGyKbfl+3FNtN0yefnPjJfW3DRx+pPDx5svMvYIB1xvHIc+sWAMZTQzJHkUHJFKOCKWywWw2QyQa/XQ61Ww/X1NS4uLnB+fm7odyClOX2W5yZ5KTe9ws/ngVJYSQsUpqLRqMmVkMlkEI1GERADw1xWlAOWUeBd2uZjQT+/I0Yr9kOtVjMKEY0VUPMPBTtHDNxU5mOxGBKJBDKShHBjY8MIhDEJ0WT7sr0dcc/mOVtbWzg4OMDm5qYx2oxGI+P+TSFR9xUU79MbYfeJFkR5rH4uex763KHf3xVvBsos2sv69PQUV1dXpv+phEGFkHEOhhWawf7wqbyDCwlz4RzmiNLPVdrt7W0TVszxxG0+nxsF6Pb2Fjc3NyY0oC5lsacqN5ruz7kVFvWhsep9yWPIT7rdLsZStSghXr9cHYdSRMlz/LIYE5EE1xkJw9YyBts8EAhgqkK97+/vf3Yt6iDkj5FIxIQ25PN5JCUvxVQ8JXhtv/L40OPAUTKYT3mtOSpR7UwWMDudzgNP//l8jrB4QFIGdhwH6XTaRA/QQK+NSrBC1VbtCxurnkc+Qx5C5bvT6ZiwFS6y6ufR7USeygXyiAqj5/F6DluIsgxJ3Hp0dIS8lDP2ST5BqHbgOHPFA7LZbKIiiXX1PficnGu1LkMdtFQq4ezszHiyjkYjxGIxI+tykZDjjHrNWCI29P2KxSI2NjaQy+UQi8Ue9BmPIT1zDJAG3hdW7efxeIzBYIBut4v7+3v0JQTTteSIgBgxgxJuS4MxDVEBpb8NVDn3kCwYaQcIzlMtydmmeTXHHflyIpEw+Xc2Nzexs7OD9fV1pFIpRJXXEjeOCShjjKO84XUfwNLzl/23ajvyuPdmjLEHjf1wPMZVKy8khsFggOvr6weDOSgrcbQ+ziR0otPpGEV9MBgYItTMxxFiY2OyA3nPeDxu4sS2trbMJ4kgk8kgk8kgm80+CPXQqw28lv2eCzEY8BhumkG9S0d9rphMJkbZL5fLOD8/R6lUQkVqvNPgwpUeGttGKjxpqiolLSwjAJk2Nz35kVE5MjEmk0lsb28jLSUHeQwJ71OGHiv6k21AwSEq4XQUMvSY1xv3kQ4HgwEajQZub2+NV9pIrdrpyY5jOCIZ6jOZjAmJ2tnZeZCfZmNjwwhCXA0eqepKI/Fg43PyuSDuj31J+jUajcyExf7SNBYIBEy4BYUZTWu6vew2JHgclFKi/3/suwcPGquODT3eONY0f6OyR2GHdMPjSbudTgc1Vdnl7u7O5MviarE9zgOi5JAX8D4URPzK44NCTTAYxFytKEejUbOCn0wmEVJeFVCx8rDmwE8d5LVsF8odFMTpLThXHk164zV8ooBEo1Hs7u4in89jfX0d29vbJjFjREJ+xhLupNvJkdADLhBxhZeKVl8SPV9dXRklfCLhYJzf+DzLwL7Qn9w0z9TX+CWZxVVC7duO+1RAeiM9DQYDsyhxe3uLUqmEhpS8rUiZec6HlC9IX7q9ZyqJKOnJJ/IGlehIJGIWNnxi3GSSUMqh+XzeyLx9SYZZLpdxcXGBy8tLkz+FC5Vj8SLmgiRkLiNt8l78zvkT78C3/l6sch+2px6TUfGiLRaLRsF2JRknDZEEdQvK77Yxhtdm35CvkabsMc+2Im1tbGxgf3/fGD6i0ShghVfZRjRubwPpjuNnKmHa1WoVnU4HQ6mU6YihBXIvn8+HZDJpFoxTqZS5nn5XfmLFfliGdzlP8wLOB32VN4myvu4LLqzRiMb8Kdq7xZW5b76k0hX7niG4ISs/Fp/FERoIyKLsYDBAp9MxvFTzBi5ccC6mQYkh+00J27f5MJ9dP3dfwnqakjdnKNV7HbUYQ1k2IyF1uv+48Vi2rx6zy/pIt9MqWPW4qXgRjiVCZaRC/BzRvcIS3cKFBY7TnJSbXqhwprkYvfi81Gu2pFIjjTF+vx/dbhftdhuNRsOER7E9glKcpCAFD3Z2drC2tmYMXBwDNn0sa0v+x/aGJb/xOG72vlXhOM77McbYgwXWw9gPNpWyUmSGnU4Hp6enZtLTL8/jfGLdHEo2ZJ9MYs6S8IyFWKrJtCISUuRIR6VSqQcZmjn5scNpvYtJHBk7DzKJu8Kk9aerSnZxMPLZCRK5hm6jzwG6n/Uz2wN0IRnUW60Wbm5u8ObNG9xLqXH2CydCGtNmVllDuw3natVVK8363q5i1hwjmUwGu7u7yEhyS0cYt+7XTxX289m/IUyLEx7bBEuYsO4zV6zX0+kUTSkbeXJygoG4zHNFQV/bL27Aa2trRhk7PDw0eSO2VLbzsIQFjmSFpyVJvpjwt9FoAJLXh5OmI5PkSLzhqPxoYwyfg5NxIBDAzs6Oia/VY2GhhGV7vGroceZ7ixLjwcP7hM9Smsm7XIk5n0kOGYZyUjHgokRdkmqXy2XUajUjtPMa5Jta4KERgDyUtBRQYS48litZoVDIGMsdWaHelYTgcUlayfmV9Knfyf5OWly2/RZ42z3083FucZRxjOfQIMOVO66q6WPYBrFYDHlJtPvixQsTZsSwhmw2i4VU52EITFiqvfB6GxsbePLkCfb29oxiEZCV/FqtZvJJVCoVtFotjEYjBMRDkvyO89svvbseg44yLujj7XOXXXOhwjTs4wnd3o8d8/fgsffV94XIoHxXx3HQ6XRweXmJ09NTnJ2dmZC0Wq1mDKEB5f1CRUTLdI7ySOBYYr9SvpmLmztlxLAk7N2WEtbFYhHpdBrBYBDdbhctSWB7eXlpcm7c3t6i1WphLqVxw1INcbFYmIUuyNwaUwlL2c98Fige9Fi7fQjo+2qeFQwGkZSywsViEZubm0ilUgjIwk6r1fqZPDmSsOZ1SfaZkgScrjJOQOWvcFU4Yblchk+F2Mwk7wvlnnQ6jSdPnpiQQSp2C9E3KG84VoJ2/oYyUvB/0sxCeDuNSzyuJBW7BuLlOBYvIY4vn8+HWCxmDFU0xvjekltFt/n7gD12fCq/EZR+OJVqmXpBLqjC6zLiXU0PMS7wbWxsmH6fSNnkqZUKgv3giFchn8Hv9xu9kG0CGSukmdFohJ7kHW00GubafvGygowXGs71J/UX8r1QKIRYLGYW++3nZqJ3esf4rPmfBsRMJoNkMvmztrX7TJ9P6OM4jthWq8C+x2PQ1+6L9/xYlZZOJpNIp9PIZrMoFAo4Pj42Xio0xlDOZ59yrLA9o9EoDg8PkZGoFI7lgRT8qUjyfBpxfGIMzWQyJqck6SIq1R5nynORugVphW3HfY7yDNU0bPeJPpe/OXawhEb0RrwXY4y+4CqYi6Lsk0mq3+/j5ubGWNc4adGw4ReraTqdRj6fN8S6u7uLdDptEp5tSWUHEh5Uw0GErYi4/zLxZyqVejBhuSpkYaSUQnrk0CunLfH5nU4H3W73QTgHJIEYmYTuIG6czOcq8/bngFX72lWuv81mE9Vq1SgKHNhsA/YzCZvtRYLQxMJ2mskKgmYAWsgIipsaDQdHR0fIZrNGOCLxfIlY9l7cZ/83mUzMWL6/vzcKF/vHkcktl8thd3cXz549w5/+9CfDWDlRhqVUIPv7+voal5eXOD8/x+XlJa6urnB1dWUSdDcaDbiidNIgw8mPQmhbkrw54qLNscO+i8ViWFtbw/7+PtbW1oxwwvFD5kxesArs9vHg4bcCx6kN8sCJuMgPJVRGC+1DCdltNBroi2s16YN8dNnmKEN0TML7uArJ1TjSkE/laZpIXpFcLoednR08e/YMe3t7iIoLtqY7vpOrhJi5FV5qvy+PI82+Tyxr48fAdrKFMfYB5xrOOwuVq4IrsltbW8arhQk16dkSkxw9zI/VaDQwGAwAkYvIb/f29owgGY/HTRvrkLRqtWqUBCoTC1EkA4EAYrGY/XpLsWr7UOnQ4wlqHL/rvLrqce+Cd7km+xeSNJVhX0MJj6XiS9mQ45jn8nzOlTPJ+8HQd/Y5ZUHKg6RlLmzs7u6aHBexWAyLxQLdbhd/+9vfTI6Jm5sbMz+HQiEz7x0fH+PFixemqMRUFldG4mE8m80QkkTQlJ30+9v9tYw+PyRIb6RBzYtCEprEMc82p9ErKF4QXICLSTh0Op3GVLxNJrKST2XclZxJvV4PFxcXRq6kHMn7U55cX1/H3t4e4vE4xuMx6vU6Li8vcX9/j6bkrySv4DVmqqCH3tjubHPyPX5Op1OUy2VjbCWfZDuR3jKZjDE+aQWexz22/VZwhCb0O0N5GrJvaYTc39/HkydP8OzZMzx58gT7+/smXURRqhf5ZX7ri9e0bgdXdDa2t1/Cy/riXc35y5UiLQFJ5MvPgVTMo6FEX0cbyfU8BuUFRRmW/J8hvMVi0SxqzkWfrdfraDQahtcExPhP5CV9Rk4q4i3rK817XcsTcdnxxKrz6mPn29BjifPhRIyY5FH0+Ds8PDQ5O2lA9vl8ph20QYt9RNqlB25QFV65vb014ZntdhtTMQA5QhfaEM1n5D15jE/p+2xHvWnoNud9+GlvGnqf/Z+Nj2KM0S8+lQoQ19fXZhJZiFXclTj5ZDKJgpShYmbrw8NDHBwcGOGQ4RFra2tm8E9UpR0yYEc6hZMelUcSYk2VR767uzNuq4wNZIzu3d0dLi8vH8QN6jAcuqPRZVwzdw4CWEz1c8Cqfe2IAj2S2PZ6vY6xxFuz7/UkREFFb5pw/OIyT8bOiUkTcFBWctOS8HlTyn9yFZfESMJa9V0+Byx7F3uf/s12nakEy2RqHItziVHOS6nsw8NDHB8fo1gswqes02/evHlQkeD09NRUQGBeIMaUckVgJMnocrkcUqkUEomEmRy1+yfdD2fKc4qeNNls1hhlc7mcmdg0Lb0rbdlt5sHDbwXywWXfOWb5yZVRiJC4EG8XHr+wqqyQzy2sJOcUYpPJJIrF4oOy9+vr68jlcghLWCGPH0tCvZSUz2YeqEwm84CfamGFz8VPPgufQ7+v5uX4DRYmVqVpKmKO8irxydw0EwWQbd3r9QBl9M9Lme/9/X3s7e0Zz1uuAEYlYaDjOLi7uzPKNXnuTHkj5XI5vHjxApubm8hITh5ISBMNMbe3t+h0OkaGofchlf6EFBxYBra93lYB+4ff2ef6+7tg1fu+C1a9Jscg1MIR+2Am4bs0krmW1zPkPlTEtIx6cHCA4+NjQx9+Mb4MVUjNYrFAIpFAsVjEjlTl2ZUcMd1uF3d3dzg7O8Pf/vY3M3cyDIJeH4eHh3j69CmOj4/NOIlEIhgMBiiXy2aeHQ6HxugaEM8ezok2HfJdyS8+BhzLGAPreQPiHdaT/B1avp6pIg8QeuGqO2URhnIOJUSEfd+TajfkATNVicyvPGPoSb9YLFCtVvH69Wt8//33OD8/NwpitVo19Nnr9R48o6Nyw7CN+al5jk9ks1KpZM4nnfEctkdewiDzUvbXJ3OGvr7ua7vPfyvoMQbFd0gv0WgUGxsbxgNGL5Azp0hAwmrZ3/f396hJeXPS61RCuti2kMSwmgamUokqqnKFUN4k/6ShZKYSo/usBfq5OBJQh0xKuP6aVP6l9yMdBWhAoOxak/yY5Al6LLiuawz3nDfYbhqa19ptq/vW5skcF78E+36PgeOPujrnB58kz6Xutbu7+4BHaTmdjgyDwcDQMOUX9lc+nwdkoZd9en5+/sAAStlCb36/3/Bxzuuav5Help1rt8Fjbc7Px877pd8aH9wYw5fnwBhLRRiWO6PgRyKOxWJGsT48PMTm5iYKUuaaSlwqlUJSEuL5JLkPPVZIpLR+kcAAoCduwjSk3N/fm8RMdP8mc61K7fRGo2GIlgpjS+IHaYThMTyvJ541VEI1o9fC8+eAVfuabT6WeNxGo2EMYlD9a7eBbgcSuBb2yBRJGD5xZeM40BMmXQXp+usXzwsKXCTGLwE2I+B3+/1s5uyKMEKDzERiXnlsWGI+k5IcmAJfqVTC1dUVzs7OcH5+jnK5jEqlgmq1alyle+LWP5IcQJz8IIIHy3jS5XchK4Kkr1arZQRi0i8kWz0t7ww1tF069TvyffT/j20ePHwILBtz+rejjNA+SWqtlUEKFBEp0+r3+5FOp5FOp5GQPE0LVQnEEV7rShJKbWDlnErDaEhVWuKKM5XHzc1NbEiySBoJbJ7CZ7ffkfv1fxrc977nQvs+j4FzC9sd6pn0nOGTXAJhCTHRgriWT+LxOFxZjWXbj0YjXFxc4O7uDrVaDf1+H3NZOAKAWCyG9fV1PH/+3HjF+EQx63Q6JjdQs9k0sg3Hhc/nM7m6MpkMUlL5Q8P+/di+ZbD7D6rvOT/zOPs8+7e9731h1es6SjC3lVz200hVE5wrzy6feGnE43HkcjnkcjlsSZLl3d1dkxNoLgloK5UKepKw03VdxGIx47q/JiWXHcdBvV7Hzc0NLi4ucHFxYUKkuNockPxoWnnN5/Pm2Reyyl+TXDKUt+LxONJSuZB9aPcB31srVB8Dul9Ig9zPz7HkqGCIQq/XM4oc22qh8nz0ej2T7LgmiZgdCbckbXW7XVxeXprz5yrVQEC8zLj4s7a2hsVigbZUsmSVLa13tCUfYlvyiVAOmkoIDNtf9wPlUX5Op1ND6zTGs38gfRQOh1EsFo0cRX7BtuK2bN9vBb6fPc5IO0EpYUwZkLwqKongYSXn7UoREC6QNxoN0z9sq4Us4IckIbpt/ITw1phKmk4jAj2ZarUa6vW6mTMh3oD6XpSHueC7JjltOC/qnCh68ZfPUZXqbDRAkCYJGmOy2SySySSwAr/U44lYdvyqNL3s3GVgH7Of2b9h8RKid1Mul0NEwp0XYtAiz6Xu3JViBVO1GMzrR6NRDMUTmDp4uVx+cB6WLOI4jvNA53atfEP+JcU62I52G5An6WOWHf9LfUAs+++DG2MIdt5IYj+vrq7Q6XQMs2JjcQWPKwi0/tLCFpGKLD5Zxev3+yiXy6jX6+hIGUoSOBvNFQWU1lAyde0Z05A4fTLXniTw60kZbU52I1XtaTAYoC8VhGikaTQa6IkLcVesoVPJeM+BTIbyOWDV52Q7z2SVqakSPC3EEkni1cTMTRMtv5OgeB77n4yRzPHg4ADrUlpuTbkK6+vOZRVy1ff51LGMGdj/Ea5SziBW+4m4dQ4lURyZpWZYc/F0qkj56aurK9zc3BhLP91CR2J8oVBEJhYRV+mAJOaiEpPNZhGRpIb1ev0B/Y2lNKzud640b2xsYG9v74FiCDX2YBljPHj4lMD5yN7HT017FDq0gMkVxnQ6jaRUjKNQHo1GjZGV/JbzTELc7Xcl4TZ5ZDweNwJxRmLWE4kEEokEstnsA0OMXvUjyMftd4JlsNF83qbTx87/e7Dq9ZY9C6zzQ5K7xXVdJCQMdl2S825tbSGv4tMDgcCD1c/ZbIZ2u42zszMjTA4lH8lkMkEwGEQ6nca2lC+nYcwVhaFWq+H29hZVKSE6V4lLg+JRc3h4+KA/7Xe3fz+2bxnYLrptYJ2/rM3s69u/3ydWvbZP5EVufvG8ZV/RCEOljmPDL2EwNMJx1Xdvbw/7+/vI5/MIBoMYj8dotVqoVqu4V0nx/X4/UqmUUUJjUjGlXq+bKpOshqbnTr+EFW5K7qFNqU4YkbK5HAuj0Qj1eh1DSZA6mUwQkXLPAVW1hHMiadBR8hfb52NAPwflEz4T/xuq0HcarBaicOs2m4rHxHA4RFUSm/clN0VCKjNRQez1eri+vsZEhc37xSuGxmh6v2WzWfjEIDuQpK4jKxfK1PLeGUj4G/m3T3ndOMpgomlrMpmYoiYDKVZij4moJDjlgmNUUjToNuPnsu+/BVyVn4f34XP7xJBJvY2L6GHJzemqBVhuzWbTLG7TsOmoXKGk2YBa1J2ofE4cN5FIBDEJXeMiw0LlNaTcSR0U4pHKZ2ZemzUJv1mXktfr6+vYkiTrdBLgAgnfnVulUjHGGIYX63bSxphEImH+s/uLz8fvq/TvqjS97NzH4FjjNiQ5c3ToHHmcX3JUal2OzgsdKcgzU7mcOGb84l1IXZ26fU+8nshX+Qyu0iEHqtrgXJwD2L9B8bzR572tvdnmemzrNtefvwYf3BjDl/aJckdF/erqCl2pOQ4lnNArhq6/bLy5rCY5MnEOBgO0JOP81dUVqtUquhK3ScMNB/5cXNv6kt1bG0k4iWnrKLGQeGzdmbqTOABm4upIYw2NOVRWB7Lav1CrcLZg+6li1b4m4ZPZNSS3AScqWigXytDCjYSjmRj7zCdGmLAk/UpLziAyR7re5/N5w9DCks1cX9NR7qJfAvR7aMZgf+dYddRqCWmpp1xqKYByzPelokOtVjMeYxQSuMqhmTK/U+Bgn4Uk0TaNrFzJDYVCGA6HxhONDHcmK4J8Zr/fj4xUSNiSJMJ0B9fvxWfnc3jw8KlB06cNjmPSTl9i5YeSy8J1XcTjcWSzWRSlpPyTJ09MyF44HDYLAzSK+kSoTKVSJu/a1taWMRxoRY1eMul0GhlVCWFNVvJjsZjhn6RLzWv0XEh+zm0q+Rv0c+ntfeOxNrah+ZbdN47MF/RECgaDJjxgSyoy0ihMXgQR5kNS0WYymaBWq+Hs7MzIJ+SzrnhMUMHf3d1FRCWi7HQ6xmuXXjELEVZDUhr56OgIz58/N/NeSHJs8PntT/sdfwl2e3Cz+0/LRBr2M/wWWPXajozRuayShiXvAw0y3E+DBt8tJp7aXAg4Pj423pn5fB6O46AlSXfpYd2WXD5+v98oopRL5vO5MdDRw5TzHudVyoc0uNIQE4/HAZGVITIXvUYoZ44ksTMVUM7Bup/mYhxgm/BaHwN8Blcp9Pr3QgwnLVXRZjweG97F9iINLkQh7/f7mEmYUDgcRkHKzFNR7Pf7uL6+fqCsUabhSn9BysynpdAH+5JtRTmK59JQw34YqfyGvC75O8cXaYpy183NjfGsIb2zj/x+P+LxOHZ3d1GQ8r/0xsASpVHT36p08muhx4+rkqb6ZE6jcUMvput3cxRfoTxIwxZ1Q82LeT+OE35yXprL4iuNBalUyuhvI2WMqdfrD4wx3W4XUVXNa3Nz0+S0IS2ur69jQ3Inci7V7esqb3wafDgu+Hw8Pp/PP/CstPtNX5OgPvO2fn3bfzZWPU7rUhzH5G1pSdwbk7wtkDHBuZ+yABdf2+02hsMhXAkfc5X8sFgsjONEXXLELMTzjf+ThqD0cN6DvydiPKX8FJRiPvq8x9qRY9NZ4vFlH2v/tqH7Dur4j2KM4TaThEy1Wg2Xl5foSewXiTCTyRj33+3tbeN2y0bt9XpmJYHJQs/Pz3F9fY1Go4GhJCPlpDcTD4CpeKaEVSk1rnBtbm5iW7Iw0xWUK45U8HOSXClolU1zJI44FAqZLSChGY4whKG4WzWbTbO6xYn2c8Cqfa0Hreu6xl2MhMgBObe8MNh+URV6lJSM+uyf3d1d7O/v4/DwEEdHR3j69KmpJ7+7u4uYckfkpDxXifd4jy8Jdr/o3xybUBM0lhgPe72eWUEajUbwq0oBYwk3o1fYTCzYnHjYj/z0qRWQeDxuVpELUlmEfbirYmsdEWSZT4H8QDPzSCSCLUnUvSXhaBSoOKZ8IrQtY56/tHnw8FtDjzV7zHEM89NRCUT9krsgkUhgY2MDx8fHODo6wtHREZ49e4b9/X1jiJlOpw+UFfI/CrAJ8S5zHAdNlaOpI7lHuIAwUqvu5AUDSXZKz9OpCnOkF2hDQnV16CIFXgrXLQllhPBlCqbvG6teUwvv5I0Uwnzi1k5+xhXSdXFLz2azhk9R4JxOp0ZZmE6naLfbJgyl3W5jJF5LrusaRfvg4AD7+/sPDMyTycR4TjChJ5W+UCiEfD6Pg4MDk1idCgGFTHu82duqmKgEvnhE2XNUJRktdNr3/63wLtfWNBYQgz8VCiqLetGHrvdMmvvVV19hZ2fHeDDNJMfH69evcXp6akqPc65kf7bbbcyUxzAXEJvNJlwxytGww3b0S0jH9va28YIISsn5mHgWLBYL1Ot13N3dGRruS7LTgKo4StmU8/VcvEB8yqOCY+dDg/3HuZvPSBqcyiJqq9VCXcKZJ5OJUQY5JvX7kEcFxcMlJ8UIdnd3jTI2Go1wdXVlFmUXYjxzJBQ0k8lgU4qEBMVgF41GTThJWFXpZH9D2pE6wFjCpmhY4TgLWdUkXVHeh8Mhrq+vUa/XTT9yPLiiTCaTSTx58gRra2vGAMtxZtOlpr13oZN3hb4PlDFG0xvbh3PKRLwXOA9AVcd68+aNCdci79PjhIveNHTx+hwPrhhcHFW9rFAoGH49sowxfFb2R6FQwO7u7gNdg8b3jOT04rhzJepiLgZOPuNc9E8alTi/2nNeoVB4YIyB1Y/8rTGXMKplxyzb90tY9TiOddJmSAxdiUQC8Xj8wVjke/YkuqTT6ZgFhrrkwyLdkJZcFZY3VpWrHJGJ9Hiyn5ljjjQGyTnTl1QMrspHS/mKff7Y9fg/+3rZcRr2f3xefhI87oMaY3gcP+fzuTHGXF9fYyBxkSRICj4RCW+YTCaoVCpmxaFSqZgkuuVyGdVqFe12GwOVndkRxsyOnIlLUy6XM4ohV9h3dnaM4Yfxfwx1yUuW63w+j2KxiKyEVoTEjVhPbPYg8akVIz350RCUyWSQTqcftNWnilX7mgI8330k2eAp7NC9nsYtWoS1+5+Ow6SRTPfRpuSDyUsWeS2EaibHSUz3xZeGZf1i73OUcMcxqhnLdDpFV/IsURixGQ/pie3olyz3PhULnE6njSvnxsaG6UMaOXUsKYXKhQoxZFwwhRafGFccEYx2JS6/IOESpEHNTElrX2p/e/i8occplGFU06bmWwFJlEdDABcLKIRzfmy1WqhUKihLzrO2JIilUONXruCk91KphKrKi1YqlXBzc2MS0nN/RSoA8dplycFA9/H7+/sHGz05mHSxIbHePK8l7vt8Nyo57xs2H3wMmsfxt/3pyBzC543Iyi6P0W1NBXgheQ/upUTx7e2t4W2UdfL5vDFQb2xsPFAkptMpGo0GSqWSCQmlNwA9h3cl5CwhSR/t97HfYdU20SAPJk91FJ+lQjWUsCvNc5fd/7fCqte2n8eeI3yiXHBOY2gR56/19XUkJU/ZaDRCu91GpVIxxrZqtYqOhN3zXgtZ+KACM5FqaVQiKRtFo1GEw2FjRICUqd6UKi1ra2tmAYKrvAPJFcPx1ZMcNTPlDUIlKSahGnyeuZS2t9vkY4BjivM+fzvK+24s3j9U5EaSMwIid05VqoO5ysdED4e85Mva2NhANBo19Hl9fW2MMa7oIY7IHNozwr8klw3vO5JwJc0DqOwtlJd3KBQyHmxcOOR1qLgPh0Nj0KNupLdAIIBUKoWjoyPkcjnjlcfnYz/qftWwf78vLLsun0PLk3NVqY86EQ1XQxWWeXJygkqlgrZU1yRN6HlM63vknbwPx0EikTA6Rl7CCd23eMaQz69JOD1lzoTkGmKfc5tIpS7Kw1p+Zr/SgNjpdNDv93/GJ9ckB01GKhvqPlzWrnw3+7hlxy7btwyrHsdxqOcDfS7fmXTR7XaNfE+Zo1wuo9FomIUJth1pxRWjiU9FRKQl/yfvyWexn5t8zac85SELUgkJveY4YD881n58V0fxIXuzofuWcJUhht95/gc3xvBYR5S/Xq9njDF6ItcDbC4W0lqt9iBXBYU6vco2FWGIDa+vx4ETjUYfKPc0xNDwkpMyn1wN0Vsmk0E2m0VaEiVSkSQx8v52o3NgskNTqRTySzJnf+pYta/JMEk0czHOhFTsZS6XexBeRMVdK/D8L5/Pm9VIMqtkMol4PP6A+bpqEsVbrJHLiPdzxmPvYu/XTMlZ4mJOGuJY5fF6TAfEJTgoHkY0rHHS2t7eNskMaTTb2NgwnjF5yatAJjsTD7lqtYrLy0vUpGQ8hRqOH9IucwJlpVQ5J3C+E8cBJ2ctPHnw8LGxjCaXbaQ7R1aCglK9JSahEilxtZ7JKnu9Xke5XDbV/yjEk/fy3hQeh5K4kHHYTUlCTwMMPWb0VhdXYW4UqHSiexpv+NmQZNztdtvsa6n8DbFYDNFo9MEq1vuE3d5vA+cFbpDz2SeEzTehVnmhPDD9fj9GEqZbKpVMGVxtwA4EAia8dkcqMGn5ZTabodFo4P7+3ri3j8fjB3IM80ZQwYAlb+nf9v5VYZ/vKIWKq479ft+siNr3+HvuvSpWvbb9HqQ3tp1PjDF+8aBOJpPIStLdXC6HmIQQcZW3KslFWQyCXmOQ+dKRVfaFGOCglBVXFOuwhEn5VBntmYTpJhIJ7O3t4fDwENlsFqFQCHPxnuhK8lEm1a/VakY55XimMSYlRS/i8fiD+/O+v3X//BLYF64KU+J+/p5MJmhKAt9ms4mphP04SunV7+JToUaUuTck91UoFMJkMjFeawOpvMJ+cpRnDGVVbXyFMnDPVO69uUocy/5nf7qSv4SeFfRogfIUJ39mTr6hhHDoLRAIIJ1O4+joCBmpVEN5W/Mq4kP1q30f3Yd6fLE92E5hCduaSULlcrlsjIsdycszFeNmQIWk6fv4xaBj32uxWCCbzRq9gnOnK8aYbreLqnhsTlWS5bBUE6Welkql4JfcJ0PJEcTFfy72s2+ol/D+C1VNqS2VQu0xTv2GnjH6Pex2hdItscRT0cayfcuw6nEcY3oO5NgkHZJH0Qh1fX1tqppRd+9KehJHDNvkf+RflPFD4tmXyWQe0DiPhRpjmk40Xw8EAkb/ZL+GVWjfY+3HazlLDPePwb6GhqZP3u+DG2P051SMMXXJIj8S7wmIWxKJdaDywegVO1rF+xJLP1OJfLDkhX0ywWYyGRwcHBjhZ1NicJOSTCoSiZgtHA6b1YpYLGZCLrgFpOwlVznINHl/Pam6YiiIxWIm3pBeNr+FEPpbYNW+nog7GfvDEYUiGo2aSTEvMfcbGxsoFosoSHUB/peXsDCuIFAoovswGTKJkYJF4JHVVfvZ7d+PgURowx5fHxNvu7/+TzMm9otPxfHSjY+un/aESWaWTCbNauH+/j42JbEgV3cPDg6MKycNadFoFFFx23dlEmRYAw2yZ2dnZuWXwiykrYOS4PLo6AjFYtEYQykMEY61uqYnbA8e3hUcW2+jMUKPQ1jn6HlBb3qfBvdxHENN3AExQPYkSWSlUsHd3Z0xxFSlih/nHX3NkeQvoDBJwZAbFzYGkpB+ICHBXSlDyY1zNw057XbbhDp1JPF910rszX0UrF1JhBuPxxGXBMLEKu29Kla5lu5nHs/vdn9xnz6XfJIKAfuoraqu3N7eot1uw1UKeDQaNbxzfX0dsVjsgYJJY0xZ8olQ1kmn09iVBLIFyRnhe0vyTvv3u4JCtz53Jiv4XSla0Ov1zEo/j32sXX8LrHpd+zmoBPNZ2YeUGePxuFmQo6w2Ho+N1xeNoPdSbnUsVUFpRNVjh14p/E1Fg3ILZRnKM9FoFLlcDgcHB9je3kYoFMJUwt7oPXB7e2s8xOlF4Yiiwntw3uZGucm1jDEfExwvrmWM4X8Q2ZI8ryP5dcgf2Y+UDYPKW5eeLdqr1id5djqdDu7u7h6EMVBu0J4xBQlv0TKF1jkg4RA0eFPJ9CkDmyv5vra2tsxCbEDyZPD5Z7MZRqORMcbYnjEQ40Umk8GTJ0+MhzDvxWOID9mv+l58DtI+/+P45Cd5IYSums0m7u7ucH5+jqYU/yB/DShPSo5b9kFAKl/RY5H7Q6EQ1iW/F71bSG/sf+qU2hgTlZBe6hyO42A4HKItBVq49SVEdyQeHtRPOC7Yp7Yxxr8kZ4z2jIFlZNFg+83E+419bx+r+2BVrHIs78ONY5PjfCp54WjoLEs4Jp0o6OlEenPE0Mo2c0R/TEmp84SqYuWonJ+8F99T8w0ayGAZYvTCMOnGficN3YZ/rz6haRi6fxeLxUOq/Q3BjqICTevn6ekp/uM//gPNZtN0zHQ6NRYrPeA4yUMEATI3Tp6RSMScT0E0HA5jJDkwkskkdnd38Ze//AW7u7vIqlhvEgwHhiYUdo494GazGW5ubvDmzRucnJzg9vYWkE6bzWbGqOSIhT2bzWJrawt/+tOfsLm5iayEO72PTv6UoIWNt0ETjj6e35cRgR7M+jt/O5agjBWsxm+DJmaCgsxcxbkuu++nBv3uC1mB4STmui5ev36N169f4+TkBJeXl4C0HSfLZDKJnZ0d4+lCTzG2O4+lwDpTyaznaiWvo7Kh0yDDVXOfWjHmOSHJjXB4eIi//OUvyEtoGidwjWV9QJ7hwcO7Yr5k5WkZKCyS9/mUkMg5g/MLhBZ5DK9p88K5uNnTG4Ibld++5HFqNBrGgEkBhPMT+dRc8kv0VTLLuIQB89i5rDhxXv0l6PZY1i7cFxSvHl6X/CIQCGB7exsvXrzAs2fPsLW19UCB4fUdxVt5vj1f6v81lj3X3wvXKpPJfqSAyGNGkvPg/PzcKFb0muDC0Pb2Nv75n/8ZaxJ+Qt5J/tfr9fDq1Sv89a9/NeHc0WgUh4eHePbsGXZ2dpDP5xFWCWg55laBHo/608ZCvLT4HTI+tTeV67rY3d3FxsYG0hJ63e124RfFOCj5c9h/H4svc/zxfUayEKj7cCq5BTnOSLszMUA1m02cnp4axaIrHioDScwZknwgMyu3QiAQwEQ8VzhupuJZ7VNeHKVSCfF4HOvr69jb28NXX32FdDqNroS8XV1doVQqmUUTqNxLnHNHEsITDoexvr6Ow8ND/OEPf8BXX30FR+Vk0XyKbfOx4IpRIihe5+RhAWXcPDs7ww8//ICzszN0Oh1zHvUH8jXK3BsbG8aYlcvlAOUxT6/C//W//pfxPptK2NhisTBGz6+++govXrxAUDyCqTeQX81FVnn9+jV+/PFHUwlpPB4jnU4bfjCbzXBwcID//t//O7a2toxXC8cWP5vNJv73//7fOD09RVPyCc1Urr50Oo2DgwP8t//235CTXGGQvv4UwLHkPsKXNf8mLc7E8Hx3d4ezszO8fv0aPQm5o3GL8qWWETlGYrEYdnZ2UCgUzCLAbDZDJpPB3t4eMuKRXygUABkDLanm+9e//hWnp6dm/nRd17RrRLw2KSfPlfGWfU+eXiwW8ec//xmFQgHxeBx+0Xc7nQ5evnyJk5MT3NzcoFqtGkMA2+n4+BjPnj3D8fExNjc34fyCHsrxS7onHWta5vGBRxapbdj9pHmB/u4qPZjXJz/n+CWvYg6tgUpEPRUvUvIh8lufyP9RKfSxubmJnORp5fw4nU7RbDYfLHJMVO6ooBjAO50O5ioskA4YOzs7WF9fR0Zys+m2fV/gWNXXnoscxvmTtOy8L8+YVcFOppA1kQounMzZGWTCWrjQjcyBNp/PEYlEAKUcQ72wfmlem6sMmgnaAxeKOdidxOs5KjZxOByi0+kYaycnWE0UEcmTkpXqFzs7O8b6yXf6kmAT9GOw2/cxuEr4JfFDKTT89ClFgmPC3tjXj7U5r62voccHmb9mQqu+x6cCPq9rGR6nqvQcmeVChHBNO3kpMc8VgLEk+G1KycnLy0u8efMGL1++xHfffYfvvvsO//qv/4pvv/0Wr169wsnJiREmq5LraShhSZp2XTGm5iXOm0mb6Wa6Kj6nvvHwaUErKguV98GeVLlxXtBzAPkTJFRTz2vkbaQhepZUKhXc3t7i5uYGZ2dnODs7w+npKU5PT3F+fm5cuCtS7pPeLBNVnpU8i/NnOp029E6lggImnzEk4RlUnn9pC6iwRb1RGQ0KnVIBJS9dKGPw/9feezU3kiRbwicTmlAEAVDLYonpnpazM2b3ZXd/+96ne233TvdMT1eXptYCiiA08nv4/MR1RCdIsIqluuKYpRFMJDIjI9w9PDxccK6PSR4Wyid92Bgnv22E/fZdwXHlZ/YpRBHtSv6Uer2Ovb29kXGKRCLISELzxcVFrK2tGY8Yjgfb3BfPYHoFX0nC46mpKRPaa+sRbM9doK8f91vSCMeP9E0De1Uq8dF7lePI+cN+hn3uQ4LP5ftADIZ8J08WhgMJka9LKNLR0REODg6wu7uLnZ0dE3bGhcfV1RW64hXMe9OASp70xRuDsiNilTiG0jFyUlxiQXIbpiV0IRD9N5AFvjbEksf4fuTlpORgLBQKKJVK8JVM0zTzscZEg/TF9vF/iOGMa4aaJEOm/ImLgZM5lB48eIBvvvkG6+vrJgSQPMb7DSTUbmtrC81m04wN+4eeMfTcprwj/wfKyBZR+Snb4oHYF499T4VMMf8PN5QoI3m/fr+PKym3rT2tiIh42HODivzPZ3zsMdT0p+lKHzzH69uSiuLw8NDw14HKrxWTBMzsM09teHe7XSMTV6SyIL1MyuWyCeWkJxLH3lM5n46Pj1GpVAy9DQYDNKTSLg9uHFarVTNPU/bVajV0Oh1EIhGUpOw850dfkk+fqWT2NKLosZqR/Jk0Pujx1P2moeWr/t7u77DfTgL7nvbnQBlweQRibBlKLkhutFI+0rDmqXU0eYi8xhDcpaWlkagJhnBFxVjKuZbylDKD+llC8swsSG61+fl5s5mr+e5t+2cctFzVfQU1Nvr7j2KMISO0pLIQXay7qkRfXzIhp1Ip46JUkGSvecnXMiXlNWEZY0gMBIVqPB5HJpMxxpBcLmeYWiuu7CBbqJHo7PdoNBqoSLx9rVbDwEqoNBSLbd7Kq6HzZtw3IXxs2Mx52zEJ9Jjav9H3se+tx1MfZFb74Bjzs1aW9Hd8lq1IfcrQwoDQ9Mf34DtTGe1KkjV+12w2jev88fEx9vb2sL+/j8PDQxM7z1wSp6enRhC3pHQ8d+14765yVdR96Us50WKxiPn5eRNSSMVD04SGvs/nMjYOnyZIO+R7zfu+pZAHKqFpTyX1a0lI0JUK96FSd3l5ibOzM5P0liEHmo8YmktFjrxERZQLCM0PvvLWoGFkKAYQXkse0r/1VTWyuxz8jZaj/MzFpafci/l9REq0piW5aE6qJtqHDfb9bQj77buCbQqUEYtytCcJC6+vr00eDyr6g8HAuEkvLi6aXbpsNmuUd+oVkE2kZrOJI0mq3Gq14Ps+0um0CbmYDik1flfYv7H/h5rT+ZntbIux4uLiAvV63bj1pyShPukDlhI66fi9L3D82DaO33A4xLUkxCVf6h3Y/f19w6Nnkqi3K14tQ1HA9YI9CPGc6isPbG0Y0LySTqdRLBaNIWZ2dhYpSdKq+5D3h/IW56FlFUPEtTEGSna9Le28D2j6oizh/51OxxhjqlJdB4pms9msyQ2yuLiI1dVVs6vO/me/BGL4aLfbePPmzcTGmIjy6uK1mjeGskikfO6r0s5JqQjJhNs0Dtm/rdfr2N/fN4t8DRomyuUy1tbWMKVKCGMM/34okJ8wRg/TbfPUwr0hyeTJZ/RSgiRfpoeTTuvQU17XXHQz/xbD8RjeksvlkJS8OmyDp4wxNKpyLRio5LiQceaY6nHl2A7FYJTL5YzhlDLdFwPsfRtj2E77O/1+vMfbIuy+GroNmg/It6Rlykndt1qGBVJJjmvkZSnUUi6XkZNcV1MSgkZdpiMbWFcSks1nkgbJJ8ViEaurq1hdXUVZcjVxswCqn+4TWi6E3du3vKLffoTeAjZRUGnlwkwv+KiUcRG2urqKzc1NPHr0CI8ePTJlPbNSRYeLMz6Hi0m+LBVSGnf0b0gYeuKyO48DTKbTBKUnPr4TCQPS6QkJ8ZiZmTGMRkOMw+0g7ZCAbSLn2AQqu/e4w/7duIPP1QfBdlBB0L/5lGG3U/cDJD56Rip0cCcpJiU0m1JSkonVXrx4gV9//RU//fQT/vnPf+LXX381Xi87OzsmdwV3DbtiEafC2Jcd5I7sGvYlHIxjRKSkCkJBEmdrxcXB4UOCckDPLYHsfjNkqCplV09OTswiend3F1tbW3jz5g2eP3+Op0+f4tmzZ/jtt9/w7Nkzc/z222/mePnyJba3t7G3tzey+07vl6HaEeNcw3bphbk+15aQBk9VaIopLxbtzcIF5U2Hnmdvkq323MprtIJLQ+3nAM71gaWEBqJ80ktwf3/f7OB3xY29XC5jeXkZq6urRtnkIsHuw6FVHAASvsRcBlNS1lgbcWwZf9+w50eILsdFTUPyBHEBSVpkn+n3+1jQz+e7BKLPtVotnJ6eYmtrC8+ePcPTp0/x/PlzvHr1Cm/evBnhyXq9PrJ4Jy/pOYq8xnAH8qKvFvN2fw6HQxQlpx4LGNBzivMhd/wfPHhgcrTlpToh70EahUoq7cnmo+bJTwk27YbRiz1++l3jUlSgKBU68/k8kuIBz+toDLPvNQnC2sN7+b6PbDZrvJnoucZrPElXkMlkkJKqWaQVyL0DMU60Ja+WlvM8IhIGpw24nsghu/8+NML61W4/D75rS/KwcENCh/txM07TOnMGUrZExIuK8iUpkQgMo+fGO3nOht1W/tW8TLrRYxKVdeW0JISdmZlBoVBASkrIax1B8+J9gWOu3ysI0fH1+903eG/9XPYN173MtzQjSZDTkoOHPMk1QTweRy6XQ7lcxuLiIpaWllAUL3zSekxCnqmnjNNBSDvT09Pmfiz8wY2C99kvN4Ft1M8Pp8z3BBIOlADlgkwbMGKxGGZnZ7EoJafX19fx8OFDfPXVV/jqq6/w5MkTPHr0CJubm8b6yMmNg8AJjwNEpqESowfDnrTYVk1k/MtjKEaZtuzut1WJwq7s9OsJLyHZ7LmonJJs/A6TwVMVRfQiQBMzx0UT+riD96Qg85VxRZ/j5EYhPFCx2WyPZ+2wfcoIayfpH6I4ay807ib4qupRpVLBuZS65c4vvWKYBK2mSswHqsLVTf3P7/TYRiXpVj6fx7RU0KKyGfYuvK+Dw32D9BoVIwbnD9t7YXd3F9vb23j9+jVevHiB3377DU+fPsWvv/6Kf/3rX/jpp5/w888/4x//+Af+9a9/4bfffsOLFy/w+vVrbG9vm/CHo6Mj421A4wvlFBd98XgciUQCCUkEOyWVifSii4oOF5qBhP5xl5y7cSWp5DAj1QQnPbjryF1IerhwsUHFKaq8Bcij1AH0vPmpI1DeT5Q/fB8tI8/OzrC3t2cKDcRiMRQKhd8ZYvSigjKN9+Pcozd3osoYQ6VW9+s4uTgOYfKS97DvM+5cX/Ko1FW4Ng1rvmV00HPApwD9Pp1OB9VqFXt7eyPG0jdv3pgKIHWVRDmicsP4KteZJ3olF/1abpB3Y7JjTh6F6BXkZbroz8/PY0ZyV/gSRpiRMLelpSU8efIEX331FR4+fIiVlRWzeOFikLrv1NSUOc8x0HOv3RefGthmtjWszZ4soKkzZLNZBGIgtT0a9O/u8t66DYEyNPO7pFRfovfL3NycWW9wHLiJTLmo7zsUA6zWn/S7kwaSEjlAWc/jLu9y3wiTD+wr+xxpvyM50M7Pz3EiCbEbjQaCIEA+n8f8/DxWVlbw4MEDPHr0yHg3ZKSAQ1Ql/9VGa86TCTFWs2/1eLEt+rPuZ/6W6wJPdFJt7CmVSnj48KFxElhbW0OpVEI6nTZyIVBhO/cJL8QzX4+BPv++oO+vn016z+fzWF1dxdraGtbW1rAslYtpOGbfdDodM7flcjnk83nk83nDO4EyaAVqTRbWr+QRhnmWy2WUy+UPaogJu789NhofNIEvVAOGwyEqlQoOpI788+fPMRBXs2KxiK+//hp5FY5ExW4oMWjVahWVSgX/8R//YXYMW62WmRyhLJnsgOnpaSwvL+Obb77B119/bQwiVBIiKkbVJmKeJzFwEru8vMTOzg62trawvb2No6MjdLtdM+lGpLQlPXsePHhgEgfrew8kidofBSS422D3sf1ZE+6k/cPx1gfHUx82qDzpxQvptC0l1xKqohONFBAl3HtHd8APAW104f98T05eUBnmt7a28OrVKxwdHaEiZSSpRHoyubXb7dD+hJp0fd9HpVKBJ8pSMpk0CzitlHiSS4oKUywWw9LSkqkaMiPJ98izmmbYBvuvg8PbIpBJn8qc/R2VSBolqfAzhIibDFQcaFSByuNCucY5hgtvHr5yZ9UHeTAej5vFGkQhvb6+RqVSwdXVlbkHF4PcMS5KlTMu8shP5K1JoGUsZQnnXX4OggDXUrWJ53Q/RaNRE7q7urqKH374YeT9eLBNfJ49H+jvNexxe1dwjKDyCXkSenJycjJS8fHNmzcYDodIpVIoFosmh8XMzAxSqRR8FS7Ld+ZYDaXIwcnJCX755Rc8ffoUzWYT6XQaq6ur+Mtf/mJCnCjPSTO817vA7keC9MG54ujoCC9fvsQvv/yC/f19k6tjc3MTm5ub8KQCSV9ye6SkYta4+38IkAcJ0lKz2cTp6Sn++c9/4h//+IeZ86hX6j4NVHgP+Zv0MLRynxGeJM3m95QN0WgUOanWlJWQmu+++w4lSZKfyWQwlEW6Z4U2QUL+a1Jd6VxKx+tQCHoXzM7OmjCAqPLOIchb980zdwFpmAs16vD8v1ar4fXr1/jXv/6Fra0tNBoN+GIISyQSWF1dxddff4319XVMT0+jWq3i+vp65JpkMompqSkEQWAM6ZMm8E1LvgpPGU48tYkUiPEHksKARvlOp4NEIoFSqYTHjx9jbW3NLDLZ50NZ35yenhpDfq1WQ1sSTAeSo7BYLGJlZQVPnjzBn/70pxEZPviIa4lArZ/IG/b3/Ov7Pur1upk/d3Z28Pr1a1xeXmIgyeYXFxexsbGBZal6Oz8/j2q1ipcvX+LFixfY3t5GvV4fmdu++uor/PWvf0VakucGVsgb5RfbWKvVsLu7i59//hlv3rwxc/ZADO58D1/m4ZQkltWbEA8fPkRE9Oes5AYlSCPHx8d48+aNSeZ+Hwl89TN4Tr8bD/5mEtjX6TG0xxNyPXmUbSQt6nP7+/uoS4h1rVbDgVR+vJaqjd1uFwsLC3jw4IFZJ5fLZUQkIflQ6ULD4RAHBwemP4+OjkaMl7FYDOl0GhsbG1iUClpra2vI5/OGJgZWYYb7Rl/liuIYs5+gvJjN/x86Zww7gI3jwCUSCczOzhqFbH19HaVSCblczlh/fd/H9fU1Li8vjQv49vY2riTbNgV4VGXYJmNxEZnL5cyEREHYVwtpEhDbZref4PXMeUNvgE6nA1+EfkyMMb1eb8TllDGPnJCHKpzpS4PdxzeBir09DjZI/PwuUIY0Hv1+37hT1+t1VKvVkbwNR5KzgVnd9/b2cCqlFHvK8k5hqp/7OUDTGico0iG/57vxu57s1tAFnQtL7sxG1MKE9yKfRCIRXF9fIy4uxOVyGevr61hbWzO7xPNSoWlRyr4zVn51dRWzs7PIqtKt+uBz7HGw6cDB4W0wFEOlp5Sm4XCIVquFi4sL7O/vm2oB51K6sirloWmQoZwPVKU/zXf6e849/J9KHndCMxIDPTc3N7JruLS0hNnZWUxLPDQXeuTBaDSKrORTWJZSyqwqQI8YhgKy/OttB92Py5JPoSRJ9viZx6wkmy2LqzK9b+gpOjs7a84Vi8Xf8W8YD086X4b99l3gqYUXJG/B9fW1SVy+s7ODfSnl2W63kclkMD8/j7W1NTx48ADLy8vGEDOUMC2+C8eeSlpX4u25Y9yTKpOlUgmrq6vIS0lb3Re8x9u+N2WqnmcJ3jOQxdRgMEBFygwfHR2h0WggKjvVaSkjGpHcY5BNAK2AfizoxQPnLCi9tCmVWLoqdJ58r/9Sl4hIUua8lF7VXmPctOnJLi55XPN8KpUyvLyxsYH19XUsLi6O/H4YUu0TyrDEhSD5jTxHnbosITvc4LR1AD0mb0s77wpNe1rmQhnM2hIOd3FxgWq1ajyweC1prCslsF++fIm9vT2Tt45rARoFufG0t7dndJvhDTljuBbhM9lejinbGxVPwLh45HN9Q/1G644cwyAI0JJKXfv7+zg5OUFbyiWT7hKJhAklJ42wr4iPNX6Qd6H80e1g+7UOfipJ6uldfXFxYTazuXm+vr6OeanOFovFcHV1hRPJRXgpZb9h0f/c3NwIfWu9lOPD9nH8T05OUK1WR9YZpJUplfOTm4NMEr0s1ezSkvcsnU7/bm4KRKZQN9CGUt1H9FKdmTBnDJS8J+zf8Nzbwr53GNhfYdDyNZVKGc+UdruNZrNpaN9T/MvrSUtQxotIJIK6FDg4OTnB2dmZ4etA5iVu9q6trRnayamiH0O13qFceR/QY0D5rWWE/v6DG2N0x0dk8UZFkzt2ZUnYw0GjUOyICykn/oODAxwfH49Yw6ZUIisyvqeS6OokUIGK76bSqolKd1QYgiAwGfbpWteV8lp8Nz6bAqIsyYMiyiMnUBPPHwXsu9uOu0Bfz37Twp0Cvic70O12G61Wyxhc9FGr1Yx1+uzsDKenpyYZ7Ykk7DuVcp0U+nVxT4ZywWOInN2+TxVaYLK9N7WbQouKY192hFOSe4lKCkP/uDCg0OHfwWCAlFRjWlhYwNraGh4/fmxc9bkI5E5DWpJ253I5TE9Pm8UL72e3WdPT29KXg8M4UJYHakOh3++jLolLGVJEI6X2gPGtEEhPdra5aIiIh0xUVQTh7i15TBs15ubmsLS0ZBLcLS4uGkMHF2+eeCNQXvEZWYnfnpcElwyZTUoZWLplk595/i5HSsKlpqamRvhY8/i0lBgtSnWEUqmEgsT2ZzKZER4ex8u2wjsOYb99V5AWqD9UKhUcHh6aXCKXl5doNpuIS44YhlwvLi4il8shIgYJHloB9dRCmx4PzKOgjTErKyvGK0b3RXBHY0zYdXqesOcMfX232zXJVM/OztCSBMM0xsxIzjEq1Vqf4/0+Buw+sumMBlMaUnmOn6NicKLXdlFyWnATgUbKUqk01nOJiEQiyOfzJpnz8vIy5ufnTUiRXsxoRd6XXW+e8yREhjyYTqeRlVAKzqEJCRuMKU8/6lF2n3xMBJY3A6SfPFk812o1XF5emsU4+Yg6BxfYp6enxjBar9eN4YayyRcjWaPRmNgYo+W47iu2AUrm+2IET0hy2UKhMKLPkB5IE4FljCHP67XC1NQUylJtZmFhwRiVbHr+WNB0ZNMY9cjBYGB0cFabq0glo6SUI19YWMDGxgYWFhbMBoPneWbjlMa4lhV6y3mSPBeo5Pp9lUiZ7SOtHB8fo1qtmr6GVD6clpwjC1LdZ3V11eQfKRaLyEkhFs6xev2p+4LGmEql8l6MMTxuu/6u0Pe46X78TvOB/o5jRJ6rVCrG+EYepywjH/fFa1AjCAKTk+/k5MSEAXsqhCwneWdWVlZQKpWMPqJpgnRxX/0UBn1fvpPdP2zDBzXGUOhATSQxlZAnJ3Fi2WzWELanXAGbzaYZBGbcrtfrCJQhhozBwdcdrncUs9msuWddkrDBUoTYkfZA8d69Xs94T1xcXJiMzprB2Oll2UUsibePryZRqInGYTw4joES7DS8dFVMMJMIVqVSycXFhVEW6f1yenpqFGeep4CvVCqoVqvGgs2kmdwpi4hHDK28CanI9TmAPOFZQttXyrymXfJpRBaNMXH/4wKD7qOFQgEZSbLlS+b4nuwEUqhmMhnMzMxgXhJyr6+voyBl6hKSVyIusfQ82L+BLHyur68Nr7Kt+rDPOTi8C0hD5A/KHv7fkjwZlP9akeP8RgUtKsYXLgQoP8IMF+QVGl9WVlZGFnsLUkmnLJ4m/B0V1m63i2q1ikajYRSASCSCQqFgPDRLEtfOdvHwVBgE+X/cQdnBI2qVuebij4tDGpm4SCwUCshms+adpyRJqc3XYbzMMbgNYb99VwSi2F9fX5vFAatfMV/WYDBAXryMaDgrKY9cHux3wlOeMe12G5VKZcQYk0wmUZYkwGlxxdd9RPk+6XvfdB1pmbD5oC1lhs+kdCkVa3pAlkolI7995W1Jo8ZNz37fYB9RJ+U5/Y6cvyAeGUPxvk5LiehZSa67tLSEtbW1EcNoSbzE6NEJ0YE7Uv6Wz4tGoyiJpxO92+jtQOhx0Iu8iNrU4/1IT9ws0vMq+VrTCscS1i72xwT5ApYxBsqThbodjTFQZarb7bbR/+r1ugk1DyTBL72WouJF32w2sbu7O5ExRss+fbDdvuhLhOd5xnA3JQm3SXc0TvC6QEI6Ly8vTb4prhN4pNNpzM7OmjmA8oT3+NjjR9q028J3pUGExmt6AHWlPLXWER88eGAMMXxPLuIrkp6C4zolyVqLUvQlpsLpOZbsSy0zxxljPM9DoVAwhphlyfW1KCWysxJiz3Uqn0Ne7ykPegC4vr427b4vY4w97po2w655G+jf2ffgve3/Nb3yN4Gs04dSrY4RCJ1Ox+goXCtwLdfv90cM0oPBAN1u16zjzs7OjDcT5V1WkndTFnODKpFI/G6u1Ag7967Q765pX/cb2/RBjTFQg6SZhEwTlx1B3fkcoFarhUajgYuLCxwfHxsjSCC7SjTETEsMvO5YKofcYZydncXU1JRxd6xUKmg2m+iJS1pCYu9tItT/DyQZ4r6UOaQyPpByXex8Tt50G+XkDDXJ2MLb4ffwrNhJ0kVbSoheS/hMo9HAzs6OYVZ6UO3s7GBvbw+7u7vY29vD3t6eMbrQeNNsNtFqtdCVfCWcPHgMxMMjLknY0uKSmEwmTRs/dWghaQv5iCwANF/GJVmgdsFeXl7G48ePTQw1wxympcRqJBJBR8oN8ggkv0ZUJQguFAqISRw4lahOp2OURvIFhXdFkmLSeOrLDqyGfp/PYTwcPn1oWiLv0OgwlAXp1dUVriUvARdDEbVTFlG7qQsLCyiLh2RBEuiWxPOlXC4brxW6aK+trWFjYwMrKyuYl2SeNGxohZO8ZHtT0IgcBAFWVlZGPDT1XEe+h9o4ue2gjAxClEIu/PjuEE8KSEJ7ytCkVEnQ19t8HMbLvOdtCPvtu2AoSlVHEk/SGHF4eIjLy0tjLOaij+EEZfEgHKgdsogYuPW7+KJQB7Iwq1QqxvtWG2OWlpaQklLHCHlP+/9xGHcdx1R/5lhQZnMXn4sMzpsJ2Vwrl8uYmpoyNBGTXeP+R86xxj6GqurJ81Dvy3GCGAGi4l1WlhwEjx8/NrxJI+fMzIzZVMxJFZdAKePtdtvQuC96L8ezLN5tcRXGPrDyvPFeQ9EtOf5DCXnT/ap/r+mKh+Zlfv+xxkSDvMHPUGNDviPdtSRXJOUHabMtRTUSiYTRF7hYK0vOrHg8joEYY3Z2du5kjPHVolfzEL/TdKXloKeSO1N+8h6ByO+Liwujo+rxCoIA2WwWcxKiWi6X4Snj5qcwfkFI2AzHhO87GAzw6tUr7O3t4ejoCNVqFZFIxBiZdLgeaZzvSc/2er1uxov9wvXd8vKyMURSl9T9wnHwbjDGRCIR08f0illYWEBWKuFC5APlgqaJocolxHPNZhPn5+f3aoyB6m9Nj1A0Sbp5W7oIuyfUfe12aVol+H00GjUbRVyLtSSfGK9vS0EcrsM4xwVqA+T8/NxsntdqNfi+jylJUD49PY25uTmsrq6iIAl7uZYJ60s+N6xv3xX6GZr+9TONMe9DJ/DlIA1VXCGJZKA8RThpt9tt1CXJ09bWFnZ2dnB6eopKpYLr62vkJeMyldf5+XnU63VT3eXy8hKBCLjZ2Vk8fPgQ33zzDcrlMvr9Pq6urnB5eYn9/X1cXl6awUwkEsadkEzNyQGS6O3k5ATPnz83E0JfKkPxHShs5+fn8f333+Px48dYXFxEMpnEQJJs+eKqyEnjPgmCkyyfA+ljEnlMVQOigqAnDKjxGgeboPnZFjL6GptJeV1LSpu2JbyI//dVskT2cUd2P1qtlllscBerKXGIA+XqpmmLfzUN6rbY7dYIJL57bm4Oa2trePToEZaXl0f6zkZY/4Vd9y7wVOWUfr9vFGDyWt9KJoWQdun/9WRi9wdpgt+lUil0JITw+PgYu7u7ePbsmdmNgvBzu93GjIp1np2dhaeSH1IgM9zPF4WGxra2lOWdkrCKBQl3WlxcxPT0tOEljiv/x3vob4cvB5q3ILRMeuLcdH5+jn//938fkVU02tKYmZHQn2KxaNzUfVmgUn5EVNlbLZf0Xxvk1Wg0ir6ETh0eHuKf//wnnj17hqurKwBAOp3Go0eP8O2332J9fR1FlZsFwtecL2zZcB+Y9J7j3tOGfZ0t3+2/Ye8aqN1SGoQ4d1CG6Hmf1/d6Pfz000/Y2trC+fk5ms2m2RjwfR8pKT/8+PFjrEjy8UKhgIjksuB99b11u7qSN6HZbOLg4AD/7//9Pzx79gy9Xg8zMzP405/+hL/97W9mQanpZaAWZpPAs8Kzdd/oczzvieE+Go2iUqlgd3cXr169Mrk5UqkUChIOzmSUepMsGKMffEj0Q5Jksw8DVakjCAKzcNjZ2UFKcn8sSChSKpUydOXJIkyPBWQcqlKh6eXLl/jnP/+J6+tr05cJSTr7448/YmNjA4VCwXgJwOIbPQ6kU+pwGrpNmi70uHpqAReoxYIfssnxoaDbxnZreuQ7VCoV7Ozs4Oeff8bz58/R6XRMX/I9oHggJR62GalC9d133+HRo0eIx+O4vr7GyckJ/s//+T84lTL0rVbLXF+QCmhPnjzBjz/+ONIuGlsos4meSvxK3TQu3kk8F6jwxKEY1k6lpPrLly+xu7trdv2jEurU6/WwtLSEhw8f4sGDB5iT3Cj0HIEYq+IqH819Qd/PpkkN9gPlKnmr3+8bL/WTkxP813/9lzFKDAYDzMzM4M9//rPJf1YoFJCQoi0cz1gshrOzMzx9+tTIGxr48/k8FhcX8eTJE/zwww9mDan5m23S56vVKra3t/Gf//mfePnyJaKSZHx6etrQSbFYNOs2yjG2q9/vm+9Iu0OZkyknh8MhTk5O8Ntvv+Hly5c4PDw0m5M9CX+MxWL45ptvsLKyYvRartHYp+QP0pavQj7vC3elGz6fbbPPUValUikMBgOzlv/ll1/w+vVrszYhfev38WUuZcglvWfr9TrOJIXExcUFotGo8bZfW1vD3NwcMlKlkH2YUEmu2SbI+7I/7xN2f5BeKMt4nuP7QT1jNFOROdgJnlIIAiHoa3EBPj09NS5t3OkbiDGDicnouj07OwvIwp4KUiCTPy1mtG56omT3pM49hWaz2cTV1ZX522g0UJckryeS4JUuycfHxyY8SYOd7fs+yhLSUSqVkMlkEJHdfk0AfJ/7JAgSAIkNFqPpc1ErASsPDfaj/l4TGY++cjOjUaXZbBrPFfYnGYqxf0dHR6ZP9cFrDg8PzTm6qF2qhFgMJ+KY0ghDxuP7sD/0+417j4FMhHrShOx6TkmJQnp42Ir1TbD79l2hxwLKmKkFgk1f9vvrA/KOYXQRkd1c3u/y8tLEcF9cXJhDW7x93zeGmYHsqJKfjo6OTOiYduPUBz0P2mKsoycbx5XeSVBGNn7m8x0c3gbkrUCFBvCcNiRyc0Dvzq2urpoQI8aZZ7NZJCWvQ9LK1UK+suXsJPKC8qenEspeXl6iL14Icam6NDc3Z7zY7Ht/CrwyybvijtfZ8xoPXxlFeD89zvzdQHbaKbeY2P1Eqq90VFhmVOLWM5kMHjx4YPIKcOEOpf94MqfYYzAUo1hP8lkcHh7i7OwMgYQpFItFLCwsIClhoZTZGpP2zziwHyD34kKSbYe43lelsmW1WkWz2UREGSIZNsDFon7/d23fu4DvYdMAD/2OviwIyhIaNjs7i3Q6DahSuuyfMP7xJWy3LuEyZ2dnGChjX0xKni8uLqIgOZzY99RdbD3Gplv70HM5f8u22P3uKVq3eeFjge+hoWm8LZu0J5IzgvzCMfBEpyXNkvZ4pNNpxGSDqCZVqA4PD9Fut41eEVFlwdOSjHphYWFEr9RtYn9D0VegShpz0eWJPLF5djgc4vz8HMfHxzg9PTWbUryOYzQzM2M8ezKZjBk3PfZh4/yumPR+pDXdnq7klqIuf35+jr29PQzE05yGlNXVVZPKgd4nUGMfkUIQ5+fnuLi4QL1eN2uvhMoZMz8/j4jyrNL0ZI8TeZMeOlp+r0hFH4bzkm/JV+R/bnAHYmDj2HuKtzqdjqHXRqOBnhjsSEeRSMR4xhUkf9o4fiR92efvA+9yT/5W/x2qzeCBbK7WJcywItXqtIzi+LBfKP96Uv76WiozMhy43+8jl8thcXHRbPJqjxgedn9pGtD0cV+46X76OyN7P4YxhoQU1jk8BoOBWazREHN0dIRmswkI42UyGTx+/BizElc/JwkJB+LKxkXccDhENBrFtCRiokJMIufzfFkwNqRMNhf4dXGLq1QqxnCgk7rSrZHvpYVRIpEwHjt0L9eMyven8L9pAO8KEltghaTw81Cst1Qk6XHCoy0L37byQGnL7t844wr7jAtrLtApPPmXn2kl10L6TOLP+Xsqe9rwQmNZS5WQ5aIIyitIMxxpjgKO59lHvJ4HwfFif5GGY5KnqFgsIiHxiDb0fQg97vcF0jE/64loqHYGeE63QbeFn3mtpk8a2RqNBmq1GqrVKi4uLnBwcIDT01OTl+dCXAe7KjGXbt9QPMHqYuCsqlCxuuyU0IjH8eVkxzZQaer3+/DFRZHjyjGGkilhY+PgMAlIu+QZys/AWuh4nmdCjubm5oxiMCPVVXK5HKYkiRwXCjR2aqUrjC9vAn/D63tijDmXyk5cLMbjcRQkZ8yXZoy56dDjqedxfj+UylmVSgUVqRy0vb2Ng4MDVCWBpJ4XkhIKMTMzg0ePHiGfz2NKCguwzbw/Qjw0KScj4kWjjTGQ5KPMi5CUHEGUc1pu837vCt4nJgZ+3S/0LObcfC2VTbigoTHmpvf/GNDjC6UQ87ymiUgkYhbjWcn/Qnrg5g/fN4x/fNEruQChgZTPjUnlGHoDaG8bzrtav6EsYps59vyNfi/9V7+fvoZt1MfHht0+WIvoTqeDq6srHB8fo1KpACodAfsoorwSPOXd2BNvln6/j5pUZWJIp83L7Gd6us3Ozpo22GNAnZPfsf3Uv7hIJzgmRLvdNlU8zyQZdl88uHh9QpJ3z0loeEaSneuxhdLf7hP2eIQhEOOTfvdOp4NLiT5gxAL1RBpi5qXa3NLSkolIiKiwed4vIsYY/r5er2MgG/yJRMKEKs3NzY3ogLyHpiHIO3WlYt3x8TFqtRpi4kUxNTVlQl1ikuuE+ijXhwyXupLKiWwH6Y7PgNDs4eEhzlVVL82/vu9jVqohFiSXGvUCjq2mPd0v94m73FP35ThQhkUl509Xiqtw/ThU6zSbl3jQ8MX1Jzfee+J9VJIqV+QLGvPIF+xDgn3OPnwf/IIxfanHTvPtBzXGaKILIyYOwkBiOE+l7BmTPF1cXCBQiZpKpRL+9Kc/oShVmDjpa8WpLpbTaDSKXC5nrs1KhnsSe0TcpCjk22Ix18YG7v7TE6ApVZg00/niCgfxLMhms3jw4IGxeHKi5QTBgwI7bPDeFYHlFsx2djodNJtNY+ygtZEHz/O4vLzEubjk00VML8L1sbOzY6pd0fOBRixeT4ML78+FOQ062uDSkpAlvSgfKLdAvhf7krSmz2umjFiJ78KYk3TBSbwvIVLcrYjIJD0rOYg4eYRBjzX/f19g+/lOpC1fWeFhKaT8Df8OJIcL37nVao2E9O3u7mJ7exvb29u/82zhAoV8wfvSYBXIhN0WIx/H1Ta6UCnSbYYsNrVyGo1GkU6nEZecU5wMPTV5+e9J2Dp8GaBsIB9B7QBCFgJTknywWCyagzlRtGKo5ZDmQX7/NuB9oIwxNGZz8cFF35dijNGyLew99QFlwPfUTvpQFMnLy0vjtclSrBeSPLSnyhXHYjGjZ8zNzeHRo0dmF579SjpiO7gRZMNXlV4oYyHGmBlJcslFC9SiT9PCu4L3YZvZV4F4hXExS1rjZllUPAroKTalEjNDeXF9CiDN6z4jvQQyz3Pu4g4/9Zq+hHunJBm3zT/8vyV5nKhHad0lKhuFDLdNSQijpxJWcv6lsUDLHv7P+/E9eA+bJjT9sY08f190867QbQlrE2XcqYQVsR990WsDldeL/KX7Uusz1GWbkn9E6/RD2chNSdjKnCTM5dqBzyT/63HhO/ghXkwcE45LIOFwe3t7OJSCIJQremx1vhjOL/yO9+Oz7xuT3DNQxpihGGJqtRr29vbw+vVr7O7u4ujoyBgktSHmwYMHxutMe8Xo50YsY0ytVkNfDJs0gtueMZSL7GfSO3mTBu9jyRkTEQNpMpnE8vKy8VTjupKbkCcSJXEmSWS7En46JWH05HGO3/X1tangynlD044vURQFyaeojTHsA7addDTJmNwVk96TbbHB3+v2BVZIHtdU7DO+J6/lXEz9n7zbEc+YjmzAe7KuYOgo+4+eTLpvyRuaBjQP3jf0GOm+4PM8tebyPrQxxhfrMAcE1oBxcK6urnB4eIiDgwPs7+8b5h0MBihIyTPGh62srJhKDDR0cLKkoCaz0rpdlCS6cckyn1IxadytTCaTZmHYlkRgJAAaW3yJ1dSMDpkoIpEIMpkMZmdn8eTJE+NSSCEzUJZ3PUj3Cd6bkxGfAxFQjUYDZ2dn2N3dxYsXL4zlmkmJqXBwLJgIl99zfHTIFhfl2vpNA9aluKXRE6Imbma0NHNRzn6nMCMzxSVsRk+GPMhUvuxCkYnHHXqRz7+eioWndTwhMchsA4SZPZn8KQgymQxiykVWw/5/3Ll3geYnPQnxvO4fHlCLgb7yOGlLQtKKJMg7PDzEzs4OXr9+jZcvX5pJlWNcF/frWq2Gq6srdCWJIPuSCgsFJGnRV0mCyXd6TDkp8jzbzfHxZSIjbcRVjg7Svha6Dg5vA8pPzTeUGaRHujVnpSy7nhcGlost6Zkgn1IWab69i5wgvXel6hgXyR2VkPJjesbwWbcd7wr7frwn5xI9NwxUWCos5WygEtTu7e3hzZs32NnZwdHRERqNhln06eem02nMSenxlZUVLC8vj8iqsP4dWp4xUApbr9fD1dWVmVcDSSiay+UwPz9v9Bje037nt4H+rb6Xps2heIlWJOzmVDyFr66u4Ilsj0qy9rm5OaQl4bSnDBwfE3rcOYZ2vw1V/qRGo4Hd3V08ffoUv/32G7a3t1Gv143RbXp6GlFR/u3x9ZUxhjzZ7XZHaI7jSWMMZUFLwuLOzs6wJyWA6UHMTY9L8dBuSlg+dSebxnuyeeGpUEuCbcEdZc77wm10PFBVVWq1mpGXgSyaPfFQo16fl4oqEQn94+aq3gDk70m7lNPaEMPFeRhP8zdQPE29BSH0ZfMWPe4YLsNrOI6+7xuPy/n5eRQKhd8ZLexn3Ccmua8ni+OhFF3gWuzly5fY2trCqYRf9Xo9k75hfX3dJMG2PehsORGJRNCURLjn5+cj67uEhCnRa5A0zvHh50B0dP7tqAS+5+fnRh74kjupI549jNCwNyP39/dRrVbRUQm+s9nsCP91JKcic5PSqKrfz/M8FCV5rzbG+Ja+zmvf51i/Dew28bOvqkpGrPUV1+SFQgH5fB6+5dVOvuY92Z9cR1D34j2YU4bGc2241uOvx/h99aO+Jz/zefZf70MbY6A6hMKKjen3+2ZiPzg4MEmOziVHDABMT0+PxOEvLi4iL5nnKRz7/T5OT09xfHyMi4sLNJtN85yMJOOiMcZe4EVld3N6ehrTUk5N77LbE3dEFouwrG0Qw09Bktg9evQI2WwWCZVAiIKAB5ntvsG+ZT9DEXStVsPJyYkxrtBAQq8U7iBcq7CkoXKb7ap4yZ7yVOhLfCCZj30cRvhdcT3T99BKEvtUMxGFnP6sj0iIgUY/l9exz3nevr9+Fy72E5LbgZ+TyeSIMUaPI++r/9rvf1+w+Un3G7/nuPXEK4XK4enpKY6OjrC3tzdSdYp0QYModwBa4vXCvu1I5aShMvxw/PUY0LLdEQ8YPdYD5X0E6Sv+joYiHp4yOPG7gUo8SGHM9w9CFGQHh0lAeRAmQ6DmAdI8aVaDv4uKtwB/z0PLtrDf3Qa2kX+1Meb8/Nws0ACMLB4/tDHmY6FvJXDXMsnWATyli3BTgXJxf3/f6CO8lmD/Z7NZzM7OYmlpCUtLS8hms0a2sQ32mHIMSAOUfZCNnVarZUJ6h5J7YmpqCmWpzsRNCj1u9rjeFfwt7+OJ/qP/Zz/RwFCT0FTND+l0GgsLC2YxzPek/P5Y0H3tKeME29cT42m320VFksX+8ssv2N3dxdXVFaLRKGZnZ/Ho0SOUpWIU7+tbHkQR2c2viWf12dmZ4UnKERqtaIzpq43JS/HKevPmDd68eYPd3V0cHByYDTD9l57HYRtp3DjpdrtGF+U4kH6Jd6Gd+4Cms7C2BGJ0ppc2dUjyR6lUwuLiItbW1vCnP/0JGxsbprR8JpMZ0VU5BlwwchOOugT1eJYeh4QUcb3C9Qn1TraZdDAUwyVlAJ83FJ2MOvDx8fFIXkzyEa9PJBJYW1vDwsICSqXSyBqGfTKuv+4Dk97Xkw1x6pSk15pUvclkMiiXy3j06JHJp0bvck95tlMuQ+mxETHGnIlnPY0xQRAgocKU5ufnjYzmvfiZbWS/Uhc+kHB76qVdqfpTqVRwrCr4UuZVJPKCcoLyjsYUtn8oHkLn5+c4ODhApVJBRzywbJnNfECspmTTFPviJt74FED6D2unpzayuSYvl8smNw/nCa4LYM3ZEF7QfRdR602u5ckb9v9sA//a7bsv2PfUz2L/6PZ8cGMMlCLqCXP0+31Uq9WRyWNvb89MHL7sqtMyPT8/j5KU0qW1mwQ7GAxwKXlKarUa2u02omKJy+VyhtgzkkiXHRbIjllM3NNoodWGHgrWwFKc+T87OK7cc+fm5rC+vm4sdXqAOBjvixiIgVgSdX8HQYBms2mUg0spyUnBQiZgv3Di8pTrtj44prp/dD9p4iNzxFSySm3soJEjqZJc0g04lUphSpWVTqfTyEilElqkZ6S0pD74XVYycmcyGXNfGljC6IGWVU6ietwpUBj2xjHm+/Je9uf3gcCavDjR8Dsu0Dje55Io7kglTaYyp8PQuGvEXTcaUbriwUSaYf/oPrLHXys+PEf69y0DjhagHAdOkvwe8p5dCRuj8pTNZo1yzPZwXBwc7gLyK+nUBnlbH1C0HyjFifypz+nz9qHvdxvIV4EsJMnrFxcXZuHneZ6Zkz6GMcbup7DjLtCyGJZs1fek3IDKDeKFKIsD2cGkYs7j8PDQ7Oh2xMuI8ofzxEAMFblcDrOzs5idnUWpVEJcSucOxBDDOUbTBtsRWJtUEENSu902cpsKfDweRy6XMx4n3E22aWsS2P1I6PvwIG1CciBwh7qq8sXwHSPiHby8vGx0NQitfmx5rPtdvxNp4EoKN5ycnIwY4waDAbLZrCm/u7i4iHQ6bd5nqDZ5OMa+8oy5vLzE6empWYzx+mw2azxjkhLiEJUQm66E1tCj+EqS2V9LbrWmKjTRkHxu5P0zVSChIjluhsOhMeJpnedt5M59Q9OibofdnqHooBUJ++pKRR0aYug5T+95Hb4Qj8fRFe9rW6ez3z0q3l0zMzOYnZ1FuVxGQ8pqn52d4fj4GI1GA32VA0jTdhj/UAbZsvpE8mMy5EXr7DTAsoISjZukNQ27r+4Lk9x3MBjg6uoKOzs72NnZMWFJlUoFA6mEqTepOS4ZqXyjx0PLRX3u2soZw74PM8ZAzWm8F+RdOGd2JWcMNxz7YjQbSNL2nhR1aTQaZkOa+ihlWUxCFTOZDPL5PKaluifHud1uG52bRmvqsrpftTGGa1TNo7ovJhmPt8G4+SAMYW2weQiq3Vr/92UeY2RKOp02entPNozb7baZEzl+nH+Hal3G++mD58hHYbzyIWH3iYb3MYwx7EwSOyc+WlEPpWLOpcQURiUfRLFYNJNfqVRCXvKv6I4m4VerVVxKXpdOp2OYhS5stI5TKEKECJ9HgwA/01DA+2uFThMuCWZqasoovXQr1Aylr9XH+8LAKqPdF2+PbrdrvCMqktVaT1B8R44Xv+urnC2DkB1Hviv/j6mQH21M4cKZBhN6JPEoSOwkD7rw6ZwMpVLJWFVLpZLpd34ulUrmOv6e90in08jlcsZAow0zNAro9+e76v6Jx+Mol8vI5XJIJpOIWUkO9Wf9//sAnxEmsJvNpllk7O3tmd0zujxfSK4XKnoMG+NCRk+SvL9+BicNjv1QDDP8nnymJ61MJjNiVMtms8hJ1RFNIxyPqBjwaKjjWAWirGSzWUxPTyOfzyMt1S7YRq0gOTjcBTa/hvFxoDweKCM0z9i/40EZw7/2cRfw+r54i3EebEkiSO8TMMbchkmuGQfdvxo9yb3gW0k0KddpWNY5JHTOs3OVcFGPs6fk3FCUcnoezc3NoVgsIiLGZP6Oz9d0oecZtpNtpI5UrVZxfn6Oruz+exKGMSVegNxMYLv03/sC2xTIIpJ5Fugx2RE3fV7neR4yUpGkoBLTDt9jfrxJYfNdIJtUrVYLjUbDGDO4qDw5OUGr1cK0JNpdXV3F4uKi2b32hI/4bhoRyzOGxhhNF7lczpQ/n5qawnA4RELCugjyNfWvvsqrxo2RtoQYN1SeQ23E6coO/szMDFJSbYTP0HrtxwL1Cvan3RbNf0NJIM08RXHJ0bi0tISNjQ3jRTItiZdTqZQxQFGf0/fsSQ4KLb9pjJmWRNQzMzMj/XomYVItqcbKe/ZlwxPKU5h8zT7mgrMq1dno1URZQ2OCLx6/+XweDx8+xIwUAqGXpe4n3T/3jUnu25f8WvSGOZVUEZ1OBzGVs2x5eRkbGxtG3+M6jn1mj73uy2vJFUTPGPJRmDGG99R8zntzrLqSM+bo6Ajn5+cjaxrqsD3ZgBxI9SdPZEdUoimok3KDd2pqauSZrVbL5Jih8W6gjDG8rlAomKT/GamUpXnyNv74GNBtCGtPoEKD2X5eS51eb8S3JJ9TQ5L09pUHEXnTs+Ze3pPfUybq5/OzvlYjrO3vAv2eRNgzOI4f1BjDjmBn0dp/enqKra0t7O/v4+TkBDVxPdPMRZdDHVcblRhdvgyFHie9muQkCYLACOpCoYBSqWR2M9g5FM56QRmVeDQuDDl5cSFIoQ7VoZ7nYVpK4LGUaaFQGHl/tlUz4vvEIMQzJqHiOtlfFBBsI/uBxNwXl0oabfpWRYCEeLTQqMHP6XTaGFwKhYIxhszMzGBhYQFLS0uYn5835ckXFhYwPz+PxcXFkc8sD8u+1ef0d+Vy2exOUjHW53hMSxJoGmoKUk4uK3kfpqamjGJEhtefSSMlcRmdUkkKOaaaLt7nOJOmNI+RxoaSH+j8/Bzb29vY2dkxIQzVahWNRgNtybNDHkpI/C0VmJiUh6NhkjyhjWppcTGMRqNGGQnUIigpsZ3k5+XlZSwsLGBOEtJxnGloo4FNG+RobMnlcuZIpVLI5XLm+nw+j0Qi8TvZ4ODwNtC8G1jKop7PSGNaSaCs0Ict+8fJBT7rNtg0TkWEcp0LON/3jbHgUzXG3AW6f/R72M/RMoj9PlThXBXJd8WQXYYm0cjQbDYxEM8XGjy4cCN8yR83K4kEZ6W8JmmEz+fiV8+zmm70OdJWT3JcnEvIGedfXxZpCdkw0u/3LmPIvgw7SFtXV1c4Pz/H/v6+8aDs9XpISHjoUIXfrK2tYWZmBlOy69mXzSB7nD4k+GzyZE88FGq1Gs7OzkwevDdv3uDo6AjX19dIp9NYXV01VV84vpzrorJba/e9LwvIer1u5l0a1UgbeSnty34aiiGA+qbWLTjGbLt+l4HyIqWBhsZGGhOnpqYwPz+PKZWfQ9/nY44LeVrTHGG3y1PeDUlJ3losFke8Ybig1b/h5o5vyeF2uw1YC7p4PG6MMQXJa8H+bUuFLOpRlCPs66HKG0N61+/ADTLS2YXkV2QYeETyFUUiEUyJR8nm5iamp6eNoY50wnbr/rtvTHLPXq9nvHyqEtIeqPVXWfLErK6uYn5+3mxyQ+mwYfTN9/J934Qpac+YQOXSKhaLWFhYGGuM4bMoQ3uSl+tU8l7xmb6VBwjKU4pyd0rSWlDv5bvw2b7o381m03ieX11dmfUm3xciM21jDGmH0H1i09PHAtswri1D2cC32zuOXmkIv7y8REOqLenx41ysf8/79cVg3Ww2TWRNR3KSUlZQ7kIZoLWMuC/wGbqNuKGfvOFwOJnGd0/wZELn4vDo6Aj7+/smIVpHyoNxl7woyZjIwNyJIK4kflczzfb2Np4+fYpXr17hSDLeZ8W1dGNjA48fP8bc3BxiVo4PKkia4DVD9/t9nJ+fm0mVLqxczNJyura2hq+//hoPHz7EwsIC4spVGcp1yoY9aPeBQEJUKLw5WSeTSfT7fezv7+PZs2d4+vQprqV0NRmHuwhUCKlAsF+oKGQkaRINVkkpacnduqh4GHFBrydDjptn7RLzs/0uNsKu6UmWcn1PfkdGHEpssf6urcp2829LEuRxZ4lj3ZMKJclkEl9//TXW1taMMgVLmdCHbud9wn7HgUpy1ev1cCDJl1++fGl4oqNKsnOM0lL5g4a0TCZjDFRU3qiQ92RXLinu591u14S+7e7uGsUkEEU1IwmtmdxyaWnJKJjkOd/aNYbyWuPOX8NKnnl9fY2Y7LpMSwlh0hSFrX1PB4dJQd6i7KBcgaJNylie1zxP2iON2wtRnuf9eb2vcjrcBn2/TqeDSqWC169f47fffsOpVAoBgM3NTXz77bdYX19HsVgckUtsAxcB9w3dxpsw6bOpXEH1Nz/fBMqper1uNoO0gt+Wspv2gopyhPKPCjjnuEwmg83NTTx8+BArKysoFouAtFO3j20gLVAX6MtmCM8FygNle3sbP/30E05OTtCQBJjZbBYPHz40yS+5kLfp7jbY14X1nye6A+Uv86i8ePECR0dHqNfr8DwPhUIBgegcQRBgYWEB//t//288ePDAfNfpdIzc/1ggrQ9locCF8fn5udHrziQXCSQHIPOPrKysoFQqmXmP4LxLOuERjUZxcXGB3d1dvHr1Cs+fPzdjGIhX58rKCv72t79hc3MTpVJphMbIj9fX19ja2jJJROl1oJ+lFxoapOFsNouNjQ389a9/xZwkVvZkYRqRcPH3xf+TwJaxNo3wPQlu6JJfI5GI2VTjQp86ryd6DvntVHJCMTxle3vbjOFA1gLTUuVqfX0dDx48MDlj6K32+vVr/Pzzzzg4OECz2UQsFsPq6ioWFhZQLBaNTjIzM2P0sUA8JY6kQtr+/j52dnbQ6XQMXUB0SwjtzczMYGlpCf/2b/+GgpRaZn9kMhlA0R/EGHDf0GOhx0B/HoqR+82bNzg9PTUL4r5UHSuXy1hZWcHa2hp8yQdIOa7HJhA522q1kFS5pqLRKE5PT/Hrr7/i+fPn2NvbQ7vdRhAEyOfzWF5expMnT/Djjz+aNU+gohk0fXUlBUaz2cTx8TH+8Y9/4NmzZ2adE4gci8fj5jfxeBxzc3PG+B2LxZDP53FxcYGrqyv0ZaN7UZIsF4tFJJNJXF1d4ddff8XW1hYqlYrRGUgTlEMPHjzAt99+i83NTcxJ5S7qAKT9gRgjwvjjPqDHc1J4NxiGhrJ+1OvtQNbTlIEcp3q9jtevX5siIZeXl/AlAsET4yNtBLoPKMtJS76sIbmZm5ME6Yxi4FqV8yXbdJ/gOppgW8f1042eMTbDjTuoRLBT9QN5D/7tS4Ld169fY3t7G3t7ezg+Pka9XkcgFlR6UszPz2N5eRlLS0soS3If/SJ8jiboruwIMvSiXq8jKgvNfD6PmZkZlKTUIsF263vahM5raCnXYTXcqZ8WFzwKY1pMSYAkkHGDcd+gcOb7EJ7K++KLQYTxxB2VDNWTSdrzPKRSKWMYW1hYwPLyMtbW1rC5uYnNzU2zW0SCn5e8PtqbgQt6es7QQENBeRuxTgp9n7B72f1BOvaUNxTHuCjJnovFImZnZ5HL5Uz/DWVXoiR17XNS1YvPt8da89N9g8/hXz6b/NkTt1ca3Ph9WkIAl5aWRsbywYMHePLkCVZWVsxYcgxJ6/RwymQypp+i0Sja7TZOTk5wLeX72J6suBAzEV5Swrr02PP/SEhVJRqIcrkcChK2Rg8a7kTTfZc0FTb+Dg5vg3EyhTI0onY/9XXjPmvwPHnhrrLQU7xO5bfX64240XsSDjEnOQdszxjKJy0bP3WwzybpJypy55JIcWdnB9vb2zg4OMCFJKHl4mEou3FaBumx8X3fyCJ6+jFHBT1vuWAKa5u+D0Qv4vN8WUDqa9oSftKSpPo0TPfFQ7WrjONc4HjKcwCqHYFl+CMNaFqg7kA66vV6ZmeXnkN7e3vGeAWVK2YgLukRWfzPzc0hIwnu+T3bE9Y3b4tAFk/6PdmPUO/fV545XUnSyeS4Wh/tyuZaLBZDoVDAysoK5ubmkJOQZHvBS1rU8zzHryVVuZi/xX7vfD5vFgr0wGY/BcqzKiV582j45YK1H5L4ngdpKi6hAL7vY3p6+ndzZUSMMKT9jwW+wzhoWvXFI436GuWaXvhBJfj0RVaQL5LJJApSoTUmm4Qdqa7TarWQloSsOo8HjbTUS9imQIynbTHmcqOZ3v7kne3tbTx//hzPnj3D7u6u8ZS6vr5GV8LIuKnZ6/UQj8cN/T158sSMmdZxbF6+qf/uG3o8iKRsyNJTcHl5GcvLy2busfV+frbvGxVvM372PA9VKS1dq9VGjHApqXq1KBEJ+v6wFsfsL14TyGYsDbCUEeSVhYUFrK+vY3NzE+vr66aQzPr6OlZXV5GXQjI9VWGOnqmnkhKAG/l6fiHNUE+mZ3+xWEQ+nzdjq/uE72T3+aSwx4s8T5lvX6Ov5TUcE7aD3+nvOcdA5CCfo891JUTs4uICx8fHJs+QbcgbylornU5jdnYWxWIRqVQKEXEWGKhNDNugTJ7k0RFPYViJgCln+b66X9gnUJXn9Lgg5P0pb24aL32PG40x9g8Jmzjsz/bvOKlzQjo8PDQdXpU8FWSouIr71NbFXC43Yg3WL8YXHYoFjl43l1LyT9+3IGFKWhHVB9sf1nGeqqAUl1ANLhBpQKLBgotTWvTs40OAhO8ppuFBgiEhMqSLSmFSygKm02kUpBwqDWM6rGR+ft4shLXBJSMJcuMS1hJTHjFcuERCFi839c1N32ncdK+bvoPajeYYJyTPDSf7tJRn5vhPT08bl9hcLmes8ePuT9z2/duCvMk2aIHii8EyJvlVchLas7i4iJWVlZEdnZmZGUxLKENSwvL0WNKYFpfdp6mpKURU2cijoyO0Wi0juHzJos+wpJmZmZHJkm3lhKsPXqOFLZ+fkHA4bdi7bYwdHO4LmkZturUx7jxh//6ma8dhoKqTdTodHB8fo1qtot1uw5MQ2jkJnQ0zxlAh+RwwaR9R/g2HQ7TbbRMqcip5ByqVClpSahSycKOMSao8ADyyUjGJRuA5CYVdkConGXFjpywKgz3GNBrwN/yfY9EWj5R6vW5Crylbe1JxqdlsoiPl09vtNloSe9+SiogtyQNGg45WUHlNU5LB1ut14znEg14wNMqcS9UXtkO/ryeLp1wuh8XFRTOX8Bot9+8T7DdPzX26n4eyYTcYDHAtIWpHR0fY2toySW7ZZ51Ox8xbpVLJhMlTr/PFGEK+8UKMX3zPa0nSenp6irOzM/gyF/P6fD6PORU+SMOVvocv+fc4b/KdtIcr26Kfr+/D/i+XyyPPoj6mf/cxoMdqEvgq/I+6SRjf2fTGPtK6HK8hksmk0XWp4yaTSSMjqSfyXoEKkyBPad7iIp0GucvLSzSbTXQlt0VXvMmoX0Ukr+OU5KDkRpZ+F/2e/N8+/6HhyaYadWeuI9IS0k7e0e8Q1mbSoTZUA0BFkjZXKhXjSeTLmiWfzxuDBu/PMSWP8Dx5FmKoYagSxyOZTKJcLmNO8n5yTVqWpMMzkn8yl8uZZwzEe5DzSUtyUNWlCEZL5Rbis7kWi0Qi5v4zUk2JGDfObwP7d5QZlJc08OtjaBlRdD/yHvpeUM9hW3tW4Y+2hPlxI+Ts7GzE468lIW5R2SDPqRC0YrE4IidtOU/wffSz2f+QHJZ8b00fNvR9+X78PO59NcLOQdkycJsxBtZN7IeZmyhBrhvG7ztSceXi4mIkSW+9Xkdb5aog8+bzeTx58gRzkgQvm80iqdw1bfA5gSgojGdmzBmFJo0xHEj9HmEddRN4TwrztFT1yaua6Wzzx4ZnTcoE+5IE2xZ3v7iK75ybmzNhJbRs68V6LpczC3Yu1mkR1M+/6e+kuOv1d4V9f/4fl4zfWinPStWm2dlZLC8vjxj4JsGk100KCgUe9lhDnsmxpVFyQfLvaKMnhRx/EzZp6vv3xQWVi51qtYqTkxPD2xB+yUhJQ/K0TZOBq3rk4PBWIM9rmd6Wcqk1qSroSRjJ/Pz8H8IYMymoaA0k9KPRaOBKEn+21S4o5XpaJROnF2BeecLOzc2ZEOQ5yUdWlJAEGmJi1s78bRiqHF/8n2MTyK4tQ2k4lkRXcrhUKhU0m00TgqUXLdqoQkNLrVYzu7c8qBSfnp6aReOpJBZ9/vw5zs7OUJHcGK0xHhlsdzQaRTabxfLyMoqSMD9iGeDvE7wfF+OkZ/0dF0vUEbkxeHh4OBJuzsVCKpVCQfI4bGxsYFZK8HKeshcqXGTp/hgOh6hLbhEaYzy1IeZ5HvLiCV6QyjLaQKL7SvevL94uPQnB8WXhSqMiz+l3J53xWfTgos7G3/yRME4f0vA8b2Rzhws/elnoceG4+sq4pWm6LbvvPM81iea/ltqogtLFfTG4RSVMcSDVuxjePTs7a97ltuNjwO4L/b/ehL0LjXF9yPUfPWMqUlqa9J+QPIc0lPPZ7Au92PZVyXCuf5rNJqrVKgIxiGUk7HRB8lbSCJORYh8p8VCLSO5QT+UH4th1JF8JjW709ODY++Ix4okBSxt70lKEAtZ64T7GVt9Dy8lAquzyaEgSXRp8oTxnOaeGHfyOfdtTFakaUvGNxknKRIaIVqUy30BSLeTEE55eVotSxCctOSq59uDzeBBDlWajq3Kecgx4jnLcpl27v/md7jcogy/pe6ASQduw7wnckjMm7Ad60PhXDw4VGxJkv9/HxcUFGo2GiZmt1WpoNBqGyaKSkTorVW1mZ2fxww8/IC1xXVHlDtqXZE3sECjiIPEfHR3h2bNnePXqFQ4ODhCTsnALKmdMqVQygpSdPq7jxsELyejsWQm7oPrqQyNQLqfsI0ITLxmFScT6/T5SqRTK5TLyEoJFATQJ2BcampZsQTApwujxXaCfbdO1Pm9PHn0VChBIQjzSqP37cbjvd7EFEMeczwkTlBDLMCd/jUDtvIaNnabt6+trpFIp9CR529bWFv7+97/jXBJOQhTkxcVFfPXVV2Yho/uVtEolxMHBYTKQdyLKZbfb7eL8/Bz/9//+X7x58waXl5fwPA8bGxv4/vvvsbGxgVKpNCIjKEP+aDzI+SiQfCVVlWyTSrIvC1sutjiH8+BCwpOQXSr71B0oy3R/4g7zQd/a/e2q0rZDScB+cHCAN2/e4PDwEPV6HZdS0lcrklMSBhyTHUPqV3ohpPUePpv9Q/rpieu8njNarZZprz0P2OcC2dGcn5/HX/7yF2xsbKBYLCIm4TdhfXUfGIi7OtQcxmcNJKSn0WhgZ2fHGJyOjo5QrVZH7tMXD4f5+XnjNfr999+bdyB6kvOAvOOpsHn2cbvdxu7uLl6+fIlXr15hZ2cHUUlyPxT9bG1tDd9//70pXZxU+Wg4NrxfYIXD7OzsmDCIg4MDXF5ejujWEdHFOxKCnsvl8Le//c1seFJ/4aIGMl//UcBx0TTP86T34XCIVCqFtvJo6UmeC+15q8deo9ls4uLiAoeHh3j27BmOjo5GFuDacBkRzzvKGt02ygBPPAmGwyGWlpbw5MkTfP3111heXgbG8J3+f1K58z7A9pBu2Rab3ydtI+VzVEKWmPtwa2sLh4eHaDabiEQiyOVyWFpawnfffYevvvrK0L4vOiZlLNvB/uUzLi8v8ebNG2Pgicfj2NzcREYqf05J5ToI7UDp2ZSX19fXqFar2N7exu7uLs4kCTxlJ3mRcioiczZEF//222/x+PFjrK2toVQqSQ/cPN6T9iNlCELGiLwQBIHJa3N9fY2rqyvDG3qDIh6PG94Ju4++H2UpjVJtMVZ2JEdSvV433oi8FtIfmUzGpL9YVAVdfAn95Dy4u7trDDlXV1dG1pEXhso2kUgkkMlkkJX0E/SooqFtRqqV0dDG9yNIT5Qb/HhyHUgAACcVSURBVI60xr7tiocVoflcH/z9nY0xsJjMPviAgexA1Go17OzsoCLxsqenp2Y3ypOJKx6PIyex7HT9XVlZGRFYUMKTAstXsdW4xRiTTCYxPz+Pzc1NPHny5HfGGHYKP98GDq6nqg7xdzYxkoE/NDjI7B/7O7YvEIMa3Y4hLnrcCdCKKJnPBt+d/TBUhgH9/acEzWD6sw0qTV6IpVTTfkQlY/wYYDsITdv8nnQ5EKutPWHRauzJTkMY9PsPpSJXKpVCv99HpVIZMcbQ1TASiWBlZQVfffUVNjc3jUD1lRF0+AdcCDo4vG8EovBwoTAUA/vFxQX+8z//E69evcLFxQW8L9QYA0v57MkuGeU6jRU29Jx203ktY/Vnfc1t0EYDtlHL5W63i0qlYvJO7O3t4eXLl+h0OoiIl24kEjHvxLkdIfOA7gv9v4ae1/i/3UecT+y/qVQKviyeZmdn8Ze//AXr6+uYmZlBLBYb0f3se74rOlJCl3TNd+jLzjf78NmzZ7iUxPx6d91TBqyYJOdknkEmvU5LrhXqrhwz0pLu3yAIcHFxYZJS0nASlYXlUIyo6+vrI8YYzr0DZQxjn/H+5HOGQB0fH5u8N1dSxlqPH40B2WwWf/3rX/H48eMRT59oNGoWMOPm/s8NHBfSg03rHCMt93SfDUWPDayQFiijCr/vitfd9vY2jo+PjbGgK55WUGFVvqxdqIfxXjGVV6nT6SCVSmFzcxNfffUVnjx5gunpaWn57+WQBt/hY0C3R/cnZZn+bhJoY0y/38fW1hZevXqFra0tEw4fFS+8xcVFfPfdd/j666+NfCF/9i1jDPmDcrbf76NarZqFvC9eSkkJVY1LLpK+FbrjeR6SkmR4KOvC4+Nj7O7uYn9/H8fHx7i4uECz2TT0wnVUREV7xGIxU/hlbW0Ns7Ozpg90n9rjPWk/UoZAzQkcHy2/X758iZOTE5yfn+P4+BhXUiQnJeka6OHIvuW9Sc9cQ/TF+4Tyi0YYfZ68wfk4k8kgKrlhmPaDaSAYjUGnAI4p5d/Z2dnIUVPJzSlrPeUsEVEelEzHkZPUDfl83hjg9NhzXuDzCU3nhL5Of2+PAXFjmJI96IQ9iPqm7BwaX/b39w3TVCoVdFR8q1Y2EonE7+Lw7ImNgtFTi+JACcnghjCliIRJMEyJBGV3iP3/TfBDdsTCDlsIfSjoNtiw35l9RIYjEXoh7r72Pe33DTv/KcJmHvs9eHB8OY76f5sOP9ZY44b+Dhs7Ta/8ToO0bfeFvo737aswpZbkhQrLGVMoFIxLfyaT+d0zgz9giISDw/sG58aIVQKz1Wrh8PAQFcmJAuCLDFPScoaffbXgprLFjQf7oCzkAaVMQ8lBPZ+8TV/aY6HbSnlNnagnufFghYlT0YXkw7DlPNul22rLYVhzHHUczgc2PNEftKI6lAVwOp3G0tKS2W2koUS37b4QWAsunuMimZ4jb968we7uLupSvTNQ4bEcs3Q6bZTyVCoFTzxcmEeHOSC63a4JbeICra+SHnc6HVxKqV+ddDSiFmG+zI0LCwsmSWxEdsz1WLGf7T6LS3g4DUQRVRUJFk3EJeSaC5ys5L+hMY+H/YzPGbr/7PfSPDawqtRo3uERkZAU8qd9PfuPISaeeNLp73it5kXSIOmCi0fmQGFoBvlLv4f9Th8bntrt55rN/v4u4Lh4Yuy4vLw0ub7C8o1yU1/3NdukZQPbxrHxxfiSkjw3U5LfhqEwYfTA+0Pei/dPSD5FelTZ70NZAUWfkUjE5CaalgTbxH2Mt14/8xgHTwyC19fXuJZCHPTwYggsw1zpacpQ10qlYo6qVDqjDL66usK1qtobUcU5mPphTvKTrq2tYW1tDaurq2bNEBUjNsfLU0VXUpJKIq7ytJK3+K78DVTIakslxKdXHL2CGKbVUonzh2IE1/2p28PnavsFaSOs7/n5RmMMYQ8aX5ACI6KEPg0hx8fHODg4wN7ennGdbDab6ItLrFZ2KLyKUh2FHU/CthuuD93RwQ3GGF8SsRUkV4a+v34vu6PGQbfNvt5uo/39h8akz6dASyQSiMqOFSceLch4P31fChRN/J/Cu98EtpkY11bfUkT5Xjbz2bT6IaH72x4XzSO67Xx/+zv9bmHQ/Uaeo5Cklfrw8PB3rrkzVlUChNCQ5kcHB4fbEYQYY8iLnHvp8fglGmP4XvogtCy0D40w+arlpH2euEtf6nvoc1D6Bo0YgXjP8Pl9ce/Wu72cs3S7ePB+thJpwz5HWuMRqE0IKtbc/QSAdDqNxcVFQ29s/1365S4YiPs/202Fu16v4/T0FHt7e9ja2sLFxYXxVqARie8TkfLIy8vLmJUKir4k4aUxplqtmsUIjSxU4JmTh8fJyQmOj49xeXlpPFY0r/J5CwsLKEiuiIgy1ujxYr/x/QKlS9PQwtwnXARy4eDLYjMhpXdpIKMRx37GHwWkUcKmadJ+3ypFa3/mwfvxgKVncUHP8Uin02Ysw/jGEyMDP/Nevu+bnIRM7qzphs+23+dTAN+B781zb4Oh2vAfDAYmAXu1WjXpLrh20cYYm571fQg9jp4yKvPwrUqJ9m94f3tMaRxliBvHTRtiOOb8XVQ8CYtSSem+jTE23er34dgEEsnB96VhGdL2rlT9YlgRQ49oZOHRFi8Yyp5AwiTbEv4XiJxNp9MmJ0yxWDRFYpaWlrCwsGD6Q+expBGH9OWpfE80gnHMehJqG8g6hW3hMVDpG7oqwS/fiQYk/Y6ca7VBjbzL/iQd6P/19wT73fO8m40xmnnsGwSW6w+taPSG2d/fx8HBgclQ35bdAw4sXb9SUut7WsqglSXLO63JNkPplyL4Pzv3NmNMWcpkawbj79mJugPDjklwl2s/FHRfaQysOO5AlSyHiofTRKeJemglUAojThvs70mP+8Y4+rafy+/CrrGvn4R29H3uE3b79PhALQx4nU0D9jto6Gvt3w2lQlNfXMEZO30tSbg8meSY8JjGGP0Mu40ODg6TgfMeFT7+T2MM4789qab0pRljOCdxntL/81wg8x3nPJ5DiHz3Q3LKcH7U1/K3k8L+rf0dn+2r/DZRcd2noaDf748YbOzDfgeOte4LzuX2AbWY0P2k2+d5HlpSMSSQHDYLCwumck9UQkHC3vFd4VmbIkPxUuFuLjcJDw8PjUcM+5KbCRDvkbm5OWxsbJhwgXg8bhYe3Bk+lwTArABSrVZxLkl6T05OcHZ2hsvLSxwdHZmqZi1VIQTKQ2tmZuZ3xhh7zMPoizTK90hL1RoaA3wJv2D/8DompU1KkQnSA/vwjwTSm6a5MPqjrmLD7vdISIiGlinRaBQJSSbL8WToBj2mhqo0dkTlDYFqbyKRMIUzSqWSWRPdhrB3+JDQsjMM/G7Sdg6VEaXf7+NSEo1rYwyNkXcxxtg0AWmbHkv7esI+31d5t0gv9PhISd5TymqutWB5IMZiMVMghfJSPy/s812gaQzWO+jx0nMLv6dsGEo1Oho59Hyg5wRP8QnlC7/n/ZLJpAkBLUuxmEePHpkkxrQD0CvJHkc+ayghhhHlTMBDG01ogxiIcYYyj7KY5+kBRMM6jTL83JPQUG5+8Hc2NK9qWtHjp2nsRmOMHjw9aCRYDkS1WsXp6Sn29/dNYqWTkxMTi5uQKkk0wGSlUs/CwgJWVlaMK9LS0hJKpRKyqqSXhj0gQ2vRH9xgjPE8D+l02gw+PWPGdcxt4LPYDn2wj3hMcr/3AbsdPMaBzMZxJZGTMclQfEeEKHH8vZ6s9P3tvgg796Gg+4JtYHv0wWsDZaDSY83PnrKGfmhQyIX1ZaC8mgJFt/a1No14lsXc/qv7LyJWaO0OzjAlTjS2Z4x9TzhjjIPDnUEZRP4equoQNMa0VWnrL9EYQxmjFbCIZUShjKTirK+bZJ4K+z7sXBjs+1P2cm6Bko1UZJlcn4kleX56ehrxeBx9a6dfy3feOxD9RD9L9xfb5Vu7v7q/bBriBhv1rdXVVczMzJhwHyqw+p3uC3qe03zBdhLanT1QnkTsv9XVVbMwYNg8jRz0orm+vsbZ2RkuLi6Miz7nPl3+++joCGdnZ7i6usJgMDDGH7YpGo3+zmMtMkECXY6BTdvs/4wkqUylUoZOUlKtdGlpyew48x4Ra7f5j4Cw92B/8S/BxSf7ILjF25l0r3lF8wMX46SbjCSC5eKc8oX0ST73pOrl9PQ0njx5gpWVFUxPTyMaktNm3Odxbf5QYB/cdkwCrav2JBcaqyldSYLZqBhjMpnMSJgS+xZKD+Y99VgFyhhPOaf/ark4tDaeqeNqOcPn+Cr0aXp62niAkM9pNI1JaXbqx+RXQvfVpP1mg/2o+z7sXnyPqIT/UJZo+Uf5yfUh78P3j6hqw5BcXpB0JEycOz8/j7W1tRFvmLW1tRFnDBoxbXnJsdDge0XFGJrJZIxxJhqNGk8eGs58K2k/2w1VpIUG+KZUgrq6usKVVC6kzL+8vES9Xh/xomk2mxhI/hw914X1O2nlVmMMGVsPIAmQBLm/v4+dnR2TWK5SqaAncXx0Q+IAsAb84uIiVldXsbKyYowwGSkLCcAs5NjhbDAsYapfMLjFGJORTMnlcvl3xhgKM33uNnghOxf8vd1nHxM20fJ/TRjsI/29bR0dWrtgPKjIkDE1cY+DbsNN171P6H7RfWG3h3Su2xw23re98/sEdyLZDhtsG8fQplke5AOoPtH8pr/X8EVwkvcODw/RbrcxlB2gqOz+0eKtXXft+zg4OEwO8iT5m/Pz9fU1Dg8PzY6894UaY7RctGU21MaOJwsofU1geYto3Sfs0DLyLn0ZNm/w2QOVy4Lt8mXeTUsZ7mkpv53JZJDP5xGXnCFU9qk46wUK75GUnAgxCWHRCjgX9Kw2MTMzg2KxaHYy5+fnzUHP5vn5eZRKJZRKJSwsLGBzc9MYY6hn6Pe5T9hzFnWSlJSiTUsuCF43EIXZF8U8k8mYpJFra2vwZZEciUSQzWbNMSX5JCCGHS46IpJThLQCmZv7ksuG48IFjCe6V6FQMN4q2hjD99C0QNqCpa8EsqAk3XHRxIVJLpczc/D6+rrRue0FSRgtfs7QfXjTOd2Pun95ri/hCXpsApUAVh8DqdzVbrcRlfK8MzMzKEjFFl8tNElf9iKxUCjg0aNHmJubMyErur034WOOoaajm45JQdnsSa4s7RnTbDYxVMYYO2eMljGBmiO5wIfFQ74y1lNeho0v35F/eR3lG5/Rk5AcyiAmBJ+env7dWikSiRg5TuMvofvrLn2nofvxpnHgdRGZGygzKUPpUEE+iIhnF9+Z8o+faeRKpVJGztHwsrGxgcXFRRMOynHRbdP9Gkh4LseS46XHmN9p+ed5ngmfolzm7zW/2/QSiNzl/wMJZ6Jxpl6vmyTwDGXikUqlzDzAZ3Gs+fyRvzdVU2IjCDZSN+j6+hr/+te/zE64Zg5ag7PZLKLRqCFEXxKkcZCT4iqpB6AvuzpsPM9DdRI7kN8H4mK0tbWF3377Da9fv8b5+TmSUiawVCphbW0N3377LVZWVgwxcfC6Uk6S5/8IYB+NgyYIEp5NrLxG30uPx+eKSd9H0xphM9LHRl/lZrF5Baqd9v82+K5h39t9oOFLTP3x8TFevHiB//qv/0K9XsdwOERcYqcfPHiAx48fG0WQQoqg3LjpOQ4OXxImlVFDZSweDofodDo4PDzE3//+d+zs7KBarSIIAmxubuL77783PEj5rmU/ldQ/Cm7rQ763VsQ0tPy/TTbZ9w+736TgmATKs5HndTv6/T7a7bZRAvv9PhqNBi6lxDEXfdpgBKU3Ud9h2/ksvQjxpGII/+f3+hreQy9ykskkyuWy2VElOMfY/fWu4P1s3RWyq95ut433JhNM1mo19KSM8dTUFGZmZrCysoKVlRXz7jzIW41GAxcXF9jf3zfhSefn5xiKO/xAdkP5zqSviHifRK3S1qxyRi+iiFWZMYz+bNoivbCt/L8t7vn0SPJ9H7lczujdf3TcxrOw+Fbzl92XlI88Z/+WGMrCdCgh3NRrSH+np6c4OzszizrSYrvdhi8pFZaWlvDDDz9gfn4eGQnrDnsWQtpg//85g31J/fLZs2fY3983/ReRcsWpVAqzs7P45ptv8O2335pxgtKLOW4D8d7XuGk8b0KYLCOt8J5aL+f6mUlua7WakdszUsCmVCqhUCiY+2nctX0EZaLdVkLLGH0NZZ5OcksPJTpe1Ot1XEuiWxqfKYt431wuh1KpZPLC8h05N3hibNP8xXtoWUfZyjaynbr9RL/fR71ex9HREV68eIGdnR3UajW0220EVpJd9o/mXf18znW6HzkHJiUcjTlrYrEYlpaWEI/HzcYGDW3cGPFUrijgFmMMO4SdQoIaSNk1TmTPnj3D6emp6RhapGiMyUldcrpp+SoRHQ89aBgz0ei/hB4Y3/fRbrfx9OlT/Pbbb9je3katVkM6nYbv+8jn81heXjYlBH1lFfMkW35UVQT4kqCJn33C8xwfe4wc/ti4y1h7nodms4nj42M8f/4cf//739FoNBBIQrCUlGh89OgR1tbWUCwWRwQRac8ZYxwc/huaF6g02OB5bmAEovRvb2/j73//u1kwBkGAx48fG2NMsVgcmXu5ULeVVIdPB1pf4bjz3FB5TjDmnbuSNMZo5ZL34Dl9nroe/4d4gPA6fqfvM+7gNfbf9yHn2Vbem32jD4i3SqvVMrubjUYDnlS+yeVyKBaLI7u/VMz5f19y0RwfH6NWq5ncMW0xioW5p/OdB5LfiddEIhFsbm7ixx9/xOrqKgqFAjwJVXH4fEFa49jzHGnn+voa3W4X1WoVh4eHuLi4wNXVFTzx4l9aWsL6+roJ2+Bi8EtDEAQmJPDVq1d4+vSpMcQMh0PjzZdIJFAqlfDnP/8ZP/74o9ElB4OB8UKhDLjvfuT4Elq22XKO1/YllLjZbKIt1YWSksqDjgqTwH72u0LLZlt26oNysyfpCWiMsXOpBDI3ae8wGiZSE+ZBeluQds7Pz/H69Wtsb2/j/PwcjUYD3W53ZD6CMsToTQvyHdvZk7y3UOtjGmV4eJ6HbDaLZDKJjOSqXVhYwNLSkjnvi2GH953IGMMFulbSBhIO1Gg0jKWJv4mIG6Z2eaU7VqAS5/AFtaAi7AHSxGGf57nBYIB6vY5ff/0Vz58/x97eHur1unHTLBaLWFpawnfffYeNjQ3TnkCUG7ogfonKKMdajzdCXA7t/nf442KSsQ5EuYhEIri6ujKeMT/99JNRLBKJBKampowxhrt/FESkK+5WTPJcB4cvAZoXblK6PFUNJJDF+NbWFn766SccHBygVqshCAI8evTIzH/OGPP5QesrWm/ivM2525cwlYFyF+f4epYhRRtjoBRMrZt5sgnHzzxsPQ2SHyDMwGMf70POs728N/vG/j8mCee529uWnEoxCSegJwJ/Q0MX9Va2n+7plUrFLBCr1arJHdBut9FsNs0CpS8erFwYejI/PnnyBH/5y1+wvr5udsTfR/84fDhwd92XzWfSExd8NMbRY6ter6PVagGSW2N6eholKWdNPvsSaaLb7aJWq+H09BTb29t48eIFzs/PcaUqk0WjUUxNTWF+fh5//vOf8be//c0YjwOVE4r8d99zHMeW0OOkP1P2EZQ/NF7Qu4LOCpPAfvZ9QstPW45SJg7EOUN7YHIe8sTb5fr62shV5p5JSJ4z3mv4HrxyPVnX12o1bG1t4c2bNzg+PkalUjHGPMp9ymQ9j9pjhzE86Fueop5sTickR06pVML6+joePnw4kquLz8dtOWNIyDwiyqXRl1rqiUQCxWIRs7Oz5iiXy8YFie6QiUTCTPBhhhgb486HwVcxmicnJ9jd3cX5+Tmur6+NMKS7UC6XM7G5fAYZZKASMX1psPubfWL3kYODDVqKe5IzhooplVcaY5hHIJ/PI5lM/m4RQOHt4OAwOchD5KdAwnVZYr5er6PT6cDzPBOzzd1Wm/8QshHi8GlBz8njoPWsqORToL7Ggwoo3ap5RENyy3jKQKP/D4O+NqLCAyZp97tiknvrdsTEi5vh9Ol0GgnJMaCv98YYo7jRNzMzY/Lm0BWfuSFSKm9PJBIZCYdnCC9z8FBfnuQ9HD5taAOoXth5EsrHDetUKmXyPjEfU7FYRC6XM4tTGlX1GuxLAUPsulLFpyOV0LhgphEgGo2O8KI2akQkrwnH4777cVJ+1TQAMQpRPtMjJqYS4k6Cu1z7rrBlZ0LCcri21rnFeBQKBaP7T0uVqLhUeoMYJ9/nuHgyH9EbUh89yT9DGtF8GsgGVV88S2k89ZSTyrhjIDn7eO+EVFdjvlp6PXIDzbutmhIfykMPBP/yJeyDEzbB3+vJXB82ws6FgW2kq9TBwQH29/fRaDSM8IrH4whkNySTyZgkovrZ+u+kz/6jwh6XL70/vlTYPBp2ENFo1AggVlfrS9JCKv9UUnO5HBKJhDGU6vs4WnNw+G/YfEZQYdCgMWYoMd40xtAl1/d9TE9PG2MME5ny/rznuEW2w+cDPabcqeRhK5xhh74u7JytfOqDOp6W7Vrn43PD6Po+wXfUYBv6kiwVynDF9gzFc4E8Q37g+/M+UDvEntpdTSQSpnAF3fH1AmVqaspUTWHoPpOOakX9ffePw/sFaWfceogYSA4R/oa0GFiLwaHkn/nSEFEJdWnEtI3KiUQC+XzeGLPm5+eN8TNM7ryPRf8k4DjC+o1uF8+z3bcd7xv6Gbpt+pzdHj1HeMpOEMYHfHded99gW3q9ngmj6kl5+ahUjKLBnM9nu7S8Jz/TwKcPGlc1nVLGl0olzM7OYn5+3uRPi0oEAG0U3l2NMTxn/73pgNXhHAz9vY2bvrPB69rtNqrVKvb393F0dIRms2msTr5kLo9Go0in0yPGGPs+d3n2HxFh4/cl94fDzSBtRCQGvtls4vLyEicnJ+j1evDULtDc3JyJxQ8zxlBGODg4jAfnYv3ZU5XSBuI2fHFxYYwxPakYk8/nR4wxWvng3/ehEDncD8Lko6YHe+7W+pvWw+zrNLS+p8/pa2+6h14A2d9p3PTdu8Juv/0srY/y8EJCtfUCQi+ieD96P0BV/YhKaVUmbsxms8jlciZXwvT09IgHjfaGYEj/bX3n8OlD05UeS5sfA1mUjaNFCM35sqD90sD3Jl/RE4P8NTU1hWw2axa+PGIqvItgP943b016PxrG2Q4bvM+k9/tQ0O3R9MzPNo1DGa/13KFpWstofh/WJ+8C+/k0wntiPE+n0yPVq5JSGY9rFnpOTk1NmaJDKakqlUqlRuhQH9lsFqurqyiXy5idnTXGdibw9VTlSzNf3pYzhj/gRKSFhY2wc1CD4oUQoB4QDfteYQMIac9wOES9Xsfh4SF++eUXvHr1yiSv44v2ej1ks1ksLy/jhx9+wKNHjxCLxcwEGhEXJYf/H5p5HBxuwkDCkZgz5uXLlyM5YyjM/sf/+B9YX1/H7OwspqamjIGUMoGTlIODwyjs+U//5bxKF1p6iZIPz87O0Gq1EIvFTAJ7VlPiYpNKC3eLHD59cMzGYdx3Wg8Lm+ft+/LzbXTB68JkeNj9wq57V4S9s30uECOLfr7dPt1G9hWNLhrcYfVk08GTRYmtI9PNXXs58PNgMDDhTgytQEi7HT4/aBrgOohrKSJQ+fI03fB6veZyNAETYsLkt8wd40nY4MzMDObm5kbCfWyevO9+tGWZLU8IOyyGY8qxhvIitNfKHwN2P9n/U96Fvf/ACtHT1/CzLSft+7wrtO2h1+uZClbM60W+4zh0Oh2T64uy3Zf8a7xO8y95kwYcbU+Ym5szRnkacxISAqv7ZWJjDAlFEwu/sztu3MBABkd/x4aEfTfu9/ovQUWy0Wjg6OgIv/76K16+fIlarWYSybHDp6ensbS0hO+///53xpjoF5441B4D+zt9jcOXgUnGOhABpo0xL168wM8//zySwDedTuN//s//idXVVZRKJSSTSXS73ZHdC8qESZ7r4PAlwZ4v9f+eKG5cFHa7XdTrdTx//hw///wzzs/P0el0EI/Hsbi4iO+//x4bGxsoSWlrbkTw+NLnwk8Ztv5kj9MkC467yFd9j7v8TsNuh6bb+8a4Z9mIiIdBoPRbQi9+aYAhj4VBjwV5kPcgGG4SSHVBetTonXIq8/YCxeHzhKa9MDr0xqx5wmjpNp7+I6MvSXc1X7J/tEGz2+0a/mI+NKhNPi6m8R760ebXcWN/03jb142TNzbu+10mvR+NLXbfhoH3tO9t/z/pO98VbNtgMDDluRkaSJkLSajMhOs0mkclpw/fsSc5Mj3hX21DoAz3ZO4gLSYkZy7plv2m3/dGYwxhEwqhCXvcNbAIkA2yr9cNCxvUmwbT9310Oh3U63Xs7u5ia2sLFxcXJjs5dwXz+TwWFxfx7bffYnNz03SaL5Yt7iyGPf+PDhJH2Lvrvg/73uGPiUnGOpBkoZFIBM1mEycnJ3j16hX+8Y9/oNlswpNyoel0Gv/2b/9mSncmEgmzQCTfUyZM8lwHhy8Jer4M1O4q+cW3jDG1Wg3Pnj3Dzz//jIuLC/R6PSSTSczNzRljTLlchu+MMZ8VtM5lb5BxsaK/t/Eu8tWmiUnvM+66ceffBWHvPO457CMaRKD0UCrYfOdxupEG+YcGHKjFhW140bzM+/IZHMfoLZ5IDp82hsrIp+lHjz//p/y2eZq/IW19iTljmLDXk4WvLwYZ3TcQr5OBeGlr3mG/kqft/r8P2LJB398eT7vd+ru3gX2fd4V9v3HtoucIxoSm6t+NuwesXFzaOHGfsPlIH/aYkI7YLk/RHdQcwzbz97yG111fX48YaXyxfWh4ihZvfHP9MD5EH/Z5m1F46OvZAXxRHm8LEkQsFkM2m8XCwgJWV1exsrKChYUFlEolzMzMmFivZDJprFxsE2ELQgcHh9tBvqcFOaFK2jPOMpPJGMsyhZWDg8PdoOdL+6+GPc9CTfz278J+7/D5Y5y+dhtsvU7//raD99e6naa5TwW6vVyk2Yqzvg7yTgMpRczD5i9vTNhBJBJBTCpX6WfFpcoSdVJ+N8k4OXz6COMf0kdfkkSTjmiwC6wFIH/7pUJ7HEDWaQPxNGN/BSr0B8KrWi7p33Ex/THAsWf7+Q7DEEPcpw6OC73bSaccD76Tpu2wd6Qcfh80HkYr5C22PaIMSRFJDs18MFy/0G7AHDKsEK3ltp4ngiAwv/GVoRXWnKJpcWKJrwnbJnJ2JplBCyBbGOmJy77/ONiDp8EX9yQcolAoYGFhAcvLy1hZWTHH6uoqlpaWUCqVjAubLehuasOXgpv62uHLAnnrJprQcsCX2EqWamQyK22QiUulCPKs/QzHgw4O/w3ND3re5fxl/4Xi22g0ilwuZ6q4TE9Po1QqIZFIIFAx3fa9HT5d2LJy3LjZ393XYet09uGFtCMM486/K+z23vQctlkbYahY8130ESgjC/+GzY26n/hb+xn6YKJI/XwuKh0+X2i5HMYbmnbCeFr/jp+/RNh8CUs3JS/afRbWj/ztx4Ruuz7095862K9aXuk+17SuxygMvNbmj/uCTSc27DHwrTlBzwf8Tv/VvKnvpQ09YbDPTxSm9CmjJxVbeAwkJqwtcWEsZcWFYFQycqdSqdDOChssB4cvDVo42cLV5hcmT+t2u2g0Gjg9PcXr169xdXWFIAgQj8eRyWTwv/7X/0IymRy5p54kec7xoIPD3UAeGkh5+VqthpOTE1xeXpqd10gkgvX1dcTjceO5NjU1hUQiYd/O8aCDg4ODg4ODwwfAZ2+M6XQ6I1YqrZTSNYmJeDy1QxGX8lJ6YclrHBy+dExqjLFBY2ilUsFgMDCeMul0GoGVr0DvYOCW+zo4OIRjMBig1WohoSqxkA/7UlGQO+/NZtPMgTxHBMqFOnpLQj4HBwcHBwcHB4d3x2dvjOl2uyOuQlQgtbsQDy789EEwpstT7t4ODl8y9O74pMYYLuhYOcJTsc/Mig9l4HHGGAeHd8NwOESv1xtJhk0epGGFHqADlaRe8x75lkdMlQV1cHBwcHBwcHB4P/jsjTFaucSYBZ0noQ9h3xFMLqTjvxwcvmSMM8aE/Y+Q0AbtXaM/E/aCMOyeDg4ON0MbY7RxhXOajukeB3vjQm9sODg4ODg4ODg4vB989sYYDa1MakXSXvTZoOJKJdQZYxwcJgeNnTbvBWq3PQiC3y0IbZ4cx58ODg7jMRwO0e12RzxggiAwnmie8k4LxuSCsXlv3HUODg4ODg4ODg73h8/eGBO28Btapcs8lShUH1Q49ULS7Qg6ONwNnucZgwt5jSBfDgYDRKwKETaf2f87ODjcDhpemOflJj7SoYLkV/vgdw4ODg4ODg4ODu8Xn70xBmMUR1shZQ4LfqcVT/uvg4PDKD9oHrP57TZPMhpkJuWvSa9zcHD4b9h8E7YxEY1GRzYfeEAZZwD8zovNwcHBwcHBwcHh/vHZG2P0wvAmo0qYMSbss73QdHD4UnGbMYaLN81DBMP+9LXjKrTYPBd2jYODQzgCCbPVIA/ZvBWLxX53PhBjKfk1CAKXwNfBwcHBwcHB4QPgszfG6B13LgrtRSAXjbxG/yXGKa8ODl8qbjLG2Hxih/exnDzhed5IGV0N+142bzo4OIzHOGOMzUeB5G3i9/q8fTjPGAcHBwcHBweH948/nDEGaqePu/ODwQDJZPJ3OSvCYC8MHRy+VNgLNv1Z/8/yuXoBqEtb66TYYfxln3OLQAeHu+EmniF/cV7U+dPGweZJBwcHBwcHBweH+8dnb4xxcHBwcHBwcHBwuE/YBstxmxLcdLjtOkyQY83BYRxsenxXOKO7g8OnATcrODg4ODg4ODg4ODg4ODg4OHxAOGOMg4ODg4ODg4ODwx1wW7gfwesmudbBwcHB4cuCM8Y4ODg4ODg4ODg4KEwaxuGMLA4ODg4ObwuXM8bBwcHBwcHBwcHBwcHBwcHhA8J5xjg4ODg4ODg4ODg4ODg4ODh8QDjPGAcHBwcHBwcHBwcFO0xJhyPpz3bFpHHXIeSeDg6T4r5px6ZNBweHjwPnGePg4ODg4ODg4ODg4ODg4ODwAeGMMQ4ODg4ODg4ODg4WbK+XcZj0OgcHBwcHBw1njHFwcHBwcHBwcHBwcHBwcHD4gHA5YxwcHBwcHBwcHBwcHBwcHBw+IJxnjIODg4ODg4ODg4ODg4ODg8MHhDPGODg4ODg4ODg4ODg4ODg4OHxAOGOMg4ODg4ODg4ODg4ODg4ODwweEM8Y4ODg4ODg4ODg4ODg4ODg4fEA4Y4yDg4ODg4ODg4ODg4ODg4PDB4Qzxjg4ODg4ODg4ODg4ODg4ODh8QDhjjIODg4ODg4ODg4ODg4ODg8MHxP8HYs98pUqBJt8AAAAASUVORK5CYII=;" parent="1" vertex="1">
          <mxGeometry x="459.93333435058594" y="391.59996795654297" width="1123" height="152" as="geometry" />
        </mxCell>
        <mxCell id="icfO6rmQttoz7ublhoc3-3" style="edgeStyle=orthogonalEdgeStyle;shape=connector;curved=0;rounded=1;orthogonalLoop=1;jettySize=auto;html=1;entryX=0;entryY=0.5;entryDx=0;entryDy=0;strokeColor=#E07A5F;strokeWidth=6;align=center;verticalAlign=middle;fontFamily=Helvetica;fontSize=11;fontColor=default;labelBackgroundColor=none;endArrow=classic;" parent="1" source="icfO6rmQttoz7ublhoc3-2" target="icfO6rmQttoz7ublhoc3-1" edge="1">
          <mxGeometry relative="1" as="geometry" />
        </mxCell>
        <mxCell id="icfO6rmQttoz7ublhoc3-2" value="" style="shape=image;verticalLabelPosition=bottom;labelBackgroundColor=default;verticalAlign=top;aspect=fixed;imageAspect=0;image=data:image/png,iVBORw0KGgoAAAANSUhEUgAAAtMAAABuCAYAAADlP5+zAAAAAXNSR0IArs4c6QAAAARnQU1BAACxjwv8YQUAAAAJcEhZcwAADsMAAA7DAcdvqGQAALlJSURBVHhe7P1XcyRLkh4MP1laF0qhoGUDLY+YMzs7RuMauVzxt5b8Vbxemi13dkfwqFbQWpXWujK/i9ef+BzZhW50T58+qtwsDYUSmREe7h4eLi3bth1MYQpTmMIUpjCFKUxhClN4b/C435jCFKYwhSlMYQpTmMIUpnA/mCrTU5jCFKYwhSlMYQpTmMIHwlSZnsIUpjCFKUxhClOYwhQ+EKbK9BSmMIUpTGEKU5jCFKbwgTBVpqcwhSlMYQpTmMIUpjCFD4SpMj2FKUxhClOYwhSmMIUpfCBMlekpTGEKU5jCFKYwhSlM4QNhqkxPYQpTmMIUpjCFKUxhCh8IU2V6ClOYwhSmMIUpTGEKU/hAmCrTU5jCFKYwhSlMYQpTmMIHwlSZnsIUpjCFKUxhClOYwhQ+EKbK9BSmMIUpTGEKU5jCFKbwgTBVpqcwhSlMYQpTmMIUpjCFD4SpMj2FKUxhClOYwhSmMIUpfCBMlekpTGEKU5jCFKYwhSlM4QNhqkxPYQpTmMIUpjCFKUxhCh8IU2V6ClOYwhSmMIUpTGEKU/hAmCrTU5jCFKYwhSlMYQpTmMIHwlSZnsIUpjCFKUxhClOYwhQ+EKbK9BSmMIUpTGEKU5jCFKbwgTBVpqcwhSlMYQpTmMIUpjCFD4SpMj2FKUxhClOYwhSmMIUpfCBYtm077jfvC7Ztu9+aCB7P3Tq74/z/H29Z1q3PpjCFKfw0YTQaYTwew+fzwefzAcLLtm1jPB7D4/HAsizzV4PjOIbvNf97vV7ze97ftm1zH31p4P0tyzLXrxWIW6/Xa9bDtm04jgOPx2M+H4/H8Pv9gAt/k/7qNZrCDw9u+nXzC1+PRiOz1pZl3eIV/Z7jOOZ9933H4/EtvuE9CG5aIPySaIJz5uUGjcNJn/9cgbTE+fHSuCDdkHZs28ZoNMJoNILH44Hf74fX6zX3+zXDVJmewhSm8N5AwauVZb3R37UJY4JyQKA8ccsE90anf8/v6L/u17824IbI13qD1O8RJuFPf6a/O4UfHtzrcBe/wLV2jihG/N99H/d77ntB8eAkXnrXb3+uQGWSMIk3IHqMG6c/V+Ah2722k+an6Ya06KazSb/7tcEnUabvQrabISd9ZwpTmMJPF6w7lK27eNmtyOnXw+HwDYv2JNnxPnLn1wzE0yQlYNKaTYK71ncKnx7cvDNpXenNccRirb0R+rvu32HC/fmdSb/7JdGEnvckHGgZNAlvP0eY5PXTc9N4uGv93bh6m9H01wCfTJm+D9z3e1OYwhR+XNAbNP/qTUd/777/U5meJNwJ+lnu9ye9dn/v1wCWuOv1Zqk3Qf69a/Nzr9EUPi28jX71+rn5wLIsjMdjoyj5/X6zxuPx+Nb39O/Iy/xMA/93P+eXRiOaP9z4d/POLwEoH7TRgkAcuPU7y2XkgLoP6e3XDJ9EmXbDXQw7hSlM4ecBw+HQxM15vV4To+kWyvqvG+56X4MW7HwdDAbfqgjy+3cp5L90sESZZjws14Z4IS4DgYD7p4BrXRyXRXMKPzxw3TBB8cWEcChHDkYej8es+3g8RiAQgEcs05pX9f0Y/0plOxgMvvE8PZZfImganzRHypRJn/1cgXNxy1ZeBNITac7j8cDn8xna0ve4Syb/WuCTKNN6cTBBQPySiHQKU/g1wGAwwHA4hN/vRyAQuJOHKWjfBvwthTEVPgp5ygutHLv/EvTm8GtWppmcRgUKcgAiPn0+3xu4oZyeJK+n8OmAiq2b5qnokDeY+Mvvc01tSRLje+PxGIPBAIFA4I11dyQJkfd2K0ST+OyXRg/dbhcQ+cMLSpZQoQwGgwbnP3fQa6hlLRQeoOiDNMLfeiT50E1Lv2b4JMq0+3vWLzQOaQpT+LUArVnM5nbE+jUcDmGLy8/n88Hj8dxyMRMm8b5HxXfqiwoFr+FwaF5PUphpSXFb4X5NQBwRB+PxGK1WCwDg9/sRDocnbn6T8DXpvSn8cEB+0UoNlHJH+vb5fHAcB/1+H47jIBKJ3KriMhqN4PV6MRqNMBgMEAqFjCvetm0MBgPDJ4yv5l6t13wSr/6SaIIHDy1joA4vEHwRR78E0OtHerkLLFdYD/FC+asV718zfBJlWm+mboLVr6cwhSn8PICWDJ/PB9u20ev10Ol00Gq1MB6PEY/HEY1GEQwGjeDVMGmDngR8jv4LpWhQEdBAZcOtjPxawHGcW8mctm2j1WqhVCrBcRyEQiEkEglEIpE31sEtn/VnU/g0YN9Rqs1WIRy8er0e2u02ACCbzSIcDt9Ssrn+o9HIhEcNBgN0u100m02MRiOEw2FEIhGEw+FbvOSmjbve+6UAlUTqK5ZLWfwlARVfriNl63g8xnA4xGAwMIexaDRq4u8tFS42lhKovKbK9CdSpvWGykXBVJmewhR+tuCI1bjX66FSqaBYLKJcLsNxHORyOeRyOSQSiTfcgZrn9ftjiRXVwnk4HKLf75trMBhgZmbGWMRZ59q9KfxalWkqBLRMO46DXq+Hy8tLnJ6eYjweIxwOI51OY3t7+w05TNmsryl8WtB7pcY/lWJehUIBpVIJzWYTPp8PKysrmJ2dRTweBwD0ej1zP0jIx2AwQK1WQ7FYRKFQMPyUSqWQTqeRzWbN83DH/jzpvZ8zkE/GEg7T7/cBwZff7zdx5L8kZZEGBxojbNvGcDhEp9NBvV5HtVpFp9NBMBjE/Pw8ksmkOWxRxvT7fXgkhprv/5rB+z//5//8X+437wv3RZ5WujUTToX2FKbw84bxeIxKpYLz83McHx/j6OgIxWIRkENzIBBAOBwGJli13Hw/Go1gqeYStm2j0+mYzf/q6goXFxfIZDK3Go7QmsZ7Udi77/9rAOLPFkt+t9tFtVrF/v4+vv/+e5yfn6NQKKDZbOLhw4cGV5Tl7rX5teHvpwCTcM810tbpFy9e4Pnz5zg5OUG1WjW8psM9LImPZ7JpvV7HxcUF9vf38erVKxwdHaHRaKDT6cBxHCwsLKiRvMmz7vd/KdDr9dBoNFAul3Fzc4NarYZ2u43BYADLst6aF/JzBLf3bjQaod1uo1Kp4OTkBDs7O9jb20OhUDDzZsw95QvDY36NRotJMNEybSs3E0ELW75PMz8/Hw6HaLVat1y+9XodHo8H/X4fvV4Po9EI8Xgc8XgcsVgM0WgUqVQK8Xj81oLYto1+v29OT6FQCJBYQMip8WMCFf53HRC4cZMYtVVsLB3hoISf+7XGH9/X89bP17/DDzDn94EPESRvw6VlWRgMBiZuLxgMGleSI/G3g8HgVocl/dtJr6dwN7jx5KYzwqTvTaJfKms+nw+Xl5fY2dnB/v4+zs/PMRwOsbGxge3tbWxubmJubs7caxLw/rSckSe8Xi8uLy9xfHyMy8tLI0vW1tawtLSEfD6PZDL5hhyihVvTziTBT8XEUgr528BRWesaT5QdlqvLnBt3BP72rg2I35+0RnqcHM9YxdhyLpRPjUYD5+fn+OMf/4j9/X1YloVIJIJUKoV/+Id/wMLCAqLRqPmNxg/X4b6gx0s60XMhzfAZVGAcx4Hf70coFEK320W/34fX60UgEDC4nQR6DUKhkHFN834Md7BVmUC93lQ4iSu9jhrfVCD4PD0XCN69qnunLXsWlVr9u/vAWDqAElfaszMajczh6JtvvsHZ2RnG4zFisRiePXuGx48fY2lpCV6vF/1+H5FIxOCxXq/j+PjYXGdnZ+h2u8jlcsjn81heXsazZ8+Mt8erYoRJ25o+IpEI/H6/wSFpU8sG95z1mr0LiOfBYGDGA9X5kWPSOHbDQBKlue5MIuT3yc+dTgfX19fY3d01HpxYLIb5+Xl89tlnmJ2dBdS+70g1HNI5P+t0OiaGPZFIGNzz0soonw01V9KgR/ZB0lQkEjHeOSYSh0KhW/sm73Mf4Bwc4RXHcVCpVHB8fIy//OUvuLq6gm3biEajyOVy+Lu/+zssLi4iFAqZ9SbodbAl5G84HJq8jG63C4/Hg1AohEAggF6vZ8bJv8Qj6cuSJGri423ANSHPE2eUZ9wHiFM3THqP+HwfmKhM65u7BYEmHm584/EY/X7fnOxarRZarRaazSbq9Tr8fj/6/T663S6GwyESiQQSiQRisRji8TgymQxmZmYQjUZNkoTX6721sf7QyvQkhMJF5LZtmxP+UEqDkTFtOalxQQkUAJoJSXhucBOY+y+tcT8G3CWs3HAf4ofcb6RaRlPAkAkcEcaBQMDgimPQY7nvuH7t4MaTm7YI5G9HKYK8tMDj2gWDQZyfn+PVq1fY3d3F2dkZer0eNjc38fjxY2xtbd2ydvEeejwcg8/nQ7fbNTxiWRaOjo7w+vVrnJ6eGuvb2toaNjc3sbq6ilwuZzZKjnssGzsFM9/DHZnqnNO7QN+b4ydu+JpyQP9PuiZv8Pt8Lsetn6P/Qm1+lB1ULjgWvTZcH8dxUKvVcHJygn//93/H0dERvBIDmUwm8fd///dYX19HIpGAVxLVNM5sUQrvC8SFHo+eC/l6OByi2+2aUANHFJNIJIJer4fBYACv1wu/32/kvX4GQdNQLBYzvx1LYqxPKlnw4lyIc8ocfen3iW8qQKQR/X3OmYoV//f5fEin04jFYgiHwwgGg2bveBcQR5SLgUDArEdPQna+/fZbHB4eolQqYTweI5vN4osvvsD29jYWFhYM7ig/B4MBzs7OsLOzY7wT1WoVo9EIsVgMiUQCmUwGKysrhnc0jcOVpxCPx5FIJBCPx02cNpV+0jvpSd9Hr5kG0gv5kTh3HMfoAaR14sKSQxH327HE+1IJ43rBNXb9PqHZbOLs7AzfffcdDg4OMBZlenl5GX/7t39rDiiOGHocUUIt2cd6vR6q1SoajQaGwyF8Ph8WFhaQSqXgkSTs0WiEgCpXqPHhqKoZeuyca7/fR7VaRa1WQ6vVguM4SKfTSKfTt0Iw7sKvG/j8sZRQBIBSqYS9vT38x3/8B25uboysSKVS+Kd/+icsLS0hFArdGiNpg+tCT2K32zV6X6PRAOTA6/f7Df44Dv6ea0Sa0TLzXeARPuV68HfhcNjk74RCoYlrzzFomPS9d8E7lWkoRLkXajAYoNfrGQt0sVjEzc2NcRt1u130ej0EAgEMVVB7JBJBKBRCKBRCOBxGMplEMplELpdDJpMxTKoJjookBfL7CPn7gnt+jqpQwBMuGaPf7xthARXP5pcYKzJtNBo1p1MSh09O/m7QeOfc9f8/dWWazIl7fp90NZZKA/V6HZ1OB+PxGKFQCPl8HqFQyKw176nvfZ/nTOFNPLmFGUF/TysL/IyCjptWKBTC+fk5Xr58+YYy/ejRI6NM87daWLqfB8BYdSiod3Z28Pz5cxwfH6NcLiMYDOLBgwd4+PAhNjY2kM/nb92H9ET+4vgdl5JH0HN7F/Ded8mewWCATqeDdrttlCFukCN1cNQ4dW+A+jP+D3UYt8TlHI1GEY1GEYvFEIlEbgl/jySZOROUaZ/Ph0gkgpmZGfzDP/zDj6JMN5tNXF9f4+DgABcXF7DFSBGJRAyuSCOMX9XPmPQ6kUig1+sZucyNlfjXcpfj4hwnrQfXzlJlBN00BlmXwWBgrLT8jsfjQTabxfz8PPL5PNLpNKLRqBnv28BSCoElex+f02g0cHh4iK+//trEtQ6HQywtLeE3v/kNNjY2kMvlbllEh+Ix3tnZwcuXL1EsFtFut80cLFFKg8EgstmswYu+4PJ85HI5zMzMYHZ2FnNzc0in00YBtkX5K5VKt+hAX3DxJvHOPTQejxucci04Vj6DYyGNdrtdY8jr9XqwLAuxWMzwSCAQMPTgCJ16xSNDPvn2229xcHCAkXjQl5aW8Lvf/Q7r6+sIh8NmjBzzeDxGu91GsVjE0dERarUabNtGPB7H1tYW1tbWzFpwbuRVjQviSI+P+HYcB2dnZ7i4uMDFxYVJJF5eXsbKygoWFhaQTqfNgY40+Dbgs8d3KNPX19dGmU6n0+9UpgGg0+mgWCyiWCwaBbrRaKBarWIsMpk0wjEQOG7KH4/oWfo7dwEPch4xIgzFcu/3+5FOpzE7O2sMtgw51DDpGRzj+8BEZRoTHsAF4vuOEGOhUMDNzQ2ur69xeXmJi4sLtFotI8whsTZjEZK2KllF5IXDYUSjUSwtLRn3LYmQC8bn/VDA++tncHMkg7bbbZPwQQuIJgxbXA2BQADBYBDRaBTz8/OYn583mdSOOgiQWEjMGudu/Dti7fix4D64d1TiE+Gu31EYjkYjNJtNHB8f4+TkBLVaDR6PB/Pz8/jtb39rEtig7nWf+0/hNrjxpPn4rve5iZIv9DUU12kgEMDZ2dkbyvTGxgYePXqE7e1tLC8v3xKSHIv72bwvRJjZto3nz5/jm2++wcHBASqVCgKBAB49eoQnT568YfV21GZEBYR8rYWjM0Hpc+PnLhiLMs17aL5sNBq4ubnBxcUFyuWyGQs3Ur7W8yY+9Ht3vYbwTSgUQiaTQT6fx8LCAvL5vBkT788NpVqt4uTkBH/4wx9uWaZnZmbwT//0Tz+KMl2tVnF0dIRvvvkGR0dHRskIh8Pwi8uZz+fhatJz9L2pTNNgoxU70nFArLQcC9cESknzTnAHa5rl83iNJNaUGzVpuN/vI51OY2trC48ePcLGxoaR8+8CS1nlOKbRaIRWq4VisYiXL1/i66+/NvgdDod48OABfvOb32BpaQnJZNLITMbMX19fG+9Ro9GALQcYjxy8BoMBACCdThu8cAxQoSyaj1OpFNbW1vDkyRNsbm6asVOmf/fdd2g2m+ZgqflAX9wLIPSdSqWwsrKC5eVlzM3NmXAB0rYlhx2uGXmb87y+vkapVEK73cbS0pK5TyKRwHA4NLzhlQPEYDAwNPn1119jb28Ptm0jFothcXERv/vd77C9vY1oNAqfeDv4bCqQe3t7eP78uVGmU6kUfvvb3+KLL75ALBaDx+PBcDg0OLSV9d4rXhjymtaT+N7r16/x+vVrE0rnOA4ePnyIx48fY3NzE/Pz8++lH5B+xyLDHcdBqVTC/v4+/vCHP9xSpjOZzDuVadu2cX19jbOzM1xeXhqvR61WQ71eN4ZIS0Jt9Djg2mO4ppr+3gZe5Z3oSYiJZVkIhUKYm5vD8vIyFhcXMT8/j1wu5/45MGF/dP9/H5iYgEgm1RMlIrgAI4lpvbi4wOnpqUHi9fU1ut0uLMsyQjuVSmFmZgYzMzNIJpO3EiSGkkHaarXQ6XQMU2ezWSP8+FyO5UMm+i7QzN7v91GpVEwG/NHREfb29rC3t4fDw0Ocn5/j+voahUIBxWIRpVIJ5XIZlUoFtVoN1WoVZ2dnODw8RL1eN9b7fr+PsarNq4nHDZq49PVjgX4210L/z/co7LTQ1XPlfTwixImr7777Di9fvsTx8TFKpRIAYGFhwVgUoMagx/Jj4uTnBPfFE4U8hRgFFTcBiEJpqZjkSqWCm5sblMtlNJtNjMdjpFIpZDIZZLNZo+xRhkB1XuPmqoUzaQaAOazXajX0+30Eg0HkcjnMzc0hl8vdsvaRfylMSYt6U3JEAeJGTrqdxIOTgOPja256EGX66urKWA4pEykXWX2hUqmYq1QqvXGVy2WUy+Vbr/ndm5sb1Ot12KJUJxIJpFIpg1fOh+vX7/dRr9dxfn6OWq0GrygQ4XAY6+vrSKVS5qBvu3Jl9FzfB9y8TuDYOKbDw0OzXwzF08H9hWGBVI71NRRPIS8qa7RMj8XIoeWFz+dDOBw2e5f+S/qzRVnja/2+vrS8syWml7GrthwAqLDOzMyYQ899gQdVTb9DsS6XSiWcnJzg8vISjhzkIpEIlpaWsLCwgEQiYdzZjUYDpVIJx8fHeP36Nc7Pz1Eulw2O9BzJn/pAwjEQl5oWCoUCxuMxEokEFhYWMD8/b37T6XRQLpfxhz/8Afv7+zg9PcX19bWREdwnm82m2fcbjQZqtZpRRsPhMBKJBJLJpLHscty0wELRmi0x4efn5zg6OsL+/j5OTk7giIUyHA6bUAgC5YxXDiv1et0ogh4Jr4nH40YR4wHFVrlSw+HQ5CWcnJzc0mPm5uYwNzdnPNUcZ6fTMYr/8fExqtWquScNj7arGlFfwjyq1Sra7TZ8Pt8tOZhMJt/gt3cB6Zg4abfbKJfLOD8/R6vVgiVesEgkgo2NDSQSCfgkDp60SbBtG8Vi0dAmjY46iZNzIQ9PujSPM7Khr6o5Tbo6nQ6azSZ6UiayJ7l5kDUOqMTcRCLxBp7c/9/13rvgvSUlhc1oNDKW6MvLSxQKBXMCCQQCSKVSWFxcxMrKinHLPnr0CI8ePTLxjgsLC8hkMohEIgBgTt7FYtFsnvY9TiYfA7yi3Pd6PdRqNVxdXRlF+uDgAIeHhzg+Pkaz2YStNh0KfxIBFWde19fX2NnZwatXr7Czs4PT01OzGXpFUdHCGT9BRfou0OPWjKkVJ47b/Zqbd7/fN245j4pPHMmh5lOt/xT+P9AbDF9r2htLXCIF/lCscANJJOUaQoQmFR4qLVqQjlxJVhS2lC8jFftGmqHgpxwiaFokX7p5h/fwqQSr9+Wrt/Eix0AlxH1p0Pd513cslZNBPNpKseN3CdyEeXE93dePCZYouIwlJt/reem5ce1Il/rS6+sTl6++33A4RE+S4tvttlHeeU/SnV4H4tl92Sp0h/9bEo7CjdyWg46O0xxPaFx0F2ga9Ygs7PV6aDabqEpcLvnI6/Uim80il8shFosZw0O328XFxQXOz89xcXGBm5sbVKtVDCQePRaLIZvNmj16bW0Na2trWFhYMNbcpaUlzM3N3YrJhTKYUPm7y9jhxp2bdseKT/Sctfzh2vC5pA3NP5pexnIQ63Q6gBxMer2eWXOPyBrSnL6XHr/mEVsdmLXMgcg43n8k1YiIF7d8sUQu8dDNJNLnz5+bKkhUxN0X5aEeL+Ur5eT70BiBPKb/J561fLkP9CShuNFooNVqodvtwlYHo1QqhVQqZQpP8IpEIrde82Jc/n0vxu+HJNHR5/PdwhGBc5wEmg7eF95pmXYTGhdtNBoZKy1jZEbiXstkMlhcXMT6+jrm5+cxNzeHbDaLdDqNVCqFaDSKsCRl+Hw+DJWlwRb3UzqdNlZJLfj/msm+DSypLtFqtUypLx4SyuUyGo0Gut2uEf4U2BocsbT3JFvVJy6hvqpkQuJiML7XVZ/xbXN722c/NLzt2Xr8FCB3rZOmK4bNXFxcoFAoYCgufr/EzK2urmJmZsa4hXg/fd9Jz5jCm3BfPGnlhMobN25aC2gxHIpX6erqylhMaYWISBMI8vlA6rfyotJhyeZDXulKNQd+hxYtHq79fr8RnrFYzNxbK+jcdDh2buBQGyXn6VbI3gWOiucm3ZOHe3KQbjabRlYwNyQYDN66qIRwY9eX/tz9fjAYRCwWM1b/TCbzhlXKEuUbEqpGy1m9XodXWaZXV1d/FMv0WA5kLenIyE0zFouZPBqOkRYlvQEzBlZfyWTSfMZKUT7J7CdN8LmWuIDjUlWKz+Gz9ebOe/L5pGuuK3+j1ygqcaaLi4tYWFhALpdD3FWt6m1A3PH7PTHwMITo6uoK7XYbHo8HMzMzWFlZMV6GsIRE1Ot17O7uGo9ItVpFSxLX4vE4crmcibmdnZ1FLpdDNps1MdCzs7Mmzpu8pBUsj8eDTCZjFO9kMmnoxxHvz9XVFTwSxsl10rwQEIWHlmMePlKpFGZnZ5HNZpFMJs0+y/uTf+FSjHq9HupSI5mGPSpWXJuwHAq4T/H33W4XlUoFZ2dnxoPjE29GPp/H0tKS+T7XaCA1u29ubozV35bKVDMzM1hdXcX8/DxCKu9nOByiWCwaS/bp6Sl6vZ6hx2QyaeQL5+lIpQ2GrzSbTUCqqegkxEk89zbg3Hmo0JbpZrMJS+Vn3McyfXV1haOjI5TLZXSlggfHSPrKZDKISsQCIxWSyaR5zfdnZmaQTqeRyWTeeaVSKXMfLXsskYMB8TAwSkKDxtn74G4SvFOZ5v98EDeowWCAnZ0dFItFNKWTEge9tLSEzc1NPHjwAHNzc5iZmbl1eqAQCoiizJMdlWmv14tEIoGodFALSGyXeywfG+h+ubm5wenpqVEQelL8nvOjUKVCzNO0R6wIA3H7JRIJI8CJS4+cjPV112K6CePHhLuer+kEb3GXO3LapXViLPWJr66ucHZ2hnK5DMhzqEyvr69jZmYGgTssH+7XU7gb7osnfm8kMZrNZhOdTsdY9er1OprNJprNJhqNBupSt7ZcLqPdbt/a8LiB6Hvx6nQ6GKm60l6v19xfWzdubm4MH/b7ffjEmkkFxpbyb51OB71ez8gSWqeo/NPLwWd5Jlg27wPOBGXaoyygY+WeTyaTt+SeWzGjUuhW3NxKXCwWu7XRUOmhIh2NRt/gOyrTfRXmQWU6EAggFAr9aMo0x+CVqhCzs7NmPrRIcTNNSyMRXnpT1tf8/Pytz9PptHHLj8TLRctkREoDLi4umuQ5vYG7lcp8Pm8UzowkMiUkBGFmZsYoywmxvuXzeayurhpjUlJCFe6LSzdN1iW5n5bmYrEIW4wys7OzePDgwa0EuW63i+vra7x+/foW7wwGAwQCAZOT9PDhQ2xtbSGfzxv8rq6uYnFxEfl8HgnJV2m32+hIyTdaP5PJJBYWFrC8vIz5+XmEw2HYEqpA/up2u5iZmUFGDn4az26eyGQyyEmTp5yU6kulUoio5FrKCv6FCs+E6Cbk9263i4YkwdnqABCPx80Y9e87nQ5KpdIbynQoFMLs7CwWFxdvrZ9t22g2m0aRvri4QL1eB6SyzOzsLFZXV5HP5+FXXrfBYIDr62ucnp7i9PT0VjhQLpfD7OysOWTwchwHRamzz1A627YRiURu4dbNb+8CyjCtTPNA8dco0/V6HSNJTteHtqWlJcOn+Xze8BVfMyyG/y8uLpoQm7ddvE8qlTL6KQ/P3W4XPp8P8XgcqVQKWWlKxLFrWXWX3LovTExAtFzZzB7lbhmKW7fT6eB//+//jUKhYFwqYTHnP3jwwGSyQp0oOUhanprNJkqlkgmsr9VqGEl70wcPHmB7e9ucnENS3/CHAlpJGXO1t7dnmJGnZQqBmJQ7CgQCtxZuPB6j0WigKXGjtsRxuZWAmZkZQyQkAkxQEt2L+kPO/12gx0Jm0he/453gOnfEUqFxRYvJ8fEx9vf3UalUEJROU8FgELOzs/jHf/xHLC0tIRaLmfvrv+7XU7gb3HjimrlpyrIsYwnjxt0Tr4qjLFRcR8uyUKlU0JEqLB45UNqSjEurFA+dpGsqUuSreDxu4inbUg3D6/WiWq3i6urKuKi5GVIBC4fD6PV6ZuPxSKKPI5unRxRfvfFks1nEpUvcpI3hbWBPKFvFvyM5SPd6PZRKJbNR8zN+F2o9Jr036S83d4/Hg6BYvMPKmkrlgGMhDur1Ok5PT/Ef//EfOD4+hs/nM5ah//7f//uPkoDokQPNUHnxxuLBu7y8NB4IGiy8rvAUS/YnjftIJHJrHfv9Pi4uLnBycoKzszPc3Nyg3W6bDX51dRUPHz5EThKShuIdpZwOqvq9nAfXl8rlYDCARyo2cb4+sbRGo1HExRqt8XIf4PfG0i789PQUx8fHODw8xNnZGer1OpLJJObn57GxsYHHjx/jwYMH6Egy3PX1tWnMUiqVMFClBvmbzc1NrKysGNlKPHK+/X4f5XIZJycn+Mtf/oKzszN0pLFLMBjE559/jgcPHmB1dRWzUoOZPO8VT02hULilSLqBtAHVEIQHnqDEGRPvQ5WY7FHlAimH+AweOo6OjvBv//ZvZrypVMpUPJmfnzdGGuK4Vqvh4OAAf/zjH3F1dWWMfclkEp999hn+63/9r7cUyW63i3PVqOr8/Bw9qVw2OzuLjY0NfPbZZ1hbW4NfJdW22228fPkS3377Lfb39w2+Hz58iM8//xxPnz5FUCXoQfC0t7dnyvYVCgV4PB7k83k8efIET548MbqWxunbgOs9lvKm4/EYhUIBe3t7+MMf/mC8ColEAvl8/p0JiKPRCC9evMC//uu/4ubmBrYcEDY3N/Hw4UMsLS2ZAy75lpetQmcs14HpPjxjS95CvV7Ht99+i+PjY1xfX6MlFcJyuZzB7+PHjw2vQulZ+j28Bx41vNMy7X7QWPVu/+Mf/2jcr5ASJeFw2GxYyWTSMIG+h94YHBH4lUrFbAC2xJzxtB+V8nJQk7wPkt8HilLzlJbS8/Nzc6qZmZkxp/CFhQUsLi5iaWnJlKVZXFzE8vIyVldXzekqHA5jJPFUPNV3u11jQYuIa3JmZgYhqaGt5+Re3B8b7jMWro3+68hGOXQlGuzs7KBUKpkYQMhhjPMOhUJYX183Vh1MUDLcr6dwN9wXT47jGIswk25PT09xcXFh3IylUskk39brddRqNQxUpzDeoyOJIZVKBdVq1STV8be0PrfbbbRaLeP6vLy8RLFYvPWZVlxardYtAUoXa6FQwLVklJ+dnd0aK8PQvGIV5cGNMue+SqOWP8QpDxpeCaGISh1nbTmlpZPWFMoJXtrSwv/153Tl0iqbTCYRCoXMBs8xkd+ovHe7XdRqNZydnaFarcIShY/89WNYpikPPBInS4XLtm1UKhX0pKwZLcg8kIUlHEMfIkLi5Yy5QkQCgYChPya2tdttQCyHuVwO6+vryOfzxkMQkQSlhCTx+SUEh+NzRHmjTO9JqFI4HEYmkzFrFJUmOJzzWAwt96WxXq9ncNRut3EtFSpubm5QqVRg2zZyuZwxyKSk6VmxWMT+/j52dnZwcXFh5s8DSy6Xw6NHj/DgwQMsSLOesav5BvfrgYQHFQoFnJ6eolarwZFGIclkEk+fPsXGxgayUiiAnh994KFC6hcPbOCOsCUqj6RZKszE91DqNgfEmzFWpS+JW494fKFwTqWTVzAYNN6PoGreMpaDXK1WMwmxNJaFw2HMzc1hZWXF8JcjSjHlTalUQqvVMgdA8v7S0pI5UEGUvqGEeTCG3SeNquiNSSQScKS2NudGvYHr3+l04PP5DB1nMhnE43F0u12D+/sA58JDi7ZMtyQBMShhZe+yTDsi84+Pjw2fhVTIzszMzC0vgwbehzKDSrQ9Ifl30gU5ZI1GI7Nv9KUKkOM4SKVSxjqeSCRuPdd9/TXw5swErDusjCSIrmRaEqm2baPdbsMr5VQikYiZLImQxOGIkA5JNjoXiQwHSaDgM8jwHzJhIttRJzHHpZCPpVZkXeKtyBh6Q8zn83jw4AHW1tYwPz+PtBTkd7tm6XJcXV01XeByuRz8UkS/I67nRqNhlIyhxPHp+dnKYsWx/5hAwuSYIPjTwsqrYrxooeuJ271er6NQKJjT/Pfff4/d3V3c3NyYjZWuSFssHFR0JhH8pPem8G7Q6+i+yKv8HhWHbrdrrHFcE8oALfS58fE7HpVUxLUl//UkvphKSa/XQ0GqXfCQ1ROLuEeU6FQqBZ/EwQ7FqtlqtUy4SV1CRGg11MpUo9FAUdVApcD2KZfvu4A4cgtyzpH3BICgipd2K4Hua9JnWtHgvcJSOs4S2UwlryoVcVg9hBbZo6MjE67WE+u9V7qUtdttVKtVY8U7ODjAwcEBTk5Obl0XFxc4Pj7G6ekpzs/Pb91P8yYPFJofnQmygjLCkj2Dr0eqmgJlxOHhIS4uLsxByi9WTypn3C9CynrN53pEefJI8t/A1U3VEmWdOPSJISigkiGJZ6jEXAC4ubkx3lR6MXuSQK1pyaPkIvdSTUMaP47sj7Qij0YjVCoV7O/vY39/H+VyGT0JN/RIqMrs7Czm5+cRj8dRrVZNVa3r62sTfumT5jE0+FD5DquayVRiOV9bDjXn5+c4OztDW8K3fD4fkskkVldXsbm5iaSKZ7YkPM8ShbzVar0xf/7Pi7RiqaS9oKp8wUvji2Mk7kgPHLfP50NCKozMzc3BJ42g9GG+Jk1FeD89Fo/sX/SeU1HX3xtJ2FBX6lrTKODIYSObzWJ5eRlhV/UYj6Jhy8UjlKEQKz2/x99YLtoh73iVYZJj5734DK4x10njk893RKa3220z75FKIO9LmNSkAw9lMZ/F33YlAZEyzBG9gOMgcBzuS+PczS8Qb5LWEf1+P2KSRwPVs4D0MlDlmqFkkl4L56/Qtd6qTGuEERzZZHkSJRE6QoAeccFw0+O9oBRE3s8nZX2Ski1MpTQcDpvn2hNKFLmRehfw9/z+JEQ5qg16TWoi8mTKeC/G9czPzyMjTWVCkqXNufGvX1x82WwWKysrpp0yXYEktJYkOrqVaYJ7nved86cCjlfTiSUhAnTNn56emk354OAAOzs7ePHiBb777jvjem1IO2GvuH2piHlVB0yNG/drPZ4pvB3cNKT5QvOlR5QLKnBvU/742icWCwpfyKYQkeQxv7SL5uGTiiGtVH45PGle12vKTXOoatZq2cC/jqoOYqmM954kJ2kLJefqmWAtuQs4JuLKUvHhWma56VXPReP7vpceJzc0W1m6Dg8PjUK8t7eHnZ0d7O7u4ujoyFjbyKOUP2dnZ9jd3cXLly/x/PlzPH/+HC9fvsSLFy/w8uVLU4GIf3d3d02ps7okeBGI+7fxIedAXBEcoZt6vY6bmxtcXl7i7OwMx8fHJhmKygBB49WtnIzlwOYVxZYyVysyjqrvz7H7VJtpR+0djkvhuLm5uXXAOJO23Jom9ZqRPgj63u5xE6c9CRU6Ojoy5UJ7vR68Uokjk8lgThL7g8EgisUiTk9PUSgU0JQE2IHk7qRSKczNzRmrrEdCoTqSC0EDT0dK1DEJ7VhajndUCFcwGERaCglwnD2p7cv5Uz+Aa53edpG/uT5u3HENoPJy3L8jzsPhMNLpNOakLN1IaoE3m00Ui0UTd0xc6zXgXyrTI8nr4HMtoR1tYKCi6VV1mfP5vFEgR6pqkfvQbbsqElni3eOcvOLt4nOJY96P3+Fr3kfPRctGW7xVLclhaYn3rym5LK1Wy+gjHPtgMDBGCeosTcl76UnpOhpKKJsc4ZWx6kareUOPz33x9xr0b0gzpDXNbwHJTRiLt4Hv2yIrCW760zTgfvZ94f67iAI9gLGyNlOB1qc6uAStXnwSV1yyi+nCZEA9N2FHFoYbtVuw3hc00qCE2lCU6apkAff7fVhyWo5KZnYulzOM/i6whCEYE5pOpxGPxw1TUNh0JKlLExkmKNK8508dRpLB/fLlS/z5z3/Gv/3bv+Ff//Vf8X/+z//B//2//xf/8R//gf/8z//EH//4R/jEEhRSrkCfKlfmqE1xCj8skLbIz5BDYTKZNOEJeUlSYthVShKtGPMfkdrxWiHgGkejUSRUwha9PTopKS6Z7Ckpn8QDNoU/Q8EqlQq6UoaKz6BFixfpiJvuSFnYqTR0VW1jvaG9DSgTePEZWh5Srv0QoJ9DOdtsNlEul3F5eYnj42OjHO/t7eH4+BhXV1cmDp1yuSf1WKkwU4F+/vw5vv/+e6NYv3jxAt9//z12dnaMMn1wcGAOwi2pxsEN631kFPFEXqdMpJJCix+9Dh2VsEp5SSVBr5+WF8TVhwJlEMdIhZ+K2ECqyOhn6DXiPd53g6bXoFwuoyq1havVKrrSonl+fh6bm5vIS4fYwWCAQqGAgpSnHUkxAMpVytaxeGArlQoKUr+9pGqZX11d4bvvvsPz58+xu7uL09NTlEolw29UrNrtNmq1mgmNLBaLqEq4HpXogOrGd58Lsu9R8YTgkgqStli/Daf8jdfrxezsrAm7oWJbqVQMXtvSBdJxHZz0vd3P4XhbEo87HA7hl9yQUChkZJneyzg/3o9j1O9/LJh0b43n4XCIklTQoieDV6FQMB6soHjD/NL+uygdHnd3d40sOD09RVnqllNP86gCC6Q56m22eA7ceL7r4l4yVAUc9JxorAmLR8kRHqUSz+95JbSPh2f3evCv+xnvC3fGTGsgkiAEP5YTyKtXrwwDOeLiCErMIC1SNLnrTWcop1i+zw1xVrJmFxcXsbq6iqWlJZMp7Rd3HBnFPcZJYAnjacHN9y1RHLix7O/v40yqSvT7fcRiMaSkExOzpXmvSc92Ey//hkIhdDqdWy5oW7k3Q6EQlpeXzYkKSpl2z3PSc39K4DgOOhLbxQTDer1uGCwYDCIi1Qu4SfF3Gmd+cddQgQurFqA/J3z81MGNS0sJnoi0nJ6fn79Vh3ZJupQyV2BlZQWRSMTwEwVnNBpFLpfD2toafvOb32B5eRkPHz7E9vY2tra2jKuYNefn5uYQCARMJv/8/DwWFhaMIkxFajQaGTfq2toaVlZWkM/nTce0paUlk5wYUG18bbEW8yAwOzt761B/X1qa9D334dfj8ua9De77Pa4PwRHrWLlcxu7uruk+yXKejD3mgWGkOq15xFJTli6NDIdhPCatVg1Jpr65uTEhMryvT3kuvOJqnoSbu8BSSs9ILOWlUgkHBwfG8kXFjIeyiCQkUonm86jQ6A3RI93pSqUSitK3wCuGnIgko66vryOkEtu9Yt3kfUk7wWAQtm2jVCrh8PAQ+/v7ZnxeqfPMZD6vWAf5LI6Je4ceI3Ggn+c4Dg4PD02eApVZr9eLZDKJ5eVlfPXVV/jqq6+QSCRgS7MalqekhZz0wWd2pfTbzc0NTk5OsLe3h1evXhnr8/HxMQ4ODvD69WsTn03FPBQKGfrj2Pf3981B6+TkxHzfllJkxIU+8Lzt4uGISpDe+/i+xiXxp//q97nO1E94j06nA4+EmMalZbnGz8XFBRqSw+MRK/fCwgIWFhZgq4M9wxQrkuvlkyYqGxsbWFpaQiqVgl+FFXFc4/HY5HFUKhU4osizmkc+nzdj0r+rSe+LcrmMTqdj6GFWSggmpHIY+ZCXLXxC3aJYLOLFixf45ptv8PXXX2N/fx8vX77E69evcXR0ZPJLeHjlfl6Q5ER2Yjw6OsLFxQWqkhjuOA6Oj4+xs7ODTqdj1gSylp1OB5VKxXifeAjjgYzhfUVpglcsFnF5eYmrqysjdximwwMgw2vq9TpKpRIuLy9xdHSEq6sr1FWZVnop5qQLpsaPHqeGu95/G0xUpuEiUEe52m1lWj+WJiZUpqn5U2nS1lg9cAp43tejLNRJqRfIZA66kPn799n4CHchjSftbrdrKkqQiCKRCPL5vIkzi0ajZkOadC+4mHukEidqtRpK0vms3W7DEoUxGAwiLvWUucmRuZwJivtdz/2pwGg0wo2UFTyXLpG1Wg1DiW3SmzQ3Gk1PpAcq0/PS/nOqTH980DzB1/ryqmS6RCKBGVU2LCMJcMwpsKTmKq2+4/EYMzMzmJubw+rqKh49eoRkMol8Po+MKi02I7VFo5JgHJDseXpz0um0sSaPJSbOsiwsLCxgbW0N6+vrWF5eRjabNUl7s1Ifl25obRXx+/3Gor6wsGBkCzead4Gj2nRzsyMN4w483ue6728pD7xyCKByUJA6wlQaghIrHFRlRUeqoQTlDKTEWUglMtK6T0XAp2r8UtHxi9eCHgTKrvcBPa+RxFdSYWhL17SxCi2IS03oiDT40vggbbgVkI5Ut9DKtEfijd+lTFuyLrz3UIXTnJ+fYyxKYlgS1JaXlxGVxENHGUKoLOr7E7R8J03Ztm08CoVCAbVaDQDM4XR5eRkPHjww9M19whFLXljCrjzSAZHKHHFMqzIt3z1x0zPMkQcs0otfrK7cK7kuQ+n81xUPD3/DtUpJV06u030u0hvXibghHrlHeFSYh14rvkfweDwmHIEhGSMJ96GxIJ/Pw5bSePTwNKUsnFcUch7sx2LZL5fLODg4MOFTlhzSNzY2sLGxgXw+b2jBUgcQCB/xUFMul82afyxlms8kHrQy7UjLcOYqNaXEXluaDTnSLZL8H5ZQPL6vaWAgOSkj1Wmw0+ng4uICEB3Q6/Ua+iiXy7iQBn9nUuCBf8+ltKC++PmldI9lhZqzszOjX1xdXZmCETwU0iDKcBXHcZCUxG3iSdPIXXCf77jh3hKQi2up8j95qUVJEzsXplwuGxdSXeo0UxBDndo5YCrSMampSlcJNwUyKgWYJrT7wF2I4ZhtqRlJAcL3aV0PSyH8u+Cu+xNXAVU3UhO74zpp/9zBEuEbELccLVf0WHBzp+WCShRk09LgvCP+cgofB0iLbprkWoYlTCMulXWSKlQjm82asIxIJGIUL4gw5abK35HHo6quckiSx2zbRkZqzeal5ii9UkEJ3eCGGw6HjYCcm5szliNWw9BKdVzq2uvNWvOi3rTfBY6EI7hlkJYjxN0PcUEpkR6VNJfJZAwOmHjF+bt5TI+RRguG3fAAw4tymDkiXANuqtxIPxQsoTdLFJewlFaNSGKgI54uhnu0pWQiVJgIL/d93Z8Tf/cFfQ/IoYxWsG63C8i+FZRqB6R9vf78f5J8f9t4HJXA3ZeyqoyTZmUExxULGwqFkJEKEmtra1heXjYW5ZFYGKlQ8jWVKIbXtCQhuCOJxpCDE/nFEqWWv+lJVRPG09JgxL2UHmji4G0X8a0VUP0+x+Bea41b4p338UnyZUoSLm1RyOmFKUuTFX0vXrwf3x+L163VahmFlt/xSpnPxcVFZLPZW4o0xwMVH63p41OAnsdI1VwnPoYqZMlRRjz3mvA1D9q2hMjytxrvPGB3u12UpOTwsZQRZB4A86lOpeY2L/2+Vrj5GROm9/f3TZ4Iw8+qkrjuyIGWugj1kHfhXdPT+8JEZXrSDUlkRFggEDAuVbp0bFX8nFnldAXoUwwVKr9YmiyJfyGzcKODykTVp1+34vUh4GaYtiQlBVTHxYjE4/gkFvxtC8F58CLRUQjo19zEeb3tvj8n8EhR/IzqgLm5uYmNjQ2sr69jbW3N1DhlY4AZV2lA4sOtsEzhhwXSLQWs3lioKOrNm4oEedkrVjfyqVcs20FVM1Xf01GHpZGEclDoRVS3NG7iehyOEpTkUX3xtxSgHBuERsl/HwJ8vuZ1R5Xw4uZCufWua6jCMO5z8fu2hIpFIhHMzc1ha2vL1Jzd3t427mZu7lCylL+lhX5JtY/WrxcXF01MfDQaNTLMVqEz+EDlgOtJXAYkx4QHNObLDKXCAENOqMhq2anXl6DXR1/vA7y3rZK2qNB7JJaXnpuAxAjr37rvNel9N1iWZeiY/EO8zErjmHA4bOis0+mgJqX/bNtGIpHA0tISVldXjVJHhckR77HmDfIaedhSstdSxqCIKhvIwwPxPpAEtYrkNNTrdbQlqY1K+7suKvEdCTOiYj+QEALuoVpnIOi1t1zeax7+o9LYyJEScAy1oOLlvpd+hiPKdE+SmEuSDErchCRWemFhAQlpdOMGN155348N7nu6aVKPmTRAOU5aH0j1Dh6aKM9DEhpDLyUP4Mlk0oT0UodzRMYPJdG12WyafIOmJDqSn/Ta8+L79EzyvbbkU/B+FUmIbDQa6EmpSu49EQkppZE2IuGIbtrRlxtn7wMTwzwc5UrRD3IrfsFg0Ey4J7VB9SIMpFblSCnAQVfpG49Ynvk8bnZQG5cjmydPO+5xvAvcyONzHRHo4/EYL168MAqCVzKmNzc3MTs7i0gkgvF4bASmm0AnXV7lIq1WqyhKTd6+JDdSkKXTaaytrZlNX9/bvem/z5x/DCBefao298bGBh49emQ6Ym5vb+PJkydGMHPDZPwhcRcKhbC4uDgN8/hIQLrXoOnV/R75g5s2+XmsEr/IlxXpZEnXZb/fN5Zj1kEl/5PnbImt9Ej8bl8qAen727aNi4sLk+xmixJH5SIj9VVHKuPeUgm+tJYxDtDv92NmZsbEVGs5dF/guDWvuoU9ZaJ7g/hrrp4kUNJ9SWvQeDxGRMqkMdSFVn0q0pZlodFoYCixxVSOvvrqK2xvb2NtbQ0LCwsm9ndZ6unncjmk02mz+VHGAzB4zEvVAi2n3gW8B2kIIvf94krmoYQHB49KQgtL1Scestz3JHjEKsYwj2q1avaNyD3DPHj1ej3cSKe7q6srNJtNhMNhxKV7I+stU9EjX0BZI7lvucfIcXOfs1XZsbBUlKJRYn193VSoaEhi5uXlJXZ3d/Hdd9/h5uYGQam2EY1GsbOzY9zs3NN4QEqn00gkEpiXjnRhCQ3RY+UBJy+JxvQCLS8vwxbjEpWvXq+HgVQP4WGA8bBcg7ddN9LplK77UqlkaFYfqglcG76eBKPRCD6p49wR/qR+4khI08rKCqLRKHq9ngnzaEuJX59UG2MCdqVSwenpKQ4PD028s0+86gsLC9ja2jL7OOUax+mIQg7RBxgLDKGRjxXmwTXU8p73siQkqtPpwC9Vx2ZUN8qgJGlSyaXMHwwGRmlmeNec1N5mLs3CwgKazSaOjo7QkUMQPR7kBYj+51PeQR6S9P9eFblAWuR7fE2lnRd1N+Lbq8IUGeJBD4UGN5759y6aehu8oUyTqfWi6I1TP6jf76NaraJWq6EldSUtFS9MZbper5uTJpVJ3mss1mZ9bz0RjkUr0u8D7vuNJfFNX44oDSTmnBTEX1xcNJZTLuD7INkWiwaTSSqqIQGFcVZauHJD4njgErZ4i9D4qYClQgOSEk+bkxaxYRUuwCsgHSTrUiOYc/dIgggta1Nl+uPAfXCn+YKCi6/JhwHVfczj8aBWq6FQKJikkNFohFQqZcIHstmsUf6oZLZaLYylIUFd2iWzWUu5XEZNStidn5+jIF1WSR8zkhjJ2EQ3TztiLWO4GZXxkLjCGQYB4THO+z5gi+XDEjnXlqYajPNjrF9BGkC962KSzbuuglRfYBzh5eUlbqTxg0c6lZG/aI2bUV3eyhIfS6tUNBrF3/zN32B1dRUZiYFPS9UixkJT9l1JRZCuxIfatm028tnZWbOxvQ9YkojOgxA3P1u8mzyYDFW1DI8qzeZVORe8n1YaPCoBkTHllKf3Uab1vlQul2/J8G63i5A0L1lYWDA1lz3KIudTseacn5vGSK9wGa303rC0tISNjQ0sLi4imUzCK5ZmKi47OzvY39/HyckJ2u22sZQDwDfffINut4uAJPaura3ht7/9LZ48eWK8g5ubmyZhLhAIoCmVSjxS231ubg6fffYZHj58aHIU5ubmsL6+jmw2i5AkhFJhj0roluM42N/fv1VC8F0X3fqnp6e4urpCTRrCBcSLTZikK3AN3UBaoMLWFg90PB7H/Pw81tbWjDJdqVSMMk3FLiK5U/l8HkXprki+C0lN6ZWVFYMP0o/P5zPykbSplWkmClvCTx9LmcYEHU7rbyGpnrW6umo6Zz59+hQPHjzA3NwcQqGQOYRQ2V5YWMDvfvc7QzcrKytYXV01iePpdBqRSATdbhcHBwdoS5UUqPyKiIRuxWIxczAO3VFjn5+PVH1uygdtbeZ3eZ+QhPP5VUx8NpvFjHgmQmJZd/OcBjddvQ+8oUzjDss0XBm2kMxQZlc2Gg1zytC/GUrZub7UbBy6apOOxQrF37lPvCNxJ2rhZKuWvvcBjTz+ViPNtm1EpQSeVgJmpGuP2xJ1HxhIfFWtVjMZphQOllKmGeemrTtkPo4Td1gWf6rAgwcFGE+p3DiJz4GqLVsqlW7RWSQSwcrKihHYBI2Dnws+fkpAnN2FO/IbXILFUl4HKg2QuNGmlGfjoXo8Hhs+SqfTCIfDqEkNd3ppitI8pSwluU5OToziTFdxr9czmw4VOd6bh95oNIqBqkfukZjefr+PipQAK0lFhGg0illpdJHP5+FRXq678KHBkQOEpUrTNRoNE9J2dXVlqtgwmetdV0mVJnvbRVc+71+SxjYtaTAVFZc+eY9zo0Hj/Pwc9XodEKXU5/NhdXUVyWTSyB4qRF7lvu9IgmNNGl1w7WckeYvKtKaT+8JIwk4s5ckbjUaoSYIcLZMEzjOfz7+xX7j3A4+yTFOZ5vjuo0xzbD6fD8Vi0dBmUzoKBoNBzEiS7draGsLSBIV7n96veG8o2e7GF3/HvS4g3fe4/1hC+0NpkNHtdnF8fGyUP0uS4NgLwXEcPH/+HFAFAfL5PLa3t5HJZIzbOx6PIyw5QS3pQkoeDofDyOfzePz4sfECURanUikMJQmxKAmeluxrPGwfHx+jKpVZWuLWv+vqinebB+2+VHIJyQGYXsy38SzXkeCVg4dXebVLpRI8Hg/S6bRRgkOhELpSGedKEmD5G+Ign8+jKcnz9D7NzMxgeXnZeA3i8bjhH/ITeYNrCwC1Ws3INY9YsD+2Ms35k274v0eUzaj08whIqFIwGES/30dR6pU3pAqKz+fD7OwsHj9+jMXFRaSk2yat2T5JXO5L+/mXL1+i3W7DI4exXC5nwoHT6TTy+bzZG2gxzoqXkRdDSPzSm4AHfbf3LSulVfn7WcknmJ2dNYm6PDQy/yYg+SPEEy/Nj5No6z7g0TfUN3YTpoaxWJTOzs5QqVQwkA5VcMUkjlS1DBLQ/v4+Xr16hdevX+P4+BjFYhE9SVDkRbBVjBGJke+9D3BecFl7LXVqZeISYwgZ/6SRz2frsehn6Pcc2XgbjQZuVBtQ/R26IcjoBI5Lz1vj5acMxDNx7F4r4k8LnbsI932I2v2cKdwG4udteNJ8QtD8xo2MrymsodbKKxYEr5Q8q9fruLi4ME1F2NGNJZb29vZweHiI4+Njk6ByLM06Li8vUZNqMHoMvD95yVJVE8hbpCvykJvH/K4GHnojcvMxcUC+hDIEjCS5q1qt3rJGF6Tu7/X1tfm/XC4bl/b19TWq1ap5zQNGQdzi+rf8n/e5uroymfG6nfFIclK0XKJSQBy650djBtdR/5bfC0g+C3EFF29Oopu3AfGt9wreT1uUUlKxgrTUlKYbTdXERY+Df6HKqen5cJxcSyrkmk70HHkf7mFdaYRCGqfLm3sEf+dRh009PoL7f75HfHhdxgivasYxHA5NrGi5XEZdSoDF43GkXf0M3PejJY9KSjweR1RV0glKfoOmD79YE8OqTXtIQhRDKnmYoPE7kBABKsnEX196LDRUYimV6p6UqqUX2xbjl147va5cL7feMJCyaJADf0xab9PSv76+joWFBcMbfUnKc8s1RxRFesbiEvbCvIKFhQXMzs4ikUgYWuY6aToiuMcPmQPHH5RQC77PcWia4ZzdeOf33Xsq3yf+aMX1i5fRoxI8LQnVHYgn0RZPXEBCw6iEa/qEGE2Hqr4zeSSVShkr+BdffIGnT5/i2bNnePbsGZ4+fYqnT5/i0aNH2N7exqNHj8x7a2tryEtOVTQaRTKZxNLSEra2tsx3mCPy5MkTc7/PP/8cn3/+OZ49e4ZHjx7hwYMHpuJTVHJHiAeoPc2Nsw8BDxfFdpWecROsXsCexJB9//33uLi4QLfbNSeUsZwEuTCQRD5HlWX585//jD/+8Y/49ttvTXm9jsogtpSlgkzulVMmlGv2fYH35bhIgBQSYRWKQLcABRk3TuKKxKMZRgtwjp2WnaqUruL9LFXzlqd9jW+O05Y40YF0lfspA9fffVEgM0lB0xYZlUJ+ElGT/tzvkyn0GkxhMrwLT+RtClXyGOlerxn5hjw5ciXGcTNvNBo4OzvDzs4O/t//+3/47rvvTBvm169fY3d3F+fn56hIyci2NKtg6FhZQhN8qtVzMBhEIpGAz+czzyTdkFcs1UWMcisqCUhDCT/jRmDJRkZLGO9BZW0s1sCxKH8hid+kfApKDOBQhbBQCdDGhLHIRUc2566434k7vTak85EkZkK1zuXYqJRwo+9J+FhArJhcT25qg8EAAVerbIYNQGRqWGpGW7IhB1UWvEdZ/B2ViM77aXn/LiBugmJM4JhtVWqOCo8lctLr9RrLabFYxEisxlQKoOSErZKoRqoEK3HC/2mR5Vy4xvwbkBCZsSSfcW0DUsJxcXER8/Pz8ElzCvKHRyl/HnUA1TxIXOn3PKrdNOfQFY9MUNziPim1enBwgBvpINvtdo1yz5C6oEr+5dqGw2FjAR5LTWKPiu3ls910wrGORT+ISBdFKMWbezSflZceAdrFTgU+IpV/SMdcs5GERfC5fnHXhyXMj7JmILkbmmc0Dw3EG9OX+Ohut4u+WFk3Njbw7NkzY6HnQbhUKqHZbJp159wGg4HxCA0GA8RiMSwvL+Pzzz/H5uYmUqkUbNt+42DQbrfN2uo1pzwhbZDXKLfi8fit75NufaJfQVncxy59yKN40qeqy3gn1DzX9+pLkqFPwlp8qq479+ueqlk/kMY9XDvSDZ/F/Zxjmp2dxfb2Nr744gs8evTIKMBUiNfX103fgYcPH2Jra+tWiFq73Ua320UikTAW5/X1dVOKkHlYDx8+xNOnT/H48WOsr68jk8kY+UwcESdw6ZmkXeL7Q8D7L//yLybMg4vHxXVE+BCBvV4P19fXODg4wIsXL3B+fo62xLX5fD5ks1lsbGxgdXX1VpkYLgSfwYmNpPYlXf29Xs8QsyYeLj4n71UB7R8LKDAIkxDKsRNP7v+9YkEZj8fY29vDv//7vxv3qlcSQLKSlLW8vIz19XXMz88jIgmOmsg5Hv2MH2LeHxP0mN91QRK3ahJvW6lUYAkhe6VM1vLyMjKZjDlsTOHDgfzjXgN+RrqjQsDPyW/kWR4ie70eWlIm6koShupSNmwsnitaYTudjnEfU3ADMC46WtRGosA6Kgu8JYmHltC/4zjG3UwFgwLRrzpvDQYDs0mWSiVYEseYSCRMTgQVAV4+qVShN2riwytKJufPjX0kDUcou0LilmScIK14Samn7ShLF2UrlYakxCnTBR+SWEC+5r2iEjNIdyvdnFRMuZHacuhvNBp49eoVBuJB9Iq1+smTJ4ioMDbSAdfakVAPxp03Gg3zeTqdNiUI9eZ9H+Bz9IZP+vRIaAoVyXK5DEuUEEc8DCmp9sGNknKDNOvIvtWR2sGlUgk1qddsiXKezWaxvb1tfsffcu6kg+FwiJcvX+Lo6Aj1eh0+STibnZ017mvKJ30fN4/p1+8CPRaPKKeWKnFHj0W5XDbxqbNS6YM5KrZtY2dnB7aEUIZV2UFbJQ32pEJFTVpFX11dwRLlPS6lLeekoRLXifsccx0KhYLh7XA4jFwuh/X1dQQCAXMoWl1dxfLysglj8MihxStx1svLy3j8+DE+++wzPH78GNvb29je3sbm5iYWpCY86ZS0yn2ROPNIXenLy0vs7Ozg3//93/HNN9/gxYsXePXqFXZ2dvD8+XPs7e2ZA/0333yDi4sLE3dOPaQnFnJWjajVajg+PjYetoODg1ul3th59Pnz5zg5OUFDqku4DyaO46AuFUHq0uTGkcP+/Pw81qU5nKYDx3HQbDaN4aEnCZSJRMIkG8disTdo+W2gv2uL9b8nceOnp6cYiPEuLKU3Nzc3kZF29JwTD9mOyOtSqYS9vT1jNAwEAshkMlheXsbMzAx8cujkfsLn69ekq5OTE9NlsVKpYCSJ51EJSaGMJ/7Ir/pyv0dZrv/n76FoiDLgfcH7L//yL/9LI5+T0hsKZBOtVqs4Pz/H0dER9vb2zEkuqrqdbW1tGSGTlKYrPHESWQOJhR6Ke4UWqbZkkDpy+uUmSeSTmTnOjwlvux8/I254WqWQLpfLKBQKOD09xd7eHg4ODnB0dIRisYiWtMUlAwQCAeTzeVMLNCNNL/Si6mfx2Vpw/JRBj/ttFwD0er2JyjQ3kJWVlaky/ZFAC0+9BvpzR5SngVh+oJQLR8KWuuLubki888XFBU5OTnB5eWk2CEu50EeSpMf3g1KXl1aGpaUlzM/PI51OA1KakhttT6oCWcqCcJeghFL8bakbTwWhWCzCESWAyufS0pLhN/71qVa3blxRyOqx8LLEIkxFXde6ZrzlknRzDYobdyguZVuseinptsqOjnmptb20tGSsfLlczsQMMiSNf/P5vIl/5pjHYnGv1Wp49eoVhpLM5xGr8+PHj83mSPnKNbeEFweuVtXkz4xK5KRl6r7A5/A3lH0cG9d0KCENPTHG8NmkobCrdiz/Om9Rpqm8aWWa8+XliIetL81Mvv76a5ydnaEriYfpdBpLUkYwnU4bGiC4x/O+wDFAWRsdqbnNmNazszNjfXUcxxiwcrkcIpEIBoMBdnd3zX5LS2lHkjIZKnQjVUrOpXFGoVDAUFXw6UhZs7OzM+zt7ZmwLHZPZCiWTzyxVKQ/++wzJBIJ5KVRU0oaMQUlsYz74nA4RDAYxOzsrKkOsbKyYmKBNU0TN1A0o2nJsixUKhWcnJzg9evXKEoVFx52B5IDQL2jI135OlJekDjioRSiePXFA8Rn8kDNw/RQGRfoZe/1eghJvHdYwiIcx0Gv10OxWDSHIc7hUyvTBMogr9drlOmTkxOjTFNppkJMLxDHaCsvfblcxt7eHnq9HrxiEGPVDyrTI1WbXo+VNN+X2OuTkxNcXV2h0WhgrOL3MxI/T4XaJ0YUyn5e1Bv1peW3piNbVV15H9y5wajg+kZasSMz27aNliTUVaQw+1iVZVpdXTVxSHlVSmdpaQkPHjzA2toaZmdnEZVSTWMVi9aSYvhXV1fmtHclCXskHI7PFmvOpwK92JZlodVq4UZasr58+RLffvstvv/+ezx//hwvX77Eq1evjKApSEkuqCYW6XQay8vLJjubgljjnwzGS4/jpw56Lu+69G/coOc+hb8eJuEYE2iNQodWMCqlRclkPzo6wv7+PnZ3d03IRqFQQLvdNnxpiVKkBVssFjMJKIuLi1hbW8Pq6qopxUb5wWzx2dlZhFW5LkeFEFWrVVxfX5uD/fn5uUnMoeyyVTyhnqeWbaRDjpXv6XFTKFvqoMfv+yTMI5VKYVHqqrP849bWFra3t/Hw4UM8fvwYDx8+vFX7OSZ1lL1iJY5Jx0/i4MGDB3j48KGpG721tWXu+fjxY3PPBw8emKpDQVURiHPmZsEDiKOUVjdNaDogLtyKppt3PwTcv9fPg8Tp0lKfyWTgFWVyLN6AitQz7ki3zfcBPX73XPX7YznMMTaZHhdL4rqzkvTlV3WP3deHwsjVEXYsnh4acIpS8WYopQ6DKn6bdGWptRsOh2g2myhJ84yDgwPs7Ozg1atX2N3dxdHRkalAwwMXf1er1YyVcGdnBzs7OybXgYp0XxUXGIoHOiSVLuhtyUjCGZVjKnFQiXEe8ezMSCWamFR+cESBJV4sdeAhXXPMXLeWVA9j+BhDBagAjyRkie/TyumRw1pQugDynn2JqeYYOF9a+DuqjCXDPIZyYObYHDEuaF78KYCWaVwLglaW3TKEcgXqMKMvykiIMZb44f14YBtKbDZ1O4blOKokMo0z/B0NsnoteE36nxfpR8tw66/gVQ0T7dkkcj6UhE+3R1cK53slo3RB2vsuLi6amC0Kw1wuh83NzVubZEzKmnAiY1GsG40Grq+vcXJyYjraUJA5spFpAfipQCO72WyiUCiYWNAXL17g5cuX2N3dxfHxscm2L0uZsH6/D7/fbxTpWakmkE6nb1lc3YToqI3/x5jzp4B3EfEvcc4/JtyFb41nKpXdbte4fc/Ozm65Mnnt7Ozg5OQENUkS9KiYTwpBKh4Ma6Ki+ODBA6ysrBjLSi6Xw+rqqnELM3OcrkQKdSoWVKjZKasglRZGqjoE+Yi85N7E3JuI3ij4nt5c9G/1PcLhMFKplOFtXouLi1iSJiiL0qQoJQ1QaA32SFhbTBKk5iVTfU5q+tJyTwv04uIilpeXb1n1iSfOl6DnPVaeRj6XsmYSuOWR+7uT3nsf4O8m8bhfwhIYZkClxhFlhG53HuDeZwx6zFqu6nvYEgbRbrdNwqOtqkAxlCEmzco0vM9Y7gLSKWEoyjC9LNxbHOl8GJPuiCnpROpVTWwc1b2v3W6jIq2sWcqRCa604NpipST/DJQXtihJsrT067AtKkFaEaJCGnCVL9MKDGWG5ao6ocfAOYxUpSEqX3qP5G/5TOoL+rvu+3tVjK9PxdZqurBEHpCXHBVSxO9qOvZIDgGVQN6T3+V33LTzYwHnqC/9Gele49EWxZdrRtzxuwRbygMzQZv0Q1riezWp9lSv100eAEQWkD76/b7hg7KqdMR76XszvE9/j5VlhsrLpemMtKbX8n3AcxcS+SA+oCcu+UajgYEks4TDYaTTaeN6TEpCCwfjVxaXtbU1Y21hHFQqlUJQZRCPxCV8cXGB7777Dt9//z12d3dxdXUFW06ftBR9CnDjhvjhKassdWwZptBut98QRlQoYtJGOaSSGjXohfWI8sBN0C1cfwlAXGq8kpBJP38NYU/h3aDx7cimQyX64uLCHBafP39+y/uys7NjFFhuwtxUIbxsSehDOp3Gw4cP8dlnn+Gzzz4zCSKsaxqVajaBQMDEoa6srBgLLg+ctACNxbIwlBCAy8tL4xJkkq9HLFx6M9V8RJrSfEoZp61UBN6HFhHeZ6ySE7kpByWZ2ac6jVGpcMSy0leNrThWhr7omETKAm7OvD+fEVD1d7UVhjBp3payynDjI/9NAn6f39Ov3/a7twF/y02Z7xE8qrtgWkor0sI1Eo9JXbqp9SUM6H3ALWf0e1DJnjWpQDWUUATSVESabfEAwzV633HcBZY6zFmWha7kFdEiT4XAL0aajCoLxjFp6xxxbKukRloJaVXmWpC+3XLBbe2jRZE0pWkV6iBH/HhFyQ2piiL07EQk0W2SMqt/61eJbpo/9f+RSAS5XA4rKysmITMmOQhh1SE1rjr50csQUH0ParUams0mBpKsTIs/x8S58JDAPT6RSCAt9dqTyeSt/Z540nLhpw4+yTOJRqPwSU4JLcoMZxlL8iIv8vZQDoGs4vbixQu8ePECX3/9Nf7yl7/gT3/6E/7zP/8Tf/rTn0yC+osXL7C/v4/r62tj3adeeHNzg6OjI7x+/RrPnz/Ht99+i6+//hrffPPNrevbb7/Ft99+i+++++7W9fz5c1OucejK4dN0x8/eF96oM60FA4l0qILLLy8vUZd6peFw2FhSGA9FoiYTeEQxDAQCmJG6nDlJkghK/GBPxcSNJXuzKfU8x5JZTYbQTPYxwS0IKfDdF/FBAUcFAi6XiE+KnvukUDytCrQCcCMNiBuLz9fj0AIeP8Ccfwhw4/Ft0Ov1zIm1XC4DMmePKBjLUtIm7OpaNIX3h0k0RvrSF+P+d3d38erVKxMLzYN0X6pe+MW97JXM8oGrlFJcmk6srKzg0aNHxrKazWYRl/JdHlFSuVGTF8hbpIuetImlcs5NaCB1ypvNJixR3sOSqDQUF3WpVMLNzQ1GkrcRj8fNZktlhUKfpee4iXrE5QtVEzkgSVDkRSoMerOHKGSEsbiJS6WSiXctSvezeDyOubk5E+pCmUg+oBzVa6fXz1Yl+kaSNB4IBMym15FqBa9evTI4DEki46NHj8xhhmvB53JuA4mZLkpdcK4vjSgfEjNNcM+J+45+z7Zt1Gq1W4of15pKUTqdvkXfxAsNHjpm2qM8CVtbWwbHltrvms0mbm5uTLe7fr9vlKV4PG68KjwgEV8cM8ehQY/vXeAVRRpCO2VJ8iV9tlotADCK25w0VonFYvB4POhLM7Xnz5+bMMmgNLtJpVJIJBJGkWRuU1QqppSk3j/XOSqNW5LJpEl4TafTBo+kzYgkxs7NzWF1dRVra2tmznrerVYLBWlAxFCVkISEzM/PIycdb6nQky4cl1FlICUKyYuOhAT4pBLFjHSOZOgVq0Ssrq6a8KtHjx6Z96hM26oiUCgUQiqVMhVAeL+NjQ08ePDAhF3pkC4dzsXyul45AFDOVaUkZqlUMvP8MWOmqcN0JJ7+6OjIyPmQ5AhkMhkMBgMTKkTPRqlUMh6iTqeDg4MDMz7OuSVVePb29nBxcXGriQ/7C2hvyfn5ufF2cj1GEpbTarVQkf4BrO9/KY2vmJh7fX2N6+tr3EjZUb5XlC7UVPpJu+RhLQM+RJ5NjJm2VDyMrZRjPTFHFF+98He9x8HS2kBL9cbGBtbW1m4p42Qej8RtNqW2aEG6oGnl9ccCn2R0Ly4uYmNjA1tbWyYunDHj0WjU4KsnyQ9Uwpk9fHR0ZLKHB9J4Auq0pIXFhyzujwFc73ddboZ3/09cTOGHBeKZ60LFuKPa747FGuyTZBQqFalUyiiBTJRLpVLwikuUB8qZmRmTjEzLhaPiB0kPY1dsaLVaxUhKoMWlggIVmYWFBWSk+QR/S8sx5ZNPrLlUFjlPyjbKMh7qTk9PTWzo4eEhrq6uzL0gNEoBrP/XgpkXP+dce70eGqp8Fi1exE9KtboduxIrJz2H4FEuZc4V97BK817cRAia7zSvuucG157xvkC88B4ch61c914JI8xIwxC/uHu9Us6LFsTRe+TQcE4aOBZbjCH6kK8PELFYzBwgfGIpv2v+d71/H+B4RmKR44GwIM1zBoOBUQhCEmNMRZprrtcuHA6bpNvHjx/jq6++wu9//3v8l//yX/Db3/4WT58+xdbWlrHmRiIRo6htb2/j97//Pf7bf/tv+Pu//3v8j//xP/CP//iP+Kd/+id89dVXWFpaQiAQQE+VDuTzefjR9DxUcceaD20V90xw8yrvy++4aWesqoMwoZGl03ixrBpzNh48eICNjQ0sLy+bg0VQSkLqgzeV70ePHuHx48d48uSJyVtg7sLm5qbRaZgTRb1J8zNlDkMZfkwgjrVuR/6DGAUqlQqur69N4un333+P77//Hq9evcLBwQEupDMoLcnu33ck94aJoJbsJZRZek8Yy14TDofNIZ1/bWmUxXCinnj3tKdFf6Zfkz5ZDIK0RBwQ3DT4PnCnqZOLTyLXmxIFMjcavoc7hLgW2h6p/kHmXl9fN7GTFJh0ZdqS9Mg4mK7ETn/oZD8G+MW1xo39iy++wFdffYWvvvoKn3/+uTntMtM7kUgYdxBdXLSCMXu6J5Z5vcDEFa8fc84/FNxFuJOIfAo/HGg8O7IJU8B6pQVtLBa7lUhEKwpDNhYWFkwSHBXaQCCAuNSVDblyJPTmQoXQkWoDNamQQ0XJLy1pFxYWsLW1ZTqOsdQWFYCQakRAGUK5RSWUAnukamP3JITtQprLsInMzc0N+pLFT34kjxJHWs7p94hT/k9BTkv6QGq0ctOOSzexgXLDM5FpIGEn5BWuDZ9L/PlVEwW9hvwe7jiou3mQc+E1iU/d/78PuH+r7++eV1Rq8UdVPWriqSUVIT5Emdb40J8NJYShIdVqtAGHIQSswDQJL5OAz7ovjFWnw5aUnyxI18uaJOVDhcPEVKKexp+mjaB0bGRBACaxUomem5szBzq/eFmolDLXgcoiFdSFhQXEpT3zQFUAIk60Ysax8XPSn/uASHp006bGt8a5fo/359jJW0lJzpyZmTFhH1EpL8nXlB2OSmy0RO+JxWJIpVLIZrOYnZ3FrJQhzEpJShoLyMd8hk+qD1HOOKILcazvQ7cfGzQeKaO0vOB3RqOROVien5/faqx1cXFhPFY9KSWojS9cY722QQnncctor6rsA9VUS8squOSaBs3X7oufQ+bEg6hPlSzU4PnACAAPJgg3jViI24mT5+bkl85B3Di4OJoYyUxEimYoug+WlpZMVv+sdBKiy2mk4uPKUlPTfs9W4vcFItsN7oVhvNzi4iIePXqEL7/8El999RV+85vf4MsvvzRxoczCX1lZQS6XM4p1WBoFNBoN4+7i5qo3YbgUavca/VTBja+7Lg2c289ljr8U4DpovHtVG91EIoFUKmUS45aWlrC2tob19XVsbW3h8ePHePr0KTY2NpDNZhGUslc8+QelhBkFI5TgHk6It7QlZpvxoQ0pi0RFYE5aNzOBkdYgeoRYNokueSoGFMj6+dzMRqp0WFHqYl9dXd1yQ1PmWBISQhqmjONG6Yh8o/JLOcj7VyoVE7LA34TDYcRUCBvnXiwWjbuS1kiu2VBCyTgP4pFj1BsN5wmX4uFWVtw86eZXTSuUv+7ffAho2tM45Bz8fr9RToISVgRx89MaxTXRoOfKexP0c/TnxFWv10NTWkcTzx6JlWZFCvc97wL3d9z4nAQ8UDWbTaNIl6XbIQ9XevwhiZPWeINLYXIk/CeZTBqlkAohD6MBSdojTUN16Q1L8mBQ4v/DEk4FpTT7xRDmV010SGO8PBJv7FamqB9wvF6X94TKD9df0w2U55z3sIRX3XsqVPMX8n5fchi0dZN/eejlGKj76EOApllelvKWaRrSfOeew9vATb+TPnO/T5hEc+7/SftjORDx85GEaTBcisl91WoVPQm/84iOwnAPRx3i6OXQh5FIJGJkNPU90kFAWarddBNQIWo8DPEAow9G+tLvxaSiVDwev7U3uNfB/f99wfu//tf/uhUzPRqNUKvVzAQ9EoPFGLKalMKxJLuSDBEOh5FMJuEXVxwXRy8YkeIohRsAolKnmnFLvV4Pr1+/xmg0QjKZxNzcHGzZaBPSE/4+E+ZzHNdmo3/L/zkWvuco4cqx8j4UGmFVuotCIi6JDZlMBrlcDlGJSez3+yaT2is1GNvtNsrlMsZSdJ/fJdhq4+dzfuqgGeBtlyOxsTUpu1ar1cwciZ9pzPTHA417/R4FITcvAIipMm2MEdzc3DTdq7a3t03lHr8cqm+ksUetVkNQSnXRij03N3drDJBqIdyUSAt1KY/JOLhyuQyPx4OZmRlTq3lpaQmpVAoZqXO8traG7e1trK2tGYWec7JtG5VKBS9evEA4HEZfutdls1k8ffoUXencOh6P0Wg08PXXXyOsusclEgn89re/NXKDmyfBqyoBuN8PhUJmM+12uzg7O8O3336Lm5sbjMdjZKTJCg8F8/PzaLfb+NOf/mRq+TLJ0yuu65hUj6D1xyOWHo90drRE7jabTUQiEQBAoVDA/v4+6lIjGmLIyOfzePr0KbwqoWssiURUWLiZnp+fm+YJXumoGBXvYk5qZ1OBIK4ot9zv8TWUnOVlu6xNtnTb9fv9GEvceaPRQLVaRVc6SKakLGFY4my1Etjv91GQtuzlctlsnlEJrclkMkgmk2bulmWh2Wzi4OAA5+fn5jnhcNiE862srJj56rG7L85PXxwff0s6hVLmHUl0LZfLODg4wF/+8he8evUK4/EYAckJ8Kh45Xg8juXlZeRyOYwlzMG2bZRKJbx8+RJDqbITi8WwtbWF9fV1hKUJDMc6lHJjrVYLZ2dnKEmTo0wmgwdSepHr6Hd1aLy5ucHh4SHG47EJ5YrH46bRil5vx3FueZrL5TIGEu40q6pccb1JD+RlDVqRHcveTaUcSrYFlNWT36HMocV4NBqZQ3SlUjEyzev1YmZmBp999hnS6fQtvtDrxff0X6jKSHzt9/vRk8Z3RelBwXtF3xEzXZHKSuVyGa1WC36/HzMzM8Y6nkwm3/CiQXk5qIuRDvkeZdhAmlwxlrsjZUY9sje0Wi0MxVsyGAwQCoXw5MkTrK6uYk4Sya+urtBsNs2cR6MRHjx4gM8//xxbW1umLv6sJJqvrq5idXXV7BOr0gVxdnbW5JSMxKDq8/mwvr5uwmwYl06vycbGhklcX5F65awMxWpKa2tr+OKLLzAjNa8JXCfKAfuvjZk2b7gSC/geTwTcOPrS5aYvTQEY7M1FIPFoU7q+vLJ587QRVnFd8/PzZsI9iV+rVCroSp1ITbBvA0tM+pqwxiq2kgTlFvIUemRSPV7e621gqeSFhYUFrEsHqPn5ecTjcUBZ/8fiAu6JNc99H47plwa/1Hn93CGdTmNlZQUPVNLOupSqS6fTiEi72YAkgPHkTyXUKwmJjGXjwXuswiMc1eIWSmBeXV2ZWOVer4e4dLzKSmm9tbU1hEIhwzdQTQVCEkLFjXKk2nQHAgF0pU7wSEp4NRoNI8u4uUAdwN2bN96TZhuNhpE/PGyMJGQlIIlOtKJ7vV4MJQmypWr5M9SlWCyamMSxypz3qMQsSylHXpXwxMu+I+TjbcD7wSWL9D34mVtpooJGqxwv4rcncYz83JGN3qesf36pmBCJRDAzM4PZ2VlTz5txqRnpysb9JqDayOtxcz/zqNA5ynLKdl4BsZqGxUDE0A7GJvOwRcWSc9b40v/zPa8oLvydoxQyzt8rimqj0TB7nlcaanQ6HQykkhYVHX0vAvEYVC51KrZcF96Pa8D7hSQGOymVKMayX5J3BionwVKdEiPS1VBfXNePDVxH4s8Wo1dfmquQtrjmbiCe9ZpzzH4VZkq9hMo9VHKovjwqFIH0QLp2/4b3D4ul/0NB05UGzYeQ7/G5PFh45UBMPa8nYW5VKR3Hw7otBkzKHyr/CWm4RQWWOWJNKU3qdcWtU3Y/evQIT58+xe9+9zv8zd/8Db788kt88cUX+Pzzz/H555/j6dOn2N7eNvdNSanHiJRZZnLrA6nlz3j1J0+e4PPPP8dnn32GZ8+e4dmzZyamndeTJ0/w4MED4wUMi2fFr0KXPcr78CHwhmZIBtHCyCuWFprkSVw+1bb38vLSFHHvSTanJlQtaLXw0BOIS5mfbDaLGenNPlLdkgauklX3AT6XQovMx2dbYs2x1GbB72km0Z9rcL/P/8mYtPItLCxgdnbWWNU5jvF4jKZ0TdKCivfSf3+JMGlumkam8GmBmy+VGAofbsyOCm/QChJp3qvcs15X1QvyoKUOuSNJsqpWqyZOuV6vYyDZ+plMBgsLC6aigEc2afIsFa6QuKA5xpFYKClXqCzbksRSq9UQEEvWUOJkyfdaPr1LIdD0q+m22+2aOXc6Hdzc3Jg58bm0KAWDQYyVtagrLv6GJCyWpU4qww78ykihx0rwKmWaCi3Hotdg0uUGPXc9P/3ZpN9StunnQRkq3OPR94VSmChHo1Imb0F6GqytrWFeyrH6VDku4nGgGkI4ri6HjgrHGamSb1QaLdWYZV7qhevkNM6Ff/X433bx+ZwX8WSrGFXLstBut1EoFEy5R4hyxvGRxjWvafxxT9X0zbBC9nDY39/H3t4ejo6OcHp6avJ3Op2OGVe73cbl5aVpv83OvoeHh9jf38fx8TGKxaKxVrpDbt7FOx8L3Dh1XCFYlFOkD33ZKrSHh38qwh6xbHPN+V19X31/93vuufP5/D3X/b6g+Uyvt/tz0jjHYKnDpCPJ0JVKBefn59jd3TVl4/b29nB1dWUO7bynLcnkYamCs7CwYKy+8/PzSCQS8EnVspGKDaeXgocShmTQSEKlNiHVZZJSypDGGY9K3oR4FSJSwYe/5z24VyUSCXPR0BNXcewaD5oe7pJD7wMTlWmfSmKBCGdaB2ZmZhCVmGa/34+RhIVcSXMHZkBrl4MGTkIPmswQVK2GZ2ZmEBb3Pk+aeoHvC3weQTMeL81cvEiE/M67kKwJHUpI+iV5KpPJIJ1OIyZZ17zXWCnTvV7vDSZ7n7n+3IBz+yXP8ecGpFsKRCrEpG8thKiI8Ptw8ZfmCS2oLGWB60jptivpfkrZMRalZm5uzlggaTHg8yyXJZOKBcfpUXGu/C5EnpTLZXhdVnT3vSnM9fw4Rz03uJROKC9YXxoN6ARqjjeXy2FGagN75CBCazmVE1qqy+WysVR6RFnSckSPhcoVLZA0QhD//I5eI/17gntOGu5abzee+Jevh+Iq7qqMe86zLSVR9UGCsnE8Ht8yuGSkkotHYjUbjYaxrtVqNdSkCQQ9Eny+oyzjDUkI5e+q1aqhv4CEkNCNTssr15Nja7Vat652u33rr36fyrDGnXtdHFc+Tb1eN7TBNSPvWC7Pq15L0hIkpKpcLpvyZC9fvsTz58/x4sUL08X06OgIFxcXxrNMBfzs7AzPnz/H8+fPTXdfdvo9ODjAzc0NuhJbzD2aY9D72A8BpD2v6wBPPE3Crf6fQF5rSzfEnljrLfEwh11ViBxllHO/1mvL8Wne4MGN132B9AvFe5PmQlrguBx1kLTlgFSSEp2vX7/Gt99+iz//+c/47rvvsL+/jxupLgYVmhKVMNz5+XnTWGtjYwNzc3OYkaTzsXgwbKWg+sRrqOUMQX/P40qg1uvnxhXXmuvBuY6VF0DTgn42X+vncw/jAYhr+SHwhjKtgTf2qEL12WwW6XQaUamhPBT3ZLFYNDUCC4XCLUHmBk2ARCiFjEdlKJOISTQaOfcFPoO/98mJnULIFgsFNx26iUYqaYfj1YJwEnDRLLFoaeESCoXMaUoTAgmcAoknO/d9f2lwnzm58TCFHx4oYO4SKBRScCUq22pjcQspAgUaebgn7sWrqyucnJzg7OwMY4n7JCwvL5uYPApU3oPXXfcPBAJISImvgIpt7vV6psZrTyomtNvtW5uTRyyiUAo2n+EGTae8RyAQwHg8RkvqotbrdXQk8dAjcbvcjOhKjkknu7hUNRrLBtVqtVCtVlGWJGzKSUspYxoPXlVGqiflo/QYPbJ5EV+cE2WXBs5HX/wuf8vf6O9wI/arSirEB+fCkm9XV1e4vLzE6ekpTk5OcHR0ZCygh4eHODk5wfX1Ner1OnqS9DSWMoqVSsVYWw8ODsz3z8/PTfJmT5QD4osKMTto8jo9PcX19TWqUpKRrn6Px2No5uzszIyLz7q4uLjXxfFzT9C4doR3aJyqVquGZmiQSUhlKH7XvQ7cH3n5pToF+YzNM9gS/PXr19jd3cXBwYHBMcfmSGWd6+tr7O3tmVbiu7u7eP36NU5OTnB5eYlGowEIzXEMAQkncNPSxwTSPBUrzpn7e8jVHIZyi59zbUOhEAaqgk5PGe58kkAXlUoypGe/hEzwCqrkOf4flDAgjo9jdFweo/uCG5eanwluPnaUR8gWxbRQKNxqfMJmXLqHiK0az0UiEeTzeWxtbeHZs2f47LPP8PjxY6ysrCCmKpZ0u11Di5wf5QB5n0YLrWf1VKgXL+4/fE1cjV0W5JEriZReBX0/7kO8h6ZL8hsv/oa89b7wRtMWyGIMVeckEiEJgkzbarUwlg2J1oFWq2VO7B3JiA2qLGwSPImfiz6WE8poNEKj0TDuBi5KMBg0AeZJyaZ+FxDhY9mgOQbCQJo+0IXF4PtyuYzRaGSIBRLXSQZ2EzaJVxOzXhifHDo6qjwWiYXXysoKZmZmjLLNsU5iml8CWEqZYjIKhMAtOXwsLS2ZIv5T+HSgaZkbt6ZXCB+Tp/r9vrGctlotjKQsXlIqBzABkXLDdjXG2N/fx+7uLprNpuGvcDiMlZUV/M3f/A0ymYx5DjdqyhCOVwPHpnnn9PTUCE8K32QyicvLS9M0oFarwRIlfGZmxtTQHqtST9ygNK/DZSVyHAexWMxsXKwnT6tyMpk0yTDkd5+y4nBzb0nSD+9pSfhBLpczcye/eJT3zOv1YjAYoFgs4uLiAldXV+iq9rysD762tmY2F0ttvnw9FmX+ShqGNBoNo4wwhnFubg5BVyc3S3Wq5bgGgwHOz8+xv79vFDmW2aLirP/y9c7ODs7OzkyjByYTFqRpA1vdUwk/PT3F1dUVSqUSrlQTnrEKSxxKWE9LGoicnZ3hXFprF6RBTUW6DVaksgrLJlKhPD4+NuPieHnp8mF87+TkBD45wBCHxI1ey6FYhHtSjzcYDJrysTMzM7AlqXY8HiMcDiOTyWBxcRGpVMrgfqQ6xnWl1i4NWzzMVKRaTleFFHU6HYQlOdFW3RK5p7st+TwceMSrHJYmbsvLy5ifnwdcMbyO46AtVW3K0t6Z88jlcsZTw0MA50M88T7kR17EHRW0druNjiStUfniX77m5TgOriTpuVarGV3B5/MhLU1tMpmMGQ+fpWWi+zUVOs6ZYycueJhsSEt45x4JiNSJeKC2LAuJRMJUZUlKIi35mcDXg8EAlUrF1InmgVHrV2FXu3dLwuiSySS+/PJLPHr0CCsrKybRm/clTZ2enhrl1ev1YnZ2Fl9++SUiktMA0aPo5SHoNeH9CtKcqCcH4bj09chmsyZcwxbZZ4tct1QsPGUPwSP6pvtQ5HPV6Ne61/vCRGUaQrBQg9DEy/ea0nnMEcHL08FALL09SXIIiJVmpOIYucicsCNChYt+fHxsYicty0I8HsfKysqtJL77gqOs2hACGEksdqFQwN7eHvb29gyDM/M9IdVFvOIO5gbuJlZ98T29qF4p80dBUqlUMBSrHRmA5cVo8eeCktl4318KWKJM16XTXaVSAZRyEAwGTZb6VJn+dDCe4IbmJkEedV+9Xg9F6ezZarVg2zZCUvqSwp48YUuFBm5g7F5VKBQQDocxkASr+fl5PHv2DIuLi4YHeSjXvEZBzDFDyRRtpTg9PTWWJ/K/3+83yhM9aX4p+5VOp7G8vIylpSWzeZMnNZ8T+HyNOyp4l5eXxgJDS8/29jaWl5fNbyylNPSlVS9DHHg/rzQOyeVyZsPTz9Ove72esfoWCgWMVOZ+Op3G6uoqFhYWbskz8h7vRZlORbPZbMIvCVRUpvP5PAISTqDxoe8xEDf60dERDg4OcHZ2ZpQJhnXQ+MI16na7aLfbqNfrGEpoCN/X/9M9TyWv3W6jJ9b4hjTIGYrL3iPxw2NltaKBo9lsGiWMVspWq3XrNb/XkeYkQ9UJt/WOUI9ut4uklKBjnCfXW+ON6xSS2u7JZNKUjbUsC41GA9fX1/BIhQ4m7SeTSbNXUElqt9uA8ENAar7TihqUNt6MaaVCEQ6HMVJxr6FQCHEpJUaLa0iSgPk5Y1RTqRTmpSPyzMyMoSXOz/lIyrRWGrmGpVLpVic8FkSg14MHQr52v0erLOXfWJRqj8eDbrf7xj0n3YN/b25ujIGIyu9QuiLbtm1CeLjnOe+hTJdKJbRaLVh3KNOan4kz4qndbhte5kFqJIaPsCTkUVchn1hy+Hvw4IHZiy21L4wk3rzRaGBvb88otj6fz1i0bQnnq0li9fX1tTnkX19foyAVd4rSIfrm5gZnZ2fmUDmUijSku06nY+7D7xekoVFd6vhTDpCOeWnc8HKD5sf3gYnKNB/CzZLI44Co7A0GAwRdbYH1RaXalqxQvqYyre9tq17uNzc3OD4+RkuyR7kxr66umhJy9wESEomMm+xAYnt6YhmlRYNj7ErZJV29wBYLM+95F/BzPT+PHBIajYYpCzQUy78llrCNjQ0TB0ilHcrF/K7n/tzAUpZpKtOkO0tZpmdnZ6fK9CcGTbtumtP0DaHPjiTYUSmlgJ6R0k3ZbNZsTAPxBh0dHeH8/Nwo4c1m02zALJP08OFDJKT8nk+st+/iBT2+gUoou76+RlMy1UcqAa4mbdJb4mWjkpHJZLC6uopcLoeB1Hh+2/PdgrnVapkwgEKhYN6nxfvJkydIJBLmN7wnN7O+hCI0Vakpj4Tbzc7OIhQKwass5ZQXBK4JN2DI+IPBoMFvPp9/Yy35P+X5YDDA2dkZrq6u0Gq1EBAX+ozU/c7n87eUH6gDhS0b7lDcrBcXF0aR5oFm5IpV1BeVeZ94B/keZSL/5+bPe3IMVLwdSYb3iOeT49NzHLgSNYeqnBifw2dDHdg4Rv05X+v3HMdBOp3GjDQOoXVO49ySvYpWQuYPzUpt3k6nY5SHoOQX5XI5LC8vIx6P38KPLft1QDUdmZ2dRVpaQ+dyOeTzedO1dEYqlfjEi+rz+RCT5PnV1VUTO57NZpHP503c+tzcnEmuz+fzpt47lS5NX85HUKYdUXRJE+STK8m5uJIa8cVi0Si211KvXSvEN1LK80bqyVcqFXNwJV3yNQ0+xL2+n/uiYlcqlVCSJjtdCYEIST3wgiSXlqX0p3MPZbrZbOLy8tIo0x6PB/F4HPl8/pYyTRzx4n1I08wL6EkoaygUQkYSoblmVGAhMiMajWJ7exupVMocnElnI1HSy+UydnZ2DE0HAgHMzc1haWkJNan2RuMJvTqXl5cGb5eXlyhKDeuKlBDmGMeqEhQPr8Vi0RxkiHdGFVSknj/1R+qs1OPI03xNPBFIa+8LdyrTlorBgiigHJA2hwclg95StUWh4lF6UgC/2WyakwJPQDwpUOi0Wi3jUjs9PTWCNJFIIJ/PY3l5Gel0GqH3KCnDxfUoZXokcYvj8RhtyVi+vr42SB4OhwhJLdaYNJ1wJHHofZCsF6qvSgjeSJksqOoJ2jKtn8N7aKH0SwAyrVuZpkCYKtM/DljK80Sa03xBJYM8S+WYG1dNuhYGVAJXNps1MqLT6Rhv0KXEXNJCMiMZ3awfurS0ZOSLljFu4DjdPKN5jEK2L/HDlmWZwzOtkR6xftDit7q6imQyiYF4xzgGPlOD5nXHcYwMu5R62QGJp8zlclhdXcWjR48MrvkbyFgtCbNrSbw11wAAwuJKp1wicL0IrVbLyBreg1blbDaL9fV1pNPpW7/RcobyezAYmFjiVqtlFD0q07PSWptyHyL7eT/SjuM4KJVKKEjFCI8rcYw0p+mO9wop1zPvpb8PwRtcCUg0mnDtKPOhQoH4e+KY73MMfhX3TToMqJwbgh4P76vn5fP5jDI6I0n8llgMSQecM9cprCogjMdjE7pSqVQQDocRlfJjy8vLiMViRgl05PAQlWYV6XQa+XzerFc+n8e8NGFaWFhATpqKxWIxY0zieDc2NvDkyRNzcOLvVlZWsLCwgMXFRSOnaSWNxWJmLnpezkdSpkfiVYLsqwwxODw8xPX1NUrSVISKWVWSS/XrmiSp1qSJUkeSXH0SCkQFbjAYmAM3v3/XPflaf68lnrqA8gxQEaxI3XbnPZXppoTDUS+iMk1+4zVWJX95LyqojoR2zEr5uqzq50BLukfKJGek3nhcurRC8fhQwpKur6+xs7NjDgyhUAjz8/PIZDK4vLw0OQlnZ2e4uLgwB55KpWIMjLVazXh+GhICw3Fzr6EXqlqtGks2aYmeAP5PPJGf/H7/LQWaeCbo9zRv3xcm/sJSpVQgD3FbUmdmZkxrX7oMZ2dnkZLWrz6fDyNxwezs7OD58+fY3d3FycmJsWDRFE/LQKVSMYhuNptwVMdBEozeQO4LmqGhhBVP7DyZ0+XlUV2gyFTvCyRmPT99Oa76jxTYdy3ih4zhpw56Tdwwidin8MMD6Z7CciAelYK0k2UC0/7+/q1Er1KpZCweUGWMwtLx0xGlqqdCe0rSHMAR7xMArK+v4+HDh1hcXASEV/1SC5Tj0XxJZYWX5YqhCwQCiEqt6qiUXApLbCA3jZGUo+P9KB84Jo6dOHkb3RKurq5M6AhxQsWGCdzcZAOSGMkNLB6PG+UiFouZcXAz6UgJMiglUAPHq9fSI8od5U1QlXh7F4yVddVShy0tV/lMHrKIK5+U1EpK/Hw2m0UqlUJMtXGmckrFQt8HLqViLJZgvR9ZlmXwquU478mL6+sTgxC9EBxLREpAcu3DUnJLh2ZwvFC8wvtT2ebrSe/5XWUN9f5iifLONeM+G4lEzNr3pImNxhsVnJGqrhMSiyMbYbDXAZtcsFnQxsYGVqUD8Zxqjtbv9+GRhkms4MCW4qzxu7W1ZX6/uLiIhYUFpFIpBKUTKmnmY4KjDskQpW4wGKDZbBrFjMq0WzaQB/QhxyueIIjMCku4gzYSUpbo37jvq6+RKufbkFj0ocQRh1xlPN8HNL/ehVc3D/J7Ppen4be//S3+8R//Ef/8z/+Mf/7nf8bf/d3f4csvvzQecvJmPB7HvCpBSf7kXMfSJ6NarZpDMg+BsVgM4/EYVanWdH5+jrOzM3hExpIvILRL2Q5pukTeTEi5PMrInoRxkf84V22wvLi4MHtTVcIPh8OhkbdcY176/Q/RMXGXZdrjspZAuTi5WJBTSTQaRSaTQT6fRzKZxFh1/aLSmEql4EjcD09q3MgoZK5VZjVdIMFgELlcDhsbG3j06BFyEitIofgucOQQQOFli3WNjDFQ5Xyur6/RlTi9lsS5MRaMROHeOO66yPBjOXX7fD4Ui0WcnJzg8PAQxWLRzCESiWBOOrlp95geJzfMjiRV8D0yOtdkJJ4ACoEfAzguXgQ385Ph21JT9eLiwszLJ1nU29vbyEqyg6MUMi0kcE/lZgr3A01vHo8HnU4HBwcH+O677/CXv/wFJycnuJHwgfPzc1xcXODg4ABFqTfrEWVlVjqa0bXs9XrR7XaNRUEfmANSdYMb/sLCArKSaMJ159go6LgpatA0YimroiNxyFRcyCt8vyM13hOJBFZWVrCxsWH4kRYN8pSWO7Zs5APx2lli7T48PMSf/vSnW/Pr9/tYW1sz3buozLnvxzF6JM61KWFvHrGaVyTfgocChguMVNOKoWTt7+/v4+LiAo1GA17JzM/lcqaRQlhi1CnPqViQn2zbRqvVwvPnz03oG9/XsbG2hMCRLynTSUvEk9/vx9zcnEkkX5cOm7xWpSMa60hvSNdBfra2tmYUQSqI/N6SdMekpXR9fR0LCwsIBoPGAxYMBo0HIpfL4e/+7u+wJB018/k8Njc3sbCwgO3t7TeewTGyvq5WSPXrra0tbG1t3Woq8fDhQzx+/Bi/+93vkMvlEBLrHZQngnglDXiU0map/JKKJA6SJhk2FJTyZEHVjMMSTw55gTxDpcGnPD7D4RClUgl//vOfzVj80sp9eXnZrKcjrvaAHAA5vqDkMziy99nKU0GlxyP5FVcSW1yW8pTBYNCEntAyTVrSPMfXfjlcO7K/9yTpkAoTeZLA33CuvDcvWmS5f3pUlRB+hyEDcO1lfM1149yJk3g8jrTkjszOziIWi6FUKhklLxQKodlsmnhz6ji0lHMsDGVhDLbP50MymXwjzINrTB4kHUDwxzAxPovWcsie3O128e233xr9hfPjQYnrbsk+XavVjJIM5fVPp9PY3t5GrVbDy5cvUZKumoFAAMVi0eCGMkeHGXUld8VR+73HdZCB8i5xjqRF6haWyON2u42IlEj1uEomTlrTD4WJyjSR/y5wJPSB2rxXZVhywpBFooLal/rTTZUdXCqVTMFwWrf8fj+y2SwWFxexuLiI+fl5RCQrlEi7D5DALBVvxYWhkO92uzg+PjYKPuSUmkwmEZfuTj6xKvDZfL5eBN5Xf27bNur1Oq4lcaFcLhuB7hOlcXZ2FgsLC5iRmo1QiSi8lyOuOz0XzofPJmG9D34+Ntz3uRSwGjf8rSVuIq3QEIhv4oW0dt/nTuHtoAUYJFzg8vLSeIw6kiDWV4nGtMCOJWknIkl2VKYTiYSRB1T6aJGmFWNmZgZra2uYnZ011jhLDouaxxxVUYd84AbSAnmE36NsIs1wnl5J7JubmzOl+Gid4QasaVPznt7wRlKJ6OzsDK9evTIWKfLu6uoqlpeXkclkDL9y06KA5yYIkZv04vF7Ham4QAssZSKB4ypItYtqtYqedIOLx+NmI81L4uBIlGde3Lg4z06ng93dXXSkrN9YXOFspMNQEY9yxWs5SJzx/YB4LJLJJGZmZoxXUL+mt5Dxvfyf7/Fyf29GwoSSyaTZ+Pv9vrHm08LPtf7yyy+RyWSQSCSQzWaNwsC4X/fzJl36O3d9n+PU+5fGixv0HsrvtiUulYlWAbGsZTIZrKysGE+HrZQ6j6sLYc/VZZf0S2W0Ion/VDxjUqpxfn7ejFtflBGQgxjvSRri4Yv8QiWR8ce1Wg0eOSRms1nD+1SmoRRozcfkOQ2OyIWotIrnejK+O5VKIenq92CJssW52OLNiUajyOfzmJVKHvF4HNls1lhb46r5CL0aMWluFRNvdz6fRzabRU5i0xkC4/f7jSGiVCohIN1Z09KQaH5+HoFAwBjTfHKI0WEe7XYbHgnzoJKuY6b15QZLog60nuBVpTTr9Tp2dnaMPPJLNY/NzU3MzMzAq/I0xir0iHuDJZWYSJftdhsXFxdotVqACrtl2BE9VZS72WwWyWQS8/PzxpNFL10ulzN41FdWyjUzcoH0ThqhLpnL5YwuoXHD15Pw9T7wQcq0fjgXhYoeT71awe6r1sKcaLvdNqdJEkqz2TSW5JwkViwtLWFubg6pVOqWMvs+wN84LheFI6fofr+Pk5MTtKXzj1+50eiSofvHzcQENwHzeZ1OB5eSLVwsFm/N0S8F0clEMRUHOZaTFZ9HYUFcdiSLvSOZ5WNRZCjAfiy479pQ4DPe6loy1DnPQCCA1dVVZDIZswniDmX6vs+cwruBPEL6a0keA12nA1XzcySuuVarhYHEFQdVpQfGzIUkdErTsiMxezMzM8Yqtbq6irSEQHBD1XxgqURovuZF0PTAjZ0KKuUUZRNENsRiMczOzhrrZi6XQyKRQNAVCsHXHBcVFb/kOHQkQYzxgfTMeb1ezMzMGGtpUpX25Bg5bspRiOePMZJ9Kfs1GAwQlq5h3MD5fI9sVL1ezxx+GtI51iPWIsqajJQb5LPd+CUvtttt7O7uGkMDreKLi4tGLrv5j/fja17Ef0hq7mvrekTq+VIxed8r7uqKFo1G4Yg3tC4Z/sRTLBZDPp/H559/jhmJX6YCztccH+9318Ux69f8n/MLS3gI9x6Nbzfu8BZluiR1ualMUwllzPRAqqY0JUfJluTgtpStZQwv36NBi/G+JamIwWf6/X4zz546QA+lUADvxb2d+3lXEj+heIZ80O12TbxsXRrSBMUDfV9lWnuCLNFB/KoKDw+M+mCckoMaD/iRSARjOay61yCXy+HBgwdYkVbZM2L95xjnpCRkXhI4efGz+fl5Y/mlEpeRJD/btnEp5ThLpRJ8EqOdTqfNfXnI1UqvVqZbkoBIZTrnSkB0z+dtwP2Wh6parYadnR2zD/DAxphpygyPeC2ZBEglPxgMIpFIIJfLYWlpySjTbVUfPxgMYmlpyYQHzc7OYnV11axNKpXC4uLiLdwS33fhnYcdSxLPB6pbdigUQk4ONdQlNI74+n3wNgneqUxTeXEDiZyL5xEFyC1QgsGgsUZ7lItm4Ip97EpsoeM4SCaT2Nrawtramul+FpbwB7xlTG7g9ykcSCBaSDly0r28vERXWgBzsx3LCZhKb0BcHO7nu/FFoh7Lye3w8BBX0hq2K7GZ3NTp3s7lcohKZ0kod4lmjr7U8y1IaR0G2tdVvc/oPSud/FBwX4K0RSFpqUQpKkkesVbQMj1Vpj8dOMr1ZYl7mTTWEWsy144u1Y50TfNLhzpuZrSYQB1oPUqhSiaTtzYnHih5aCUfcUPh+PjalrAtKty8P+lBK7t+8aCFJBY2JDG1oVDICG8mZKWlig/H4LgSgHmQoCwJBAKwbRvVahXn5+c4ODhAXWrJ+yQRbGFhAQ8ePMCsJNSOJRyOY+bGSf4nfsvlMlpSZo2HfZ/EIVPZC0nYgCXu+maziaOjI7PBUbGZn583iWNcF+JY85DGYaPRwO7urnGhD4dD4/qfkzAPTOBLrhGB6+hTMcT6f71GARXPyP/fdfH3+j79ft8oidVq1cwpIt7AZ8+eGWNJUMJ5AqqOufue77rccyPdEp+kl7twROCa8Le4Q5kOh8PIZrNYWVlBRKp9aEshefdG6rlfS43ucrmMYrGIgpQku5byZDdSiULTN5Wskkrmo2ufeQ8VKfdaKBRQKBRQLpeN0SgsYY6QkJZut/uGZfp9lGlbvMk+1auC/BCLxZCW/Ko5qTKSlYTPhHRVXlpaQjabhd/vR6vVwtnZmZEpXPOVlRU8e/YM6+vryEv46vLyMlZWVkwoEuPM9cX3eFil1TUpHu5wOIxer4fz83MT5uIRRTYl1Vby4jHimD61Ml2v17G7u2v2gaAkLG9ubhqZSP2lWq2a5j2MmY5K2O+cdK5tNps4Pz9HU0LePJITwpCpVakqpBVp7iHaKq2t1O7XacmViEQiGEridlt6lNi2jXA4bBTvSCQCfEplmkABqYGLxWusanZy8cOScEIG4YaSkEByR7oy9cTS4kjsk2VZiEajWFpawhdffIG1tTWk02kEJWZ2qBrJ3HfiWmA5oghopc0jwo0bG5m1JydxLVj4bN5LC01LlOy+xC12u100Gg3TlILuua40T4iKO2pubg6bm5tIp9MIqEL+WkHg825ubnB4eGjqYp+dnZnsWMZSZjIZI2h+DLjvuhC4SZTE5UUaCoVCWJWSTMF3hHm87zOncDdovvCr2ESfuH3pSudBOSIhUHEp07QqCU+Li4vI5XLGqqX5h/Igk8mYzSAlbnnyEi/SMvm/J8l8FPZUfMjH5HEopXAo9YBp7aF84vNprZ2TsIWQlJ3zuFzZxA/lgR4fFQw26aCxwCN5EYy7TSaTb8yTYx6Ilb8hlQPK5TKupfNfR3VPtJRiGpLqIx6V+HR9fY3d3V1UKhVjoPB6vSbud3Z2Fn5XJRDi2FFhNOPxGGUpeUWlfDQaISvVQPL5PKKSGER88F7E1SSw1SFofEdZvPe9ODbezxIXPpXGilQ0sSSELJ1OY2trC36/3+wrXq8XdekxwDX50Itz03MkXvXlBj7XjctJynRUqnksLi4iEong5uYGe3t7+P777/Hq1SuzX5yenho8UGnWSrSuftCVMm5c/46UWORew0Y1J9L5kZbJS+lgqZO+Op3OLWug1+tFT2rSl6RsnCXerPsq08SRT1mmefmk9GNIkvyoHAdUaBGNTQ3Vsn2oKlfkcjk8ffoUm5ubSKVSCIkXJaQ6KuqDE5/B5wTkwE6DIscSEENct9tFqVRCvV5HX6qVBQIBY1TQxiPKIAAfXZkmjVM2jCWxt1ar3VKm/WIg2dzcRFhi8SFjY74Mowp6vR7y+bwxTOTzeVNUotlsYiRVWOLxONbW1rAiVURC4rnUEFRVnPRFfUtfXANL6rBXpDReTxofRaXb7A+tTE/UuIhIN9y1UBQAQ4kPhAjooLhxV1dXTebwkhSYD0vR+rFYaEYq+54Xiemu8XwIUKBB5uMVxW1xcdHEM47HY9SkZA6tTa9evcLLly9vVTG4kbJTtH5Q6BwfH+Ply5f4f//v/2F3d9cIQIZkWNKEJi91ObnBaoLS4yQEpPlNp9NBvV5HXRoVkHjoSvk5gHsj1cxtuyoRTOHTgV4XiIssI1UBHj9+jM8//xxPnz7F9va2SdTTyWHM8p+XHAdLkp9oMahJYX0qeW6Z4rgSBMeSpMrwid3dXXN45GakNx238jJWCuGrV69wcHCAgjQxYawe+Z6eIT0e/s+xjFWyHjfV4XBoLHOlUgldSaDxSnwhrfe0EB4fH+P4+BiHh4emDTY7A3777bf4+uuv8fXXX+PFixdGEeIh3BJlnrisVqtG7g6k8srl5SUqUjeXBwgaMyISFkLQ+Ndy1lZttweqVJglMZFUVjS470V86TXh/akoUs7xNTfHt22eky79eyo22rpNhYfKll9ViNHznjSm9730b4mTd116DO8DGs9d6WZYr9eNB5PWaHo26pLEqK3MNVWSjIcSjmU4HJq9piL1fy8uLlCUsmRU0KmY0upMhXmoWmbr+er/OY/7gCXyhL/jXjEUrwkPVGPx7NAgZsle3+12cX5+buq/eyR0cjgcwu/3G2XQJ22yHRVeSd6HSxm9a+yTDkVBFee+vb2N7e1tPHr0CGtra8hJUxSP6hLN9b3rGR8b3OszHo+Nl0Hv06PRyNBau902B31tcKGc8YoCzj3F40okpHyhLsCLa/iui/RK3td7gpYPnNcPBROVaTe4F1IzBQnFq7KHqQSREDPS8pRZ5EwMYJwLEWDJRtGT2tTtdht9ibPWiHkfpLgJXgs4KOakJT2dTiOsCs73pY7lxcUFjlRP+xcvXuDVq1d4/fo1dnZ2zGb94sULvHjxwvS8Pzk5McRoyWEhLqWvaA2LSGKKnhcJjXOwXBnTFBgUJCQo4vGnDlSW3Uyk56TjnqbwaYD458bhEcsq422Xl5dN6FVUQrmouIQlmTCZTCIkoQdc32aziaI0Uri4uDAhCO41Jl3zd71ez1g3Dg4O8OrVK5yenqJQKJh4YM3PjrJMO+IpqlarphX03t4ejo+PUZTGSX7Jj9DKIWUX56/vPVYbM3mWSmxNGgXYEvLik2oADDc4PDzEy5cv8d133+H58+f4/vvv8eLFC7x8+dLIklevXuHVq1fY3d3F0dERisWimSf5YyyKE+OBuRl1pVrK9fW1wS1kA6e7OShx4OQ3DVpOjqSsaa1We0MhoVeCm6QGjSuuhR439wbrLcoq1/Nt33FfXA9unLwPgWPR93aPGRInrDfjj3nxOe7nfygQt8SvpSpIzEh1hLgkykWjURNqEJLQFtI86Zp8PxQF2CN4DUocbDKZNN7lmMTr834hCZ/ixQOLG8/u632BNIEJe7u+pzXBSwUAlUoFp6enOD09RalUMvizVKWLlFQf474KOVRo2TTpotzQdM+xEPx+v1GmWeXlyZMnWF9fRyaTMRZsTS/jCbX1fyhwr48tpRKHcmAfiwW72WwaAx5lcDAYNHRGwwQmeL40nxLPY3Vw4UFX49EtR0iv1Hs8Em5Hi7aWB3zWh9Db+8A7lWkS6l1guTYWTpoTHUkv9rQUjqdSrWOLyNS2qkN7IzHBLelMxudwYd4XNMPp/yEnp7BkyDNGh3GTXq8XQ7Gq3dzc4ODgwGx6L1++NMozL26Ke3t7OD09RaVSwViSGqPRKFJSAkcnApGB9BgnzVMThf4OL70OP3XQDOK4XHhkIjLYFD4daAHGtfBJ1ZmkJGklpCvhSFXm6KpSmF5VImsgySA8kNIqe3l5abw1FNRQdEGg6/FKOpzRM6QTeqmgaf6hLKKie319jdPTUxwdHeH4+NjwZkdKUJH+9Lx56XvytRbOI+kCRjc5v8P78UBwfHxsZMf+/j729vaMgk93PMsNXkvtblqXySMc00BCQqqSh0G5SSshceoVz1tOyo4FJB5T41nLC96fc6pWq7cMGn5J9KInTeOHv78LNM9rmPT89730+vA+fJbefN3KD4G/50as7/W+wHuRTjSt/DX3dQPnSNBWzwcPHpiwHnqPGNPLRNvl5WXMzs4iHo8bTzAPlF5RoqPRKHK5HNbX103JP5YC1J6pValhvS5lDFk4IOBKiNe4+VDQtOYo+tP6Ab/DfdESQ11RGqYwfMqW8J6o1IBnaBqEr6nIEtearni5aVFfbvB6vUgkEpiXBi3EIz3U3gkH1E8Fek24Ro7IAs6FcoGx8h3Jl6EOxYTgUChkcOBeb62zQOW2kF8oW9y/extYwrt+8Qhy7Fov4vN+KJgYMz2JCDgxfenv6fehiI+KJCfKEystqLZkHPP0Q6HnEVcHLV5uprwvkNg5Ns1oHD//5xg5TgoWS6zXvV4PLSnx15bMZZ0NTbdZU7LvHSn9lZQyUNls1sRIMx6Y8Y6a+SwRDG7odDrGbdeR1qcQBqW1e2Nj49YcPzXc97kUUt1u1yTFkCYsseCvSDZ1WHVA1Dhy09wUPi646ZLr0+12cX19jbOzM6PodjodeL1eJJNJpNNpOCrGeSBd9KgEl0oljMdjY+EMSM1bqCo2FIAM8WBcZqFQgKNcnxTimr/5W1vq2ZdKJZydnZnY467ETwelzrNXlAj+3lJWLSor/B4m0F6n0zFhX7VazcydF+dE2dGTWL5er4eGdICkckcl2FIxoH4JT/BKbKNHlfKyLAv5fB4ATPLj1dWVGWtQqquwOkFEkoggspEbD//nWHu9HsrlMvb29lCUuviUj2tra5ibm3sjLMYtw4jLu+QRv6t/x9e8iJd3Xfyt/r8pNboZjsd1DUjZ062tLQQkdA4iR4fS++B9nu0e86S5YMIeqYHfwR3hAZNipoOSHLYipfEcaXLGXABWSqABi3GsCwsLRpmOSsw7L1oFadVOSkfSp0+f4sGDB1iVCgy6tjeT8+h5ZhWulZUVxONxMwfuoQwFqdVqgIQv3jdm2o07vkeeJ61xrX2qjXyj0cDBwYEJE+tKWbxYLIalpSXTmCYm3SQtV3Ud6i1cF/1c97M5Zz1GgleqbmkrPu8Ltf56Hm3p1PyxYqahaI6ysi+l8XTMtCUW52fPniEej2MgzfUupS14tVrFSNqSR6NRrK+vY35+HolEAgAM/zFGPBAIIJPJmETQoBSo4GFOj5141PjW7/E1ce84jvFiFgoFtNtt+CXqYEFKeVKPdD/H/d6HwF+lqtuq5WxfOtJ4XEpwJBJBt9tFV6pYBINBLEhh/GfPnuHx48dYX1/H4uIiotGosQIz5qrRaKDf75tn9qVE1H3BLdDuet8jlTAWFxfx1Vdf4fe//z3W1taQl9Iry8vLpuTLrDSiiEajRhkgMWWkgQ0FFgXMysoKNjc38ejRIzx69AiLi4uIS6kZS1n0ScAck15gbrRuHOsrIFbunzpE7iiFxfd4UZBN4dMA6SokSXiOUiogyi75vSf1aRl32ZKKD0GJVeXa+iVmmh6ni4sLU7qNyU/1eh2Wq+KDR/Iu+D8PuVXpqMWQEcaEUtHUQtmrvE6xWAxeiZssSeMECvqhKuVFvqNs0xs7lW7yK0SWjJW10xKlJKw6gYVVIw3Oi/wbl8YOzIBflG5yDANjYlJSEj9DEkLT7XZRqVTMYePg4ABHR0dotVrGKBBQiWpUVAiUNxo4l4Eqs6at3Fqxh1iqbIlP5+8pozhXrgnHRAWFmyAva8Jmed+LwN+796BYLGZyU/Q8IDSv50NLnB7b2y49Zo8r5ERf7rH+tcBn+cUaF5P62ZubmyavgbkN3IPY5IbNZ3JSe3cs1RxoeWxK6buuxP+n02nMz88b+uQ9mEjG+2rLdD6fv0VvHwvca0+c6j3dloMhVMhSuVxGvV7HWAx8QSlssLCwYLo5p9NpQBT8oBxkIYdSy1VwQV98lgaPK3G6IyUJiWdbQigGUvCAeRAtKTWqZcmnBE2jXvFsBcRaPBgMUK/XcSXt0Pv9PrxyOGDYD+WDlod6jdzrRnxSpna7XRO+psfj/h1hJB1sid+mlIZsq1jugOTh/ZAw0TIN16aiL0dOSWdnZzg5OUFdkuCq0rIxIFYmz4RTFgUUkRYUq4nP58PFxYWJvRnJSUeHXFDwaSF3H3CPX7+vPyczWLJh8uSYkC6I3Py08IQKqrdEEQiKcs1wjpzUW1yUxjP5fB5x1ePevfFwXBQIWkCMJBuW8d2zUoKMFoLZ2VmjBOm5/hRg0joMJS7akqQmWjVzUhMyHo+bjGr+hmvvvtcUPg5YoihSuLnxXq/XcSl10xmGNRgMjFdka2sLqVTq1qYzliSWvpTI5P3HE+Lk3IqNR8okcuMrS9ktqLAn90GyLwlFHmV1HqtmTZAGFiPVsIR8ZSmrtOOK7+OYLJfVkM/ziuIeiURuxZgyXjmVSiErzSnSUs5pVpousNwTs/oXFhbMNS91a7PZLAKBAMrlsuEbKvdMPKxWq2bOVIKWl5extbVlrJcQBXKk2jJzTj6fD+12Gzc3Nzg/P8fV1ZWZWygUwow012FuCeUY73EfntTfm3Td93v6Il1RVlriCdCWaUeqE0TFpf/kyRPzPK4lceC+//tcHwqWrAHp3iNyzhYPS7VaRblcRk1KysViMePtDEkda1vlnVDJhshaj+oEOJY2zzs7O6arabPZhOXKzeFBiuFcI/Ho0MPBi8oWcR+QWsncHzmXujTp4kEaAOLxuKm2kJTENe2h4dpA9sWBhJPxM8uVIKyVuLGUXy0UCibnotFowHEchCTO+4svvsCq1LgPqTKstqo6o/dUrrOev153rllPjH6UIfoQyTXSB9NJ9+Q1Go1MaNpoNDLKYVqaAiUSCTNG9+/IF1yfoaqKpp9FRZk5KX1J8E6lUib85fr62uStOI5jlN5EIoG//du/xdramjES+nw+XF5e4uTkBA3pwurz+UzI78zMDEKh0C3dy6NkNuWuG+/8Hv9CHaRupFJNo9GAJXI9qKrF+CWOf9I99fUhMFGZnnRjEudI3CUXFxfY29tDq9VCvV5HQzoXxqROrFdcBxTEvA8JCaoo/HA4xMHBgXF3DqTJQEp1lApILVci8L4Tds9j0mf6fxIXx0brGhXrmGSrplTnrrR04OJmmMvlsLCwYNxs3CxT0hSAm757HPo9EoejXIZe2awTUjNzRjW8yGazSCQS8KkWsT91oEAMBoMGr+l0GlmpIRmLxUx8LibQ5c9hjj83IE5JdxrPI4k5ZDZ/XTof+nw+zEsN4+XlZUQikVvKjVdKYg1V6ANjpb3KSkirq1fFXHvURj2UqhlUpn1yaKdHIyhWbG4U5AW+xzmNxPpGj5dHFChu5FCHZALxYLtKnBHIm3SNp1IpZDIZIxfIp5QHlBmUF1SmSfv6vXQ6jUQigbCEs5TLZcM7lLM9qSnc6/WMISCjEr/n5ubgU/GwxDHnwL99qWV/KY0lWPnEK4mH2WwWq6urZiP0Ks/RD8GX+p5vu/RcIGvKEKFisWjCPIJirU6lUnjy5In5HX9rqQ3a/Yy3XX8t6HuR7rlv2hIKSWW6KjWzIyoXKRwOm/2CvKcNUKR9SPWERqOBq6sr7O3tmQo0jihcEanCw714OByi3W6jK6GYPinJyDG6xwrhPY7DUjhtNBrG61ytVgHgVrgC5b0+aPO3UEYmvk/c8309T694oYrFoqmyxbAEj3iHUqkUHj16hJz0eSCPQFlMHTmE4R004QbiijiyVUMkAp/He7jnReh2uzg4OECpVDL8GAgEjIyYke6E7t8Rj3qMPGwQv5QhDCViBSFHhQ0xROLi4gK7u7soFosISC33YDCIubk5/OY3v0EmkzG48vv9Rplut9tG7qSlsU5KuoJyzSyRZ8SDey5u0Lj3yEGBh+emNC1yJNSWBgnqXrz3fZ91H5ioTBMsZaUZi2WHjFgul/H8+XO0JXa4Iw0dKPTJTIPB4A3lkcjjJJrSZIAJPCNxncSkCDuTFLn5agH+scCNUI8o1NzkaSWl1YjuLrrP+JdJHrQkcSOkEq3H7n7m28CS+qi0kIdCIeO+ZPasts79HMCnXPdR6TzmPqjwJDmFTwduAWPJxtrtdk1dWYZW2LZtLEtz0g42pJJPPGI5HqlkxJ64NEejkaGBoCRPuZVpjoUbe1fKf3FcltQRpYsxJC5JvcnzflDWJrqwueF7RCkPiReE3x8pFy7vqenRUtaPqJSfy0jHNbeCzNdUsvk9WpdI9zy0x6VdeEQSoYlPylqILOWm35N20dywmBg2Nzdn+MirksyIW42XstS2vry8xNXVFYqq6gmVnrW1NSSlMgjHwPv9WLzKdfEoy15P4r5LUtOYcw9Jo57Hjx/DmRCL+2PNgUBliXNypJNuRUqwVioVw1fck6LR6Bs48IkFGkK7PERWKhWT83B5eYnhcIiAhAN5JRmP+9RQQhS6kuRK5Zp8Sh7js7Uy7VWGM46JoUmVSgWNRgOQngvkDSrTVMK9KpkMit80H1LW8HM+CwDK5bIpQ1koFIzl2RKvDg+bsVjMWIk1bxGoIL4PcA08Sn5xPhwjFT4+i/PSNOhILPDh4SFKpRL6/T48cuiZm5vDrDTH8kxICNbKNO/tqIMHcTwcDlGr1XAj5Tu73S4CgQBi0h59ZWUFo9HIlBVsNpvwSShVTrrX0pDC5/hV6/R2u22eNSOFHmZmZswhEEKjenz3BeJrPB6beHzGaHN/YhUqfSjSv/0YcKcyTWKGLOZIXILczCqVCr7++mujTHclmD8tVTCCEhJhS5koW7mOIZMgw9brdZydnZmYS0tcDvF43GxEPAV5fyBlmmPjpYmbCh837IiyWMel9BAvWsl4BSXuigSiT4Vuwne/1u9ZihnIpAFx9VBwTfrtTxW05cGrasMGVBt6CsQpfDogn2vBDLFm1et17O/vm3g5ClwmH83NzSEupS65dppeKSh5r7aqi+7xeDA7O2sUYUs2ZkeFWpBGWq2Widnu9XqGVqjQUqDz9xT65EXLlfzXlXbI/Jzj9YuFjAoBxzRJTlBG0JsSl/JkyWTSXG75QEVZHwL8d5Rm80oIWUySoxwV29xWXQ4dx0Gr1TIWZMrOYrGIdrtt1nMklViGUouXls/T01OjZDFnxbZtxKTlOmNjwxIDTrlG2fRjyaBJMrInnfu4uXpFmQ6KRfKnrExzzUlzWpmmZZqHgvn5eSSlEoRP5RtYqmFRXfIVjo6OTBUZWjr9fr+5z4p0yMxkMojFYvD5fIY+Op0OWpJEO5C8CdJdcELJRY6B4/J6vehLkhuT9cfjsTlI5ySRjvslfwtVCYZr6wZLJQvyc4axvH792iiIXrHChqUr3rNnz5CXZh4+KRPI52ia8rlqqt8HKPNsOah2u12jF41VB1kofYhr574KhYJJ+KbnPplMYl46B0alGQ1pl3/1YcYrhxseiKjz+Hw+9KTiEMNv/H4/YlL+0Ov1Ym1tDdfX1zg4OMDZ2Rk6nQ48Hg9yUullc3MTOYm/5/N9Ph+ur69xfn6OlpQM9Yg+RVkYDAZv4QBqrQnUle66+J12u42CNGiiLjkajZBOp7G+vo7l5WWzpgQ3vv4auFOZHktWNxmCgx5LncFut4vLy0tAneDC0kEoKZ2GuDlxEbkJkOghJ1+ehvrS0ATSLGJeSsjlcjmEJCaMAuZjTF4D58CF5CZqu1xH+n/ihxfH5CgBbav4UN6bn+t7TAL9HUsEo3s8UC4u4liP5acKA1WoXTME8UVBQ9xO4dNAT7oVelTDgJE0CSkWizg4OEClUjGKcDKZxPb2NlZWVkw4luZPZ8KhcSyNWChg+R0dpsSNyHEp0z5pSdyT5MeOlGay5dAelc6i3KzGcmjzqcMnx9gVLxgt5pRJHgktoYXOko2Om7yb3zQda74n8DcaF+739H31vTUf8CBQkcpBjUYDHalOApGZScmn2NjYQCaTwWg0wvX1NXZ2dswhiFUhqqoKUblcNnHSTMqk8SIg7uTFxUWsrq5ifn7e4IpzJp5+LHA/25IqKywVyDAP38/EMk3lhzzQlRritExb4pHJZrNYWFhAPB439NPv9w1vVCVZ9+joCCcnJzg6OjL5Dt1uF7FYDAsLC1hZWcH6+jqePHmChYUF44aPS/wrlPeiK+GYPUmq4/9+sfo5cmCmos33yPdlqd5UrVYxEM91VkIkE4kEAlK+0VJ7o5YTlkoEdH9vrA6Yr1+/xvfff29KRXo8HlSrVQSDQSwvL+Ozzz7DxsaGMQBovtV7ups+7gv8DXnZkZCDfr+Pm5sbnJycmAMrDZI9CYfjYYVGA64j+RIAZqSDciaTQVhVNOJziTPqW44ctMvlMk5PT3F4eGgSuBmOcXx8bEK7RmJYCYVCePz4sUmOtMXaG4/HTSLq4uIiEhK3zXXyeDy4kYTzRqNh9JewlNALBoOwpQcB50rdsi8FLYiLt10N6WbJROy6NAUbStx9Xjrzzs/PG9y4cfUh6+uGtyrTmpggBMbPhsMhLi8vDaHYto2AlByKShvNoAqu10RKpiMizs/PcXZ2hr40BxgMBsa1MD8/j5mZGXOiI3xsBYsMyYsbuMYBCcT9Pc14+rVm/kn31d91g3uh3ePj++7v836T7vlTA40HuBQvyJx+7E361wZD8QxRmeXmSWF+fHxsBGo4HEY2m8X29jZmZ2cRi8XMWnFNuQGT9i3hi5aUlaRAHA6HZlMLqmoimu5J1wOpNNGSMnPcNALSECmVSmGkkgvJg16X5Y5x2xyDo6ysVEwpv9x8x//d/Kxp9S4+JJ2T1vmdSd8l2BIyV6/XTYlBhtqMJNksFoshn89ja2sLy8vL8Hg8qEiTivPzczQaDTSla1lduuTRSkglW29GEIvjzMwM8vk85qW6SFISNYl3jZsfGzReaaliAqIlruefujI9llAd0pPjCvOoVqvwqGZKjGdtS2WdojRHurm5McnC19fXxkI/ksS3mZkZrKysmKocS0tLRjELSSOWkMRG67FQSdZ8OB6PEZVQk6HqmtiTQy8t2rVaDQXpFFqr1WDbNkKhEGZnZ01SmrZMcy2oOHNtqU+QFy2RVQ0pVVsoFPD69WtcXFygK+Fclijhi4uL2NrawsOHD40lnKCfqy/9vPsC5clYhdr4/X5Uq1UcHx9jd3cX5+fn5oDEAwYLOlQkHIafMcG4J+FcqVQK+XweaUmc5IHAUcmYlsg9jxhH6lKL/vDwEIeHh7iRUov04BSLRbRaLXOPgJQt/PLLLzGWA1NC6mTT4ru4uIhUKnXr+cQjD+6U9bYc9myp2lGpVHB2dmbCBy+lQhMt2rqN/V0Xw9Fubm7M+AfSVdsRZXpRGo259Ym7Xn8IvFOZdm8gfKDjOEYB5mbokU3Ir0ogEUhYkI1pMBigKV3RTk9PcXl5aZTpfr+P+fl502IzIi1wfSqRiJvcxwLOjXPWl56zZjB+pi+oReH3ueFO2njftYDu53E93PCuz39q4MbDJNy68T+FHx4cUY7Iuz3VRInu/8FgYBSSOSnFlZSyYwS9riOJjaYSCwkXq9Vq6EqYRa/XQ0QSEBn+QAsyf0Mh7YilrtPpGAsEBX8sFkMmk4EjFhmfuG4pM7RCTQuIvgaDgVFM0+k0/Cp+k+MgXU7iaYLjOhS6gZ9rGaDpX/OBpTqxXl9fY39/H5fS9Kbf78OvGkItLi7iyZMnyGQyaLVaxuJUqVTQk9hXWhOr1SraqpQUN/CetHqndV5XIspkMghKZRXCx5bFHwJcY1uFA7QlAbFQKKCqqpz8HJRpt2yklblYLKIqYR7hcNgkc1nisWAs9PHx8a38BiqzjuMYizZL3DFESytEXvFIhCT8KKDC7yByoSe5D0z2SiQS8Mgh9Uoao1C5rVQqqNVqqEgpx2q1aqqHRKNR5KUErVam4TqUa/2B66b5juvNON3Dw0Oj6PP7PPxvbW1hYWHhlgJI0OvPNSBNvQ9tjF0eq4AkUpfLZRNuQwW5JuVF+bpcLhslmhcT6wZSySeXy2Fubg5pqaxD+esoZVrTkW3b5jBzcnKC8/NzVKUKG+VARyq2UEbG43EsLi7i2bNn8Eo8fTabNUbO+fl5pFwVt7Rs41za0ilxLNVVRlLOrlwu4/z83CjyhULB9NIg/V5fX7/1olGAB00q7bZEMlB2kb4Jk9Zy0nv3hYnKtCUZxV4VUsGH6MU5PDxEW7J8iShOghcXZqRi9MZSKqsolQHOzs5QLpcxlBiX4XCItbU1rK2tIZVKGQs3CQI/kAC/C5H6fT03LbzdF3/HcU8CbgDuzzXO3fjn7/QY9G9+LjBprKSrScrJFD4NUDkkPbWkrNSptODlRp5KpUwi7tLSkhGm7k3Qkg2Pa8r79/t9NBoNtNttI0OCqjZ1XFofk070BuH3+zFQte35l8I/m83CpxqeWCI3SF8e8Y71ej2jQA/ENdzr9RCUkp2MAaS70+uqgHEX6I35XaD5232RBzyqJOHx8TEODg5QKBTQ6XRgWRZmVFUfNp8IBoMolUrGKtkTS/Nw+P9VUxlJ6A7xqA8njvQDiEpS8NbWltk06X3Qcvhd+PgUoOWxoxI16f6tSQKi/2domYYcPmmZrkgCIueRy+Vg2zauVZdPJquVpFKHRxTQqNQcX1paMklj2WzW5BmMxdNsifIXlrKTURXnHwqFcHNzY5RpKkczMzOwbRvVatV0Kq1KaApDbahQ02pNXsvn8yZElEYzuJRp/q8Vfo2jkjRnYpfVssT+2mId9vl8+Nu//Vs8e/YMCwsLCEp8L9ReTBmledgSi7Z+1n2A8grKKg2J5abeU5Fazd1u18hCeo9qtZr5y7CsnjR88vv9pmxmWkoH8/6aDzSOHMdBo9FATbwXPDgPJfzCVkaDiJT3ZBjRxsYGQpITkpQSthEpzBCUeHm33LPkQNuSHBfKnV6vZ2it0+mgJnHgNGh0JfyO8vldV7fbRaPRQF3ycDgHjyTpLi4uIpfLIR6Pm33qfdbxvnCnMk0i4IPJYByEJbVNteIIAC3VFZAn6VKpZIiHwv34+NjEcRUKBdjiNk4kEkin03j48CGWl5fNSVWfst6XqO8DdAuMJsQ36zm6n0+c8CIzWsrdQSLjPXlgIBHTCvgu4PfdRAuXgq3X6acKPD2OVctwN31N4dMD6YtrUa1WTazl1dUVAtLBijGWy8vLSKpMcv5W30NvTpaEkPik0oCbx+JSWi4ulSxIB/yOI+Wa9L3Ju7TQuq1smBCm4VPJSvxL7xpd53NSTo6yzyNJbRw378X5ah6cxKMa+DvcYaXm/fisiqvr2Hg8RigUQiaTwdbWloldXF5eRiaTMWPySn3okFTMCUr5wPF4bNz5QUnODEqCY05Ke65IM45Hjx5hVtpO87fEm1eMGn1VZvDHAI1Dj3hW+v2+cZM3m00EJLk1+BNPQNT4hczNHeZhKcs0LaxViX2vSJvnGamMxBCdfD5vEkhXV1dN4p3mAz6fa2uJ4haVXIRMJoN0Oo1Go2EOvTFJup2bmwOkgsbBwYE5xFEfqNVqRmHkoY2H1pz0k2DexEi1sKZs4WvKE64dXGU7z8/PcSn5XH4JG6NO8fd///fI5XLmGcQv9yHuxZrHPZLM7HkPvYPfIw4hz+E9LDmsxKRaBmOILdG9qCPQ618oFGBZFuLS6Xh2dtaEc6VSKUPzpH9e+pkEr6qyEpLKS5TJ5N9kMmlyJJaXlxGT5lv83COKqlufsVwJp8QhacxxHHOI4v08orxTFvml4RXH5JdIh7uuoJS7JG1Eo1ET0z0/P4+HDx+avAKO/22g6ep94J3KNGEowdwEvQlyEpYkffBE0ZN4qbKUW2KmKE9GdPcMBgMEJYaLjMVMdFqnuFh81scG3pfI1szKBScT8HIDv8vP3URM/PEzEsuke90FepzuSz/3pw5U+im0Na6oZLsPcFP44aEn5a+4mdGKQpdtKpXCrDQLyufzyEpLWPfmQ97hRasEhbtXlOCheKogG2JKSsQlk0nEYrFb/EiZ45fDNQ+/dH36JZ5vYWEBqVQKllhQqRxoOrJEoabyO5Y8EJ/PZ5TJxcVF+CRMhN8n32qemwR38ehdl5vO9WtHYszpIh9JzGtcOifyUDM3N4dEImHmROU4IU2nqAwlk0mEJBY2LNWJIlKhiMrNvHS7YxxtSFoew6VseWStO5Ld/0PI5vsCcUac9qQ0XrlcRqPRMJt3QJpq/dSVaY+ifYZ50DJtSXgEvRER6TTcl1DJYDBo6GJ5ednEu5NOUqmUUVg0n0LlTRD6EuMK5T30SCWHWambnsvlsCLt6odSYpE0CNchnYqrZVlISFOjtDQxYhIbZYUlewT3CwLlBvdUR+KBK5JQy9JtIymxu7y8jM8//xwLCwuAisH2qUM9VN1nPUav8kjdlzb4Xa4hZYxfwlV9khDt8/lMSBt5Z6Qqizmih4xGIySkAzPl7srKCnISBsu5uJ/Pe0DxhU8U1LDUxffLYYkKrd/vRz6fx/r6OjY2NjA3N4eg5KxxPLaEUOhn9SVhWdMulIV+JF5En9T0p8GERtSo5Np5VdfFgHSifNtFGgqKoYCKNHNINjc3bxlXJq0hcUSY9J13gWXb9hsmFEss0XzN/0lYEAQ1Gg1cX18bV1qxWMT19TW6UgCei+Z3lcbziImfRMzFnFedvjY2NkxyAH/ryEZK4v7YYIk1RxOgmykIJCq+JvL19/Tn+i+/e9fCTgI+722/0d/5qcNYkiPcuOUcKEwo7KfwaaAtVTrIZ2dnZ3j9+jWOjo5QrVaxIF35tPLmFUuHo6wgpEP+T0+ER9y0tm3j6urKJJEwHpAWb9ZH9qlyVZQXXmnGwCS64+Nj48bPZDJ49OgRFhcXjZxwXBsNFA+2Wi2UpLU4Lb4pCWFZWloyirulZN8kmMTjfw3d6vs5joNisYiTkxMTagOpnpROp7G5uYlsNouYNMyi/LJEbjM+mgrIUJpwFAoFeF1x5EGpq6+tjhEJAdDrwA2Tc+xK22k3nj8VcH/imCzptnd2dmZyckZSJSMmFSx+//vfmzhWKFy7Zf2nBo1fiOJYq9VweXlpkkmHw6FRqDY2NpBIJIxluirhANls1igsPAxRSSFf8SLOHEkw1OtLXYA0MJLGbZTRYzkMJxIJ9Pt9FItF7O/vmxCGnnLXk66pMDG8Y3l5GQsLCxPliVeUaf7WFsWXf7nu1WoVh4eH2Nvbw8nJidE9qOizOQvHzTnp+5B+tTLvU2En9+Vp/T3iyFHNX/pScaUuHQQZrsCETobOkmdtqaCRlIZQVBSZqzKWMBb3s7Uep9evI623GSIxUh754XBoFPeUNFbhPSkDHJGppB+It9nnKtM7Uu3pmZTa6XSMvHHEK8Df8PlcF+L9bRCUhPWhGFyphPulBN/8/PytkEFMUJ7d7913nTVMVKbvC4PBwFhMWALl5ubGxMiQIOlKGIrbgsgLSIJDTJolMOuSVhEi11Ydj6YwhSn8cMD4ypA0N7i4uMDp6Slubm7Q6XRM+AMTOt4F3KSH4tnyqOTGWq1mMrgLhQJarZaRAYxzo0JMOUDhTStHW5KOehITHA6HMTs7i0wmA59yW74NWlIuinKGcolKiN5IfixoSm1/KkyWWCbTqgMeNyRumnrjc+PPtm0UCgWjrHglppMKMTdFrVT9lIFWMY4ZADqdjokRrdVqaDQa8Pl8iEqyJkNX+H0qhT+l+Vpi8Wu32yYutCpJY1lpABSTOFbIntyTOFi6zYPBIAIqOfhjAekJKpyh3+8bWi2VSmhJxZ2elNGjwhUOh40XJCY1zNPptPsRb4AthrWglFXjGHhAv7i4wNHREY6Pj80zUtJAKZPJIJFImHtRJ/H9AAabuxQ38p8Gza9artHLPxgMEJEiDEEJaQhLwiFplb//2PN4H+A4CByT+z3uBe8C6o/vAkvFz1Pma4WecJ97/TXwVynTRF5P4qKYaFCtVlGv180JqyO1YDlpxrQkpeNdJpNBNBqFX1wPPA1BEMqTCk8y3DCmMIUpfFxwW2H70mSh2WxiNBohHo+bsAF+521gKc+WoyxNkI2RCgKfMSMt5WekOxZc1hDyPgWlI8X6++Le9ng8xl3Iz98FtquuPMfoVzGC3LjvM+cfAixxj1OpAoBAIGCsyG7QGxkvrfw4Uq0DauN3/yXcB4c/NtDqrGljLJWhaPXrSx+DkMSPx+Nx83tHLGQ/hb1lINUatFIwlE6EPQmd7Pf7xntAazNcIXJBicG1JiSH/bWgeQYSHsFD8lDKaTabTXNYcRvS/KrzLd6DxsZSOpf6AWmba6Zjy3PSsCgkOQO0ChOomP+YyjRlCteJ79HKOpJQtojEtvOQ6wbSr6b/Tw1uOnPPla/te1ibITR1H14cSa8A8gtx4KZ95wc+bPzVyjTUZjeWsictKZfTlPbgbmWaJ6uoZAhTIGiLiKUKs5MBSUSa8KYwhSl8PNBKK1wCUgvG+/KgFmgUolrgU0kdS9gYrWl+VYVD/84jZTW1POC9eXmU9VuP+W0waS5u+eb8ACU57wt6LCOVS0BcEoeOciVP2sj0e8SRBselgOMnZql9G0wao3supA89J00/k3D3qaEnXhbtHdDjH4lLnvPQSgfp1HaFyH3s+VhyQOb+7JEOpOR1Xpr/4VJo+Bnfvw+M5YCklXDOmcY2GuCCqlqHGzStTKKbvxb0PfXc3PPUOJr0G/7VONPfId+TfoOufhw/JrjnQLjv+O67LqRBjUc3ngj3ffaHwF+lTPelR7wWTiTkgWrG0JWi6RAE0ZWoA8y5OU7aHKBac05hClP4YYG8N5Y4PPIl1GbmlTCt+wD5lpue3iDI744k2QUkEUc/z1EWbUs6F/J/rwoD0d/9EHmhha77txz3DymM3wYjlW+i5S3UgcRWBotJ4+d7nOdIxVPqv27Qz/qpgh6fpjE3cNMlDkk7/M1PQZkeSgKg5g+oeXGtNS3yM46bv4U6hH5MsIRnqchBKme412HsqgrG3/Eiz3rF6vouGEvMP71WlFOj0ciEPUDxBF8TL5p/iNsfc60nAcdz17j0++51d6/BTwHc87gvLVLmvQs0rfN/gsal+3sfG/4qZZqbGi9ttSEB29K5i5OBYiw3UWuhQSbU3yG4F2cKU5jCxwFLHWQZT6gtXx+iTENtvpQLVGq04tztdo2CTFmg5QDf70sZNv6W96Nc0N+9D3BcBC2n9N8fE+jy5XpoeamVQb7//2vvbHebt2EwqqxDu/u/2gFt7P3RKc4eyI7j2ElflAcI8mFZIimJpBXFGcnsz+a+Pc/lfZ7LnhmAjuQSK6A8eN/0Q0Unb0627v1G4wzcNjoxRv3MvGS+TrotKjG1nZhMt5g7xP+Ul/LI5L5Bbsb1Laa+BYJtXPipa79TBnoik9tq8g22ySv72na03fgMMv/x/PwT5mrKvIWtybQXVRL3PWPwLB5Kpgl0sGastWMw6SvfWXcU+AmDvih+A3buX4N9qE2re1vmNMGB5Jb3zHEc3NvbW/u338zfbdqZ8nm2n0HbQX0LrGwhi/WiHR5b6zwafKP94YgMHjDqK/bmWu9RuVfpfA/WGR0Ya4w3ni+613kG4ZH+zyZlQHYe9DG3Amu6da3nTzu573I+8H7uSTKrxTkfUz8fu8XUt7nkHvG5r27T9vV6/d5XPWrPbG37DDxWkR2fZ3uhb9owdXulLrdAVvv0I2DOY0PI95efnExnR4In/tT3obmslfQzDp3AxpX3rH1Qlx4s88cERVE8TgbEpiR2ab6vMfVvpkhc9tSBPCQSTY7RjpSyHN/TFtgGbutVZNv2r/hEfKVtYPL9VqjvJ5M/QBqRF3Aje3g7DUngsxnJBR7nHuMeC+g3Ou8o+DEnbXluM1eZO4zJnJs+b6t8U0+ms45RGcbCmj3bCbZpUafbvyXLEk5AsS+vm+rd62OPgDFp8n0bLMIusaXvEseInCP31nUvDyXTnrwpqBX60i1OXH7p3Axg0zR9f7W79eugoijuh2Qi5yQwJ7c6Ojv+FvPfZeYb+5EpM8c+TOSwv8GhksDvgXqu+oX8mnxnY3t9xj+h2p6XG/fDNtkHbRCM2h/yexV/s7DUT+jTVgIrq5qjJO1ZzLElcgniKmU8R2yLtTr28vn52dognsNIphyvyEi5Lcza0sX52U9zn7t5V5T0FfilpfGyl5GukH3h/luDixeg/rTvP/3PmF5B6rKk19a+dtxYgz6m35vaoM89Hs/i4WR6hCdL04oAx/x69LyUTBMcMVxRFMdCMpWOEEeF077nopa5yleY6dymvqr2/v7+XX+TH1kKgpThmePUsZZYGSfNDu7ISzBOmzwTt00iw+e2pd+D7WKwK8ewocthx6zzp5G6Oahadvevz8Fulx5vRnZ8Fr5YTDksN+W8ujvHHuY8/yhog7rxDS0uuNPO8IhM6MjYzETK5dpAHtfRtNf7KKxz2j/1nhd8rfsy66J82nbufjnrexaW0897Sf2WwCaOT5B+e0t9e3komUYwdz6KrTlgDxCDo2OQ2/F9fX19bxcZnVsUxTGM5u3cHTsr13/3fze9B6+oeq7z+Pj4+J8vIVDyOIurfmyJ35p6gt20zcXB+BXQLyw2OLCCfXJ+lq/TR2dd8Eqdt4Lssy6CLDfH3/SvmGkLj7NX6sy4a4NkzLLPPd6ywMRxdD86STQpUy6Y5XxZGltOgJfKJJd+21y/Txn+6v+0mrjfXfZI3Eb2X+pIH+Zn9otTX2igrixvaPcVZF+vyXk02Dz1Tx+Xx4/koWS6KIqiKIqiKH4zx16SFUVRFEVRFMUvopLpoiiKoiiKothJJdNFURRFURRFsZNKpouiKIqiKIpiJ/8BMC3LWMTpke0AAAAASUVORK5CYII=;" parent="1" vertex="1">
          <mxGeometry x="-867.9979337565098" y="-1910.9978422037755" width="723" height="110" as="geometry" />
        </mxCell>
      </root>
    </mxGraphModel>
  </diagram>
</mxfile>
